<svg width="630" height="378" viewBox="0 0 630 378" fill="none" xmlns="http://www.w3.org/2000/svg">
<path opacity="0.1" d="M111.542 204.958C119.827 240.328 137.367 270.902 165.082 285.741C222.693 316.539 352.61 300.652 449.567 282.404C498.562 273.215 543.034 247.824 575.824 210.321L111.542 204.958Z" fill="#2193B0"/>
<path opacity="0.1" d="M619.999 38.474H566.798C565.579 38.474 564.41 37.9903 563.548 37.1295C562.686 36.2686 562.202 35.101 562.202 33.8836C562.202 32.6661 562.686 31.4985 563.548 30.6377C564.41 29.7768 565.579 29.2932 566.798 29.2932H575.995C574.801 29.2547 573.669 28.754 572.838 27.8969C572.007 27.0398 571.542 25.8935 571.542 24.7004C571.542 23.5073 572.007 22.361 572.838 21.5038C573.669 20.6467 574.801 20.146 575.995 20.1076H569.428C568.234 20.0691 567.102 19.5684 566.271 18.7113C565.44 17.8542 564.975 16.7079 564.975 15.5148C564.975 14.3217 565.44 13.1754 566.271 12.3182C567.102 11.4611 568.234 10.9604 569.428 10.922H597.195C591.034 8.06192 583.832 6.0265 575.532 4.95874C499.818 -4.7512 472.786 1.67443 463.25 8.29549C451.485 16.4467 438.36 22.4433 424.334 25.332C377.619 34.9561 290.255 46.5394 211.071 21.6234C171.715 9.22978 142.468 30.1655 124.934 65.1346H629.234C628.576 54.9718 626.605 45.5908 622.987 37.3729C622.156 38.0864 621.095 38.4772 619.999 38.474Z" fill="#2193B0"/>
<path opacity="0.1" d="M107.027 131.135C104.984 151.705 105.677 172.454 109.089 192.841L576.182 209.907C589.185 194.967 600.103 178.337 608.636 160.47L107.027 131.135ZM291.768 175.152H282.571C283.79 175.152 284.959 175.636 285.821 176.496C286.683 177.357 287.167 178.525 287.167 179.742C287.167 180.96 286.683 182.127 285.821 182.988C284.959 183.849 283.79 184.333 282.571 184.333H229.37C228.151 184.333 226.982 183.849 226.12 182.988C225.258 182.127 224.774 180.96 224.774 179.742C224.774 178.525 225.258 177.357 226.12 176.496C226.982 175.636 228.151 175.152 229.37 175.152H238.567C237.373 175.114 236.241 174.613 235.41 173.756C234.579 172.899 234.114 171.752 234.114 170.559C234.114 169.366 234.579 168.22 235.41 167.363C236.241 166.506 237.373 166.005 238.567 165.966H232C230.806 165.928 229.674 165.427 228.843 164.57C228.012 163.713 227.547 162.567 227.547 161.374C227.547 160.18 228.012 159.034 228.843 158.177C229.674 157.32 230.806 156.819 232 156.781H285.201C286.395 156.819 287.527 157.32 288.358 158.177C289.189 159.034 289.654 160.18 289.654 161.374C289.654 162.567 289.189 163.713 288.358 164.57C287.527 165.427 286.395 165.928 285.201 165.966H291.768C292.962 166.005 294.094 166.506 294.925 167.363C295.756 168.22 296.221 169.366 296.221 170.559C296.221 171.752 295.756 172.899 294.925 173.756C294.094 174.613 292.962 175.114 291.768 175.152Z" fill="#2193B0"/>
<path opacity="0.1" d="M629.259 65.4397L119.307 77.8333C113.103 93.7591 109.013 111.754 107.104 130.425H620.324C623.674 119.462 626.153 108.253 627.736 96.9005C629.264 85.9321 629.875 75.3212 629.259 65.4397ZM210.633 106.034H201.436C202.039 106.034 202.637 106.152 203.194 106.383C203.752 106.614 204.259 106.952 204.686 107.378C205.112 107.804 205.451 108.31 205.682 108.867C205.913 109.424 206.032 110.021 206.032 110.624C206.032 111.227 205.913 111.824 205.682 112.381C205.451 112.938 205.112 113.444 204.686 113.87C204.259 114.296 203.752 114.634 203.194 114.865C202.637 115.096 202.039 115.214 201.436 115.214H148.234C147.016 115.214 145.847 114.731 144.985 113.87C144.123 113.009 143.638 111.841 143.638 110.624C143.638 109.407 144.123 108.239 144.985 107.378C145.847 106.517 147.016 106.034 148.234 106.034H157.431C156.238 105.995 155.105 105.494 154.274 104.637C153.443 103.78 152.979 102.634 152.979 101.441C152.979 100.248 153.443 99.1014 154.274 98.2443C155.105 97.3872 156.238 96.8864 157.431 96.848H150.864C149.67 96.8096 148.538 96.3089 147.707 95.4518C146.876 94.5946 146.412 93.4483 146.412 92.2552C146.412 91.0621 146.876 89.9158 147.707 89.0587C148.538 88.2016 149.67 87.7009 150.864 87.6624H204.065C205.259 87.7009 206.391 88.2016 207.222 89.0587C208.053 89.9158 208.518 91.0621 208.518 92.2552C208.518 93.4483 208.053 94.5946 207.222 95.4518C206.391 96.3089 205.259 96.8096 204.065 96.848H210.633C211.827 96.8864 212.959 97.3872 213.79 98.2443C214.621 99.1014 215.085 100.248 215.085 101.441C215.085 102.634 214.621 103.78 213.79 104.637C212.959 105.494 211.827 105.995 210.633 106.034Z" fill="#2193B0"/>
<path opacity="0.1" d="M374.884 377.001C466.831 377.001 541.37 372.972 541.37 368.002C541.37 363.031 466.831 359.002 374.884 359.002C282.937 359.002 208.398 363.031 208.398 368.002C208.398 372.972 282.937 377.001 374.884 377.001Z" fill="#2193B0"/>
<path d="M513.096 301.824C513.096 301.824 515.716 305.252 511.884 310.404C508.051 315.557 504.892 319.938 506.156 323.165C506.156 323.165 511.936 313.56 516.656 313.427C521.376 313.293 518.269 307.602 513.096 301.824Z" fill="#2193B0"/>
<path opacity="0.1" d="M513.097 301.824C513.323 302.156 513.503 302.517 513.631 302.897C518.223 308.288 520.666 313.317 516.256 313.441C512.142 313.56 507.212 320.901 506.033 322.755C506.071 322.899 506.117 323.041 506.172 323.179C506.172 323.179 511.951 313.574 516.672 313.441C521.392 313.307 518.27 307.602 513.097 301.824Z" fill="black"/>
<path d="M517.969 306.191C517.969 307.397 517.836 308.374 517.669 308.374C517.502 308.374 517.363 307.397 517.363 306.191C517.363 304.985 517.535 305.552 517.702 305.552C517.869 305.552 517.969 304.985 517.969 306.191Z" fill="#FFD037"/>
<path d="M519.64 307.63C518.58 308.207 517.659 308.555 517.578 308.407C517.497 308.259 518.294 307.673 519.353 307.096C520.413 306.519 519.993 306.939 520.074 307.096C520.155 307.254 520.699 307.053 519.64 307.63Z" fill="#FFD037"/>
<path d="M499.246 301.824C499.246 301.824 496.626 305.252 500.458 310.404C504.291 315.557 507.445 319.938 506.185 323.165C506.185 323.165 500.401 313.56 495.685 313.427C490.97 313.293 494.067 307.602 499.246 301.824Z" fill="#2193B0"/>
<path opacity="0.1" d="M499.246 301.824C499.018 302.155 498.838 302.516 498.712 302.897C494.121 308.288 491.672 313.317 496.087 313.441C500.196 313.56 505.155 320.901 506.31 322.755C506.272 322.898 506.224 323.036 506.172 323.179C506.172 323.179 500.387 313.574 495.672 313.441C490.956 313.307 494.068 307.602 499.246 301.824Z" fill="black"/>
<path d="M494.373 306.191C494.373 307.397 494.507 308.374 494.674 308.374C494.841 308.374 494.979 307.397 494.979 306.191C494.979 304.985 494.807 305.552 494.64 305.552C494.473 305.552 494.373 304.985 494.373 306.191Z" fill="#FFD037"/>
<path d="M492.697 307.63C493.757 308.207 494.683 308.555 494.764 308.407C494.845 308.259 494.048 307.673 492.989 307.096C491.929 306.519 492.349 306.939 492.268 307.096C492.187 307.254 491.638 307.053 492.697 307.63Z" fill="#FFD037"/>
<path d="M495.208 322.732C495.208 322.732 502.539 322.503 504.753 320.935C506.968 319.366 516.031 317.483 516.58 319.981C517.129 322.479 527.595 332.513 519.32 332.58C511.044 332.647 500.09 331.293 497.885 329.953C495.68 328.614 495.208 322.732 495.208 322.732Z" fill="#A8A8A8"/>
<path opacity="0.2" d="M519.463 331.727C511.187 331.793 500.234 330.44 498.029 329.1C496.349 328.075 495.681 324.41 495.456 322.722H495.213C495.213 322.722 495.69 328.623 497.881 329.968C500.071 331.312 511.039 332.661 519.315 332.594C521.701 332.594 522.532 331.727 522.484 330.468C522.15 331.24 521.238 331.712 519.463 331.727Z" fill="black"/>
<path d="M234.382 325.41C235.258 324.696 235.896 323.734 236.214 322.65C236.448 321.559 235.98 320.267 234.935 319.843C233.761 319.395 232.506 320.21 231.551 321.03C230.597 321.85 229.513 322.789 228.268 322.612C228.908 322.033 229.388 321.297 229.659 320.478C229.93 319.658 229.983 318.782 229.814 317.936C229.76 317.585 229.611 317.256 229.385 316.983C228.731 316.287 227.552 316.582 226.769 317.13C224.287 318.875 223.595 322.245 223.581 325.272C223.333 324.181 223.543 323.041 223.538 321.935C223.533 320.829 223.223 319.552 222.278 318.966C221.692 318.653 221.034 318.498 220.369 318.518C219.252 318.475 218.011 318.589 217.248 319.399C216.293 320.415 216.546 322.112 217.372 323.213C218.197 324.314 219.448 325.029 220.598 325.796C221.524 326.346 222.313 327.097 222.908 327.994C222.976 328.121 223.033 328.253 223.08 328.39H230.072C231.636 327.595 233.086 326.593 234.382 325.41Z" fill="#2193B0"/>
<path d="M178.813 332.933C178.813 332.933 172.102 310.19 180.068 293.454C183.459 286.454 184.484 278.544 182.989 270.912C182.251 267.298 181.182 263.758 179.796 260.339" stroke="#535461" stroke-width="2" stroke-miterlimit="10"/>
<path d="M184.736 249.757C184.736 252.545 179.686 260.63 179.686 260.63C179.686 260.63 174.632 252.526 174.632 249.757C174.672 248.445 175.222 247.201 176.165 246.288C177.108 245.375 178.37 244.864 179.684 244.864C180.997 244.864 182.259 245.375 183.202 246.288C184.145 247.201 184.695 248.445 184.736 249.757Z" fill="#2193B0"/>
<path d="M193.088 265.196C191.575 267.537 182.932 271.579 182.932 271.579C182.932 271.579 183.089 262.045 184.607 259.71C185.353 258.626 186.492 257.876 187.783 257.619C189.074 257.362 190.415 257.618 191.52 258.333C192.624 259.047 193.406 260.165 193.699 261.446C193.992 262.728 193.773 264.074 193.088 265.196Z" fill="#2193B0"/>
<path d="M192.725 291.58C190.234 292.834 180.731 291.967 180.731 291.967C180.731 291.967 185.685 283.82 188.177 282.566C188.771 282.252 189.422 282.059 190.092 282C190.761 281.94 191.436 282.014 192.077 282.218C192.717 282.422 193.311 282.751 193.822 283.187C194.334 283.623 194.753 284.156 195.056 284.756C195.358 285.355 195.538 286.009 195.584 286.679C195.631 287.349 195.543 288.021 195.326 288.657C195.109 289.293 194.767 289.879 194.321 290.381C193.874 290.882 193.332 291.29 192.725 291.58Z" fill="#2193B0"/>
<path d="M187.948 311.482C185.704 313.141 176.192 313.865 176.192 313.865C176.192 313.865 179.696 305.004 181.92 303.345C182.449 302.912 183.061 302.59 183.719 302.4C184.377 302.21 185.066 302.155 185.746 302.24C186.425 302.324 187.08 302.545 187.672 302.89C188.263 303.234 188.778 303.695 189.185 304.245C189.593 304.794 189.884 305.421 190.042 306.086C190.2 306.752 190.22 307.442 190.103 308.116C189.985 308.79 189.732 309.432 189.358 310.005C188.984 310.578 188.498 311.069 187.928 311.449L187.948 311.482Z" fill="#2193B0"/>
<path d="M172.326 272.118C174.326 274.058 183.652 276.074 183.652 276.074C183.652 276.074 181.366 266.822 179.356 264.877C178.885 264.395 178.321 264.013 177.699 263.752C177.077 263.492 176.409 263.358 175.734 263.359C175.06 263.361 174.392 263.497 173.771 263.76C173.15 264.023 172.588 264.407 172.118 264.891C171.648 265.374 171.279 265.947 171.034 266.574C170.789 267.202 170.673 267.873 170.691 268.546C170.71 269.22 170.863 269.883 171.142 270.496C171.422 271.11 171.821 271.661 172.317 272.118H172.326Z" fill="#2193B0"/>
<path d="M167.034 295.461C169.525 296.714 179.027 295.847 179.027 295.847C179.027 295.847 174.073 287.705 171.582 286.447C170.389 285.876 169.019 285.795 167.767 286.222C166.515 286.648 165.481 287.548 164.886 288.728C164.29 289.908 164.182 291.274 164.583 292.532C164.985 293.791 165.865 294.842 167.034 295.461Z" fill="#2193B0"/>
<path d="M165.01 318.856C167.253 320.51 176.76 321.239 176.76 321.239C176.76 321.239 173.262 312.378 171.033 310.719C169.953 310 168.639 309.723 167.36 309.946C166.082 310.168 164.939 310.873 164.166 311.914C163.394 312.956 163.053 314.254 163.212 315.54C163.372 316.826 164.021 318.001 165.024 318.823L165.01 318.856Z" fill="#2193B0"/>
<path d="M184.736 249.757C184.736 252.545 179.686 260.63 179.686 260.63C179.686 260.63 174.632 252.526 174.632 249.757C174.672 248.445 175.222 247.201 176.165 246.288C177.108 245.375 178.37 244.864 179.684 244.864C180.997 244.864 182.259 245.375 183.202 246.288C184.145 247.201 184.695 248.445 184.736 249.757Z" fill="#2193B0"/>
<path d="M193.088 265.196C191.575 267.537 182.932 271.579 182.932 271.579C182.932 271.579 183.089 262.045 184.607 259.71C185.353 258.626 186.492 257.876 187.783 257.619C189.074 257.362 190.415 257.618 191.52 258.333C192.624 259.047 193.406 260.165 193.699 261.446C193.992 262.728 193.773 264.074 193.088 265.196Z" fill="#2193B0"/>
<path d="M192.725 291.58C190.234 292.834 180.731 291.967 180.731 291.967C180.731 291.967 185.685 283.82 188.177 282.566C188.771 282.252 189.422 282.059 190.092 282C190.761 281.94 191.436 282.014 192.077 282.218C192.717 282.422 193.311 282.751 193.822 283.187C194.334 283.623 194.753 284.156 195.056 284.756C195.358 285.355 195.538 286.009 195.584 286.679C195.631 287.349 195.543 288.021 195.326 288.657C195.109 289.293 194.767 289.879 194.321 290.381C193.874 290.882 193.332 291.29 192.725 291.58Z" fill="#2193B0"/>
<path d="M187.948 311.482C185.704 313.141 176.192 313.865 176.192 313.865C176.192 313.865 179.696 305.004 181.92 303.345C182.449 302.912 183.061 302.59 183.719 302.4C184.377 302.21 185.066 302.155 185.746 302.24C186.425 302.324 187.08 302.545 187.672 302.89C188.263 303.234 188.778 303.695 189.185 304.245C189.593 304.794 189.884 305.421 190.042 306.086C190.2 306.752 190.22 307.442 190.103 308.116C189.985 308.79 189.732 309.432 189.358 310.005C188.984 310.578 188.498 311.069 187.928 311.449L187.948 311.482Z" fill="#2193B0"/>
<path d="M172.326 272.118C174.326 274.058 183.652 276.074 183.652 276.074C183.652 276.074 181.366 266.822 179.356 264.877C178.885 264.395 178.321 264.013 177.699 263.752C177.077 263.492 176.409 263.358 175.734 263.359C175.06 263.361 174.392 263.497 173.771 263.76C173.15 264.023 172.588 264.407 172.118 264.891C171.648 265.374 171.279 265.947 171.034 266.574C170.789 267.202 170.673 267.873 170.691 268.546C170.71 269.22 170.863 269.883 171.142 270.496C171.422 271.11 171.821 271.661 172.317 272.118H172.326Z" fill="#2193B0"/>
<path d="M167.034 295.461C169.525 296.714 179.027 295.847 179.027 295.847C179.027 295.847 174.073 287.705 171.582 286.447C170.389 285.876 169.019 285.795 167.767 286.222C166.515 286.648 165.481 287.548 164.886 288.728C164.29 289.908 164.182 291.274 164.583 292.532C164.985 293.791 165.865 294.842 167.034 295.461Z" fill="#2193B0"/>
<path d="M165.01 318.856C167.253 320.51 176.76 321.239 176.76 321.239C176.76 321.239 173.262 312.378 171.033 310.719C169.953 310 168.639 309.723 167.36 309.946C166.082 310.168 164.939 310.873 164.166 311.914C163.394 312.956 163.053 314.254 163.212 315.54C163.372 316.826 164.021 318.001 165.024 318.823L165.01 318.856Z" fill="#2193B0"/>
<path d="M162.943 331.502C162.943 331.502 171.114 329.882 173.291 327.722C175.467 325.563 185.27 321.783 186.358 324.481C187.446 327.179 201.058 336.36 191.799 337.981C182.54 339.601 170.021 340.14 167.301 339.058C164.58 337.976 162.943 331.502 162.943 331.502Z" fill="#A8A8A8"/>
<path opacity="0.2" d="M191.813 336.97C182.559 338.591 170.036 339.129 167.315 338.052C165.244 337.227 163.802 333.285 163.234 331.44L162.943 331.502C162.943 331.502 164.58 337.98 167.301 339.058C170.021 340.135 182.545 339.596 191.799 337.98C194.472 337.504 195.235 336.412 194.949 335.025C194.734 335.926 193.804 336.622 191.813 336.97Z" fill="black"/>
<path d="M451.558 124.881C454.121 122.021 453.119 117.564 453.119 117.564C453.119 117.564 441.025 86.7805 439.683 86.442C438.342 86.1036 434.978 78.3385 434.978 78.3385C434.978 78.3385 402.729 47.7215 401.569 47.7215C400.409 47.7215 388.635 39.2652 387.127 39.0984C385.618 38.9315 383.261 38.083 380.741 36.715C378.221 35.3469 352.687 36.8866 351.68 38.0687C350.673 39.2509 345.953 40.0994 345.953 40.0994C345.953 40.0994 336.379 40.6047 335.033 42.2969C333.687 43.9891 323.784 44.8852 323.784 44.8852C323.784 44.8852 318.911 46.6966 325.526 51.5063C323.407 51.84 320.93 52.0974 318.414 52.2785C317.784 52.3214 317.145 52.3643 316.505 52.3977H316.128C315.706 51.1222 314.882 50.017 313.78 49.2468C313.059 48.856 312.315 48.5106 311.551 48.2125C310.368 47.5843 309.261 46.8247 308.249 45.9482C303.352 42.0592 298.127 38.6014 292.632 35.6139C291.784 35.0835 290.838 34.7285 289.85 34.5699C287.802 34.3745 285.974 35.8093 283.97 36.2907C280.448 37.1345 276.897 34.9894 273.274 34.956C268.75 34.9131 264.631 38.431 263.252 42.7688C262.741 44.3752 262.512 46.1627 261.409 47.4355C259.978 49.0991 257.558 49.3422 255.596 50.3289C254.175 51.0693 252.984 52.1846 252.153 53.5536C251.321 54.9226 250.881 56.4929 250.881 58.094V58.1321C250.881 58.3848 250.881 58.6374 250.924 58.8901C251.148 60.9302 252.093 62.8131 252.785 64.7484C253.496 66.7314 253.946 68.7986 254.122 70.8976C254.124 70.9198 254.124 70.9421 254.122 70.9643C254.15 71.3123 254.174 71.6603 254.188 72.013C254.188 72.0845 254.188 72.1608 254.188 72.237C254.188 72.5707 254.188 72.9092 254.188 73.2476C254.188 75.0685 254.126 76.9037 254.131 78.7246V78.82V79.6446C254.131 79.7114 254.131 79.7781 254.131 79.8448C254.131 80.0879 254.131 80.3215 254.16 80.5789V80.8363C254.16 81.0604 254.193 81.2892 254.217 81.5132C254.217 81.6085 254.217 81.7086 254.241 81.804C254.241 82.0232 254.293 82.2377 254.322 82.4523L254.365 82.7573C254.398 82.9718 254.437 83.1863 254.475 83.4008L254.532 83.6964C254.58 83.9252 254.637 84.1731 254.694 84.3828C254.718 84.4638 254.732 84.5401 254.751 84.6211C254.837 84.9389 254.933 85.244 255.038 85.5364C255.752 87.5379 256.932 89.3415 258.481 90.7991C260.029 92.2567 261.901 93.3267 263.944 93.9211C264.713 94.1329 265.509 94.2325 266.306 94.2167C267.738 94.1833 269.108 93.74 269.957 92.7628C270.167 93.0011 270.372 93.2395 270.592 93.4778C273.705 96.859 277.588 99.4406 281.913 101.004C286.237 102.567 290.875 103.066 295.434 102.458C299.992 101.849 304.336 100.153 308.099 97.5106C311.861 94.8686 314.929 91.3596 317.045 87.281C317.546 87.1714 318.042 87.0713 318.543 86.9759C319.412 86.8139 320.285 86.6613 321.163 86.4993L322.008 86.3658L322.342 86.3086C326.638 85.6317 330.809 85.1789 333.797 84.8785L321.989 86.3419C321.989 86.3419 319.125 100.075 318.3 101.596C317.474 103.116 321.163 105.652 321.163 105.652C321.163 105.652 324.356 109.542 324.356 110.729C324.356 111.916 328.05 115.295 329.057 117.154C329.185 117.39 329.346 117.607 329.535 117.798C328.789 118.086 328.101 118.504 327.502 119.033C325.168 121.24 325.946 125.11 324.877 128.142C324.208 130.049 322.81 131.593 321.464 133.095C320.981 133.585 320.575 134.146 320.261 134.758C320.086 135.164 319.978 135.595 319.942 136.036C319.918 136.28 319.908 136.525 319.913 136.77V136.856C319.913 137.046 319.913 137.232 319.951 137.418C319.951 137.499 319.951 137.58 319.951 137.661C320.185 139.654 320.863 141.579 321.068 143.572C321.273 145.564 321.025 147.571 321.435 149.511C321.578 150.188 321.799 150.845 322.094 151.47L315.26 159.097C315.26 159.097 315.217 159.474 315.202 160.094C309.504 164.817 300.693 173.731 303.839 181.592C304.182 182.453 304.5 183.278 304.793 184.066C302.478 185.539 301.715 187.288 305.184 189.033C305.733 189.309 306.263 189.548 306.783 189.762C308.564 194.982 309.26 196.436 312.243 192.589C312.563 192.169 312.935 191.635 313.341 191.059C317.541 190.973 319.97 189.033 319.97 189.033C319.97 189.033 331.725 188.356 334.766 190.22C336.288 191.173 339.868 191.364 343.037 191.34C342.994 194.75 343.153 198.159 343.514 201.55C343.514 201.55 343.008 215.927 344.354 218.973C345.7 222.019 346.444 227.262 346.444 227.262C346.444 227.262 344.187 232.334 345.528 235.042C346.869 237.749 344.354 241.639 344.354 241.639V251.616L345.308 251.549C345.237 252.221 345.146 252.927 345.027 253.599C344.75 255.158 344.335 256.554 343.695 257.007C342.015 258.213 341.848 264.634 341.848 264.634C341.848 264.634 339.161 272.418 339.662 273.772C340.163 275.126 336.474 277.828 337.314 279.859C338.154 281.89 339.872 294.741 341.366 298.449C342.86 302.158 338.321 301.157 338.321 301.157L339.662 310.795C339.662 310.795 341.008 320.605 340.001 321.282C338.994 321.959 333.2 326.864 337.185 329.739C337.496 329.963 337.811 330.168 338.14 330.363C338.158 330.808 338.146 331.254 338.106 331.698C338.03 332.456 337.839 333.061 337.414 333.128C336.231 333.299 333.878 334.482 333.381 333.976C332.885 333.471 330.041 335.254 327.177 335.835L326.781 335.897L323.063 334.944C317.684 332.897 311.779 332.679 306.263 334.324C306.263 334.324 303.567 334.744 302.259 336.755C301.595 337.785 301.304 339.234 301.896 341.255C303.691 347.233 315.923 349.292 315.923 349.292C315.923 349.292 320.161 350.164 325.254 351.318C325.087 351.318 324.915 351.318 324.743 351.318C323.337 351.308 321.979 351.825 320.937 352.766C319.894 353.708 319.243 355.006 319.111 356.403C318.98 357.801 319.378 359.197 320.226 360.316C321.075 361.435 322.313 362.195 323.696 362.448C325.078 362.7 326.505 362.425 327.695 361.677C328.885 360.93 329.751 359.764 330.122 358.41C330.493 357.056 330.343 355.612 329.7 354.364C329.058 353.115 327.97 352.153 326.652 351.666C332.379 352.981 338.722 354.583 341.299 355.713C343.218 356.434 345.184 357.024 347.184 357.477C347.283 358.66 347.757 359.78 348.537 360.676C349.318 361.571 350.364 362.194 351.523 362.455C352.683 362.715 353.895 362.6 354.984 362.124C356.074 361.649 356.983 360.839 357.579 359.812C365.373 361.438 372.88 362.815 372.88 362.815L385.418 363.02H385.504C384.026 363.03 382.613 363.625 381.573 364.674C380.534 365.723 379.953 367.141 379.958 368.616C379.963 370.092 380.554 371.506 381.6 372.548C382.647 373.589 384.064 374.174 385.542 374.174C387.02 374.174 388.437 373.589 389.484 372.548C390.531 371.506 391.121 370.092 391.126 368.616C391.131 367.141 390.55 365.723 389.511 364.674C388.471 363.625 387.058 363.03 385.58 363.02L404.561 363.33C404.333 364.102 404.275 364.913 404.389 365.709C404.504 366.505 404.789 367.268 405.225 367.944C405.661 368.62 406.238 369.194 406.916 369.628C407.595 370.061 408.359 370.343 409.156 370.455C409.954 370.567 410.766 370.506 411.538 370.276C412.309 370.046 413.022 369.652 413.628 369.122C414.234 368.592 414.718 367.938 415.048 367.204C415.377 366.47 415.545 365.674 415.538 364.87C415.538 364.41 415.48 363.952 415.367 363.507L432.109 363.778L435.45 360.108C435.637 359.751 435.749 359.36 435.779 358.959C435.88 357.753 435.254 355.923 430.978 355.146C430.663 355.088 421.939 355.227 414.231 355.355V352.333C414.231 352.333 414.016 350.67 413.882 348.71C413.844 348.134 413.811 347.533 413.796 346.942C414.232 347.24 414.717 347.461 415.228 347.595C418.421 348.105 422.788 338.8 422.788 338.8C422.788 338.8 422.788 333.557 423.795 329.329C424.802 325.101 426.659 310.891 426.659 310.891L430.696 293.811C430.696 293.811 432.367 258.966 431.527 257.612C430.687 256.259 432.539 253.89 432.539 253.89C432.539 253.89 433.88 246.449 431.866 243.913C429.852 241.377 433.04 238.836 433.04 238.836C433.04 238.836 433.88 230.041 431.527 226.662C429.174 223.282 432.629 220.913 432.629 220.913L433.469 207.213C436.996 203.662 440.185 182.521 440.356 177.955C440.4 175.384 440.972 172.85 442.036 170.509C442.036 170.509 444.385 166.958 444.723 164.589C445.062 162.22 447.587 157.319 447.587 157.319L451.954 141.079C453.715 134.529 453.266 129.686 452.097 126.235C451.925 125.749 451.744 125.306 451.558 124.881ZM372.661 125.835C375.348 127.527 374.508 128.032 375.348 129.048C376.188 130.063 375.515 129.891 374.842 131.583C374.169 133.276 374.675 132.77 375.009 134.629C375.343 136.488 375.181 136.488 375.181 136.488L376.021 136.608L374.851 144.459C372.942 145.703 372.069 148.086 371.673 150.546C370.546 149.078 369.41 147.552 368.394 146.132C368.742 145.355 368.675 144.43 368.685 143.558C368.723 140.698 369.792 137.966 370.284 135.149C370.786 132.283 370.693 129.345 370.012 126.516C369.767 125.452 369.39 124.422 368.89 123.451C369.978 124.176 371.358 125.034 372.661 125.854V125.835ZM375.682 291.59C375.682 291.59 377.806 290.16 379.867 288.859C380.559 293.878 381.213 299.098 381.676 303.817C380.936 302.177 380.421 301.062 380.421 301.062C379.663 300.152 379.21 299.029 379.123 297.849C379.042 296.009 375.682 291.609 375.682 291.609V291.59ZM363.087 117.736C363.564 117.803 364.242 118.408 364.881 119.133C364.289 118.656 363.693 118.179 363.082 117.731L363.087 117.736ZM332.346 180.314C330.408 180.924 323.841 180.834 319.937 180.605C321.397 178.112 322.848 175.576 324.137 173.302C324.897 173.499 325.671 173.638 326.452 173.717L339.238 162.501C344.047 164.186 349.293 164.152 354.081 162.405L354.429 162.949C354.577 163.187 354.734 163.426 354.906 163.693L354.586 163.173C354.586 163.173 349.652 166.109 350.153 167.463C350.654 168.817 349.484 172.196 347.637 175.819C347.16 176.725 346.745 177.621 346.344 178.522C342.163 178.913 334.284 179.704 332.346 180.314ZM356.605 336.588L356.534 335.249C357.345 335.073 357.88 334.911 357.88 334.911C357.712 332.923 357.431 330.946 357.04 328.99C356.534 326.96 356.796 327.636 358.763 326.13C360.729 324.624 358.763 307.54 358.763 307.54C358.763 307.54 359.717 306.353 361.23 309.399C362.743 312.445 364.261 314.304 364.767 314.471C365.273 314.637 362.748 318.027 364.767 321.239C366.02 323.318 366.873 325.612 367.282 328.003C367.282 328.003 365.941 333.376 367.955 335.764C368.227 336.042 368.551 336.264 368.909 336.417C368.909 336.86 368.909 337.332 368.909 337.775C368.909 338.667 368.909 339.429 368.866 339.592C368.847 339.706 368.798 339.813 368.725 339.903C368.651 339.993 368.556 340.062 368.448 340.104C368.34 340.147 368.223 340.16 368.108 340.144C367.993 340.127 367.884 340.082 367.793 340.011C367.272 339.673 363.974 340.43 364.199 342.552C363.419 343.472 362.535 344.299 361.564 345.016L356.987 343.834L356.605 336.588Z" fill="url(#paint0_linear_679_45002)"/>
<path d="M315.383 161.357C315.383 161.357 313.784 174.442 326.465 175.781L328.374 166.724L324.38 161.357L318.657 159.422L315.383 161.357Z" fill="#2193B0"/>
<path opacity="0.1" d="M318.657 159.422L315.383 161.352C315.383 161.352 313.784 174.437 326.465 175.776" fill="black"/>
<path d="M338.392 87.3717C338.392 87.3717 329.835 87.8961 321.254 89.3166C320.375 89.4659 319.502 89.6248 318.633 89.7933C318.127 89.8886 317.631 89.9887 317.135 90.0983C312.639 91.0231 308.544 92.2243 306.158 93.7592C303.294 95.5944 302.339 90.6513 302.249 83.7824C302.211 81.3656 302.292 78.7153 302.421 76.0363C302.588 72.9379 302.831 69.8014 303.089 66.9795C303.657 60.7254 304.311 55.8633 304.311 55.8633C304.311 55.8633 307.308 55.8633 311.312 55.7251L312.601 55.6774C313.856 55.6297 315.187 55.563 316.529 55.482C317.163 55.4486 317.803 55.4105 318.438 55.3628C320.977 55.1817 323.482 54.9243 325.597 54.5906C327.849 54.2283 329.677 53.7707 330.67 53.1606C335.204 50.4626 338.392 87.3717 338.392 87.3717Z" fill="#F8BDC5"/>
<path d="M376.521 135.688L374.851 146.761C374.851 146.761 371.209 151.289 371.687 153.806C372.164 156.323 376.364 267.551 376.364 267.551C376.364 267.551 384.597 314.523 381.738 320.563C378.879 326.602 381.571 340.697 381.571 340.697L398.705 338.014L404.432 132.666L376.521 135.688Z" fill="#474463"/>
<path opacity="0.1" d="M376.521 135.688L374.851 146.761C374.851 146.761 371.209 151.289 371.687 153.806C372.164 156.323 376.364 267.551 376.364 267.551C376.364 267.551 384.597 314.523 381.738 320.563C378.879 326.602 381.571 340.697 381.571 340.697L398.705 338.014L404.432 132.666L376.521 135.688Z" fill="black"/>
<path d="M414.316 343.548C413.772 344.449 413.814 347.099 413.967 349.354C414.101 351.294 414.316 352.943 414.316 352.943V364.35C414.316 364.35 396.008 357.977 385.928 351.265C381.771 348.496 380.587 345.922 380.816 343.862C381.15 340.931 384.348 339.019 385.928 339.019C387.436 339.019 392.199 336.393 396.103 334.072C399.172 332.255 401.72 330.63 401.72 330.63C401.72 330.63 415.323 341.87 414.316 343.548Z" fill="#575988"/>
<path opacity="0.1" d="M414.316 343.548C413.772 344.449 413.815 347.099 413.968 349.354C409.897 347.447 397.292 335.235 396.104 334.072C399.172 332.255 401.721 330.63 401.721 330.63C401.721 330.63 415.323 341.87 414.316 343.548Z" fill="black"/>
<path d="M451.944 143.405L447.577 159.512C447.577 159.512 445.057 164.374 444.714 166.724C444.37 169.074 442.027 172.597 442.027 172.597C440.966 174.915 440.394 177.427 440.347 179.976C440.18 184.509 437.006 205.478 433.46 209.001L432.62 222.591C432.62 222.591 429.279 224.936 431.613 228.311C433.947 231.686 433.126 240.39 433.126 240.39C433.126 240.39 429.933 242.907 431.952 245.424C433.97 247.941 432.62 255.324 432.62 255.324C432.62 255.324 430.773 257.67 431.613 259.014C432.453 260.358 430.782 294.917 430.782 294.917L426.745 311.858C426.745 311.858 424.893 325.954 423.881 330.148C422.869 334.343 422.874 339.539 422.874 339.539C422.874 339.539 418.507 348.768 415.314 348.267C412.121 347.767 396.672 332.661 396.672 332.661L398.853 281.656C398.853 281.656 400.7 260.015 399.526 255.82C398.352 251.625 397.512 230.656 397.512 230.656L395.159 197.608L371.668 160.699C371.668 160.699 369.964 149.959 374.832 146.775L375.715 140.974L376.512 135.702L404.399 132.68L447.062 121.611C447.062 121.611 450.35 123.637 452.073 128.695C453.252 132.103 453.705 136.908 451.944 143.405Z" fill="#474463"/>
<path d="M377.714 160.375C377.714 160.375 357.893 184.686 358.733 177.893C359.258 173.627 356.547 168.417 354.438 165.123C353.192 163.164 352.161 161.881 352.161 161.881C352.161 161.881 364.255 139.74 364.928 142.757C365.143 143.71 366.541 145.898 368.341 148.396C372.135 153.63 377.714 160.375 377.714 160.375Z" fill="#FFC1C8"/>
<path opacity="0.3" d="M414.316 361.976V364.36C414.316 364.36 396.008 357.986 385.928 351.275C381.771 348.505 380.587 345.931 380.816 343.872C386.381 346.684 396.733 352.047 399.869 354.464C402.532 356.514 409.414 359.76 414.316 361.976Z" fill="white"/>
<path d="M410.007 371.029C413.098 371.029 415.605 368.525 415.605 365.437C415.605 362.349 413.098 359.846 410.007 359.846C406.915 359.846 404.408 362.349 404.408 365.437C404.408 368.525 406.915 371.029 410.007 371.029Z" fill="#474463"/>
<path d="M352.82 363.178C355.912 363.178 358.418 360.674 358.418 357.586C358.418 354.498 355.912 351.995 352.82 351.995C349.728 351.995 347.222 354.498 347.222 357.586C347.222 360.674 349.728 363.178 352.82 363.178Z" fill="#474463"/>
<path d="M435.865 359.574C435.834 359.972 435.722 360.36 435.536 360.713L432.195 364.35L385.499 363.602L372.942 363.397C372.942 363.397 346.511 358.592 341.361 356.352C336.212 354.111 315.966 350.012 315.966 350.012C315.966 350.012 303.738 347.962 301.944 342.037C301.338 340.03 301.643 338.595 302.306 337.575C303.609 335.578 306.311 335.158 306.311 335.158C311.829 333.531 317.728 333.748 323.111 335.778L401.383 355.889L402.595 356.199C402.595 356.199 430.496 355.679 431.059 355.78C435.34 356.561 435.965 358.377 435.865 359.574Z" fill="#2193B0"/>
<path opacity="0.3" d="M435.865 359.574C431.169 358.964 422.979 358.063 420.869 358.93C420.869 358.93 405.974 357.09 385.48 363.602L372.942 363.397C372.942 363.397 346.511 358.592 341.361 356.352C336.212 354.111 315.966 350.012 315.966 350.012C315.966 350.012 303.738 347.962 301.944 342.037C301.338 340.03 301.643 338.595 302.306 337.575C303.142 340.006 304.75 343.529 307.318 344.516C311.351 346.065 327.926 349.22 327.926 349.22L360.734 357.243C360.734 357.243 379.676 361.347 387.05 358.673C390.071 357.586 395.741 356.618 401.368 355.861L402.581 356.17C402.581 356.17 430.482 355.651 431.045 355.751C435.34 356.561 435.965 358.377 435.865 359.574Z" fill="white"/>
<path d="M390.558 353.534C390.518 354.237 390.43 354.936 390.295 355.627C390.295 355.627 371.739 356.29 362.079 354.86C359.411 354.464 357.903 353.611 357.154 352.591C356.819 352.109 356.612 351.55 356.551 350.967C356.49 350.384 356.578 349.794 356.805 349.254C356.912 348.943 357.048 348.643 357.211 348.358C357.932 347.099 359.039 346.208 359.645 346.327C361.325 346.665 364.208 343.224 364.208 343.224C363.979 341.122 367.286 340.364 367.802 340.707C367.894 340.778 368.002 340.823 368.117 340.84C368.232 340.856 368.349 340.843 368.457 340.8C368.565 340.758 368.661 340.689 368.734 340.599C368.807 340.509 368.856 340.402 368.875 340.288C368.909 340.13 368.918 339.372 368.918 338.486C368.918 337.008 368.875 335.149 368.875 335.149L387.527 337.413L388.267 340.974C388.945 344.149 389.89 348.51 390.295 350.002C390.577 351.157 390.666 352.351 390.558 353.534Z" fill="#474463"/>
<path opacity="0.1" d="M390.557 353.535C390.518 354.237 390.43 354.937 390.295 355.627C390.295 355.627 371.739 356.29 362.079 354.86C359.411 354.464 357.903 353.611 357.153 352.591C359.63 352.443 362.852 352.362 364.847 352.848C367.691 353.554 384.706 353.554 390.557 353.535Z" fill="black"/>
<path d="M357.192 348.348C357.212 348.521 357.185 348.695 357.114 348.853C357.042 349.011 356.929 349.146 356.786 349.245C354.438 351.056 343.17 349.087 343.17 349.087C343.17 349.087 320.147 347.657 316.705 345.312C316.395 345.108 316.135 344.836 315.947 344.516C314.515 341.932 319.698 337.595 320.147 337.595C320.595 337.595 326.785 336.751 327.201 336.67C330.064 336.093 332.928 334.32 333.405 334.825C333.882 335.33 336.269 334.153 337.433 333.986C337.858 333.924 338.054 333.324 338.125 332.556C338.192 331.518 338.157 330.475 338.02 329.443L356.409 334.387L356.572 337.313L357.101 347.057L357.168 348.253C357.18 348.284 357.188 348.316 357.192 348.348Z" fill="#474463"/>
<path opacity="0.1" d="M343.188 349.087C343.188 349.087 320.165 347.657 316.724 345.312C316.413 345.108 316.153 344.835 315.965 344.516C320.628 344.897 328.402 345.54 329.806 345.898C331.824 346.375 343.169 347.071 343.169 347.071H357.12L357.187 348.267C357.793 351.642 343.188 349.087 343.188 349.087Z" fill="black"/>
<path d="M324.786 363.178C327.878 363.178 330.384 360.674 330.384 357.586C330.384 354.498 327.878 351.995 324.786 351.995C321.694 351.995 319.188 354.498 319.188 357.586C319.188 360.674 321.694 363.178 324.786 363.178Z" fill="#474463"/>
<path d="M385.589 374.785C388.68 374.785 391.187 372.282 391.187 369.193C391.187 366.105 388.68 363.602 385.589 363.602C382.497 363.602 379.99 366.105 379.99 369.193C379.99 372.282 382.497 374.785 385.589 374.785Z" fill="#474463"/>
<path d="M328.652 167.396C328.652 167.396 327.592 169.303 325.998 172.135C322.18 178.865 315.312 190.797 312.358 194.572C308.158 199.939 308.497 194.91 303.958 183.67C300.588 175.309 310.959 165.742 316.505 161.395C318.414 159.884 319.751 159.012 319.751 159.012L328.652 167.396Z" fill="#F8BDC5"/>
<path d="M348.973 180.314C348.973 180.314 335.032 181.487 332.345 182.326C329.658 183.165 318.07 182.66 317.073 182.326C316.075 181.992 296.24 186.521 305.313 191.049C314.386 195.578 320.108 191.049 320.108 191.049C320.108 191.049 331.868 190.377 334.904 192.227C337.939 194.076 349.012 193.066 349.012 193.066L348.973 180.314Z" fill="#FFC1C8"/>
<path opacity="0.1" d="M320.012 77.6427C321.73 82.033 320.656 85.8559 318.633 89.779C313.564 90.7323 308.796 92.0432 306.143 93.7449C298.583 98.6118 304.296 55.8299 304.296 55.8299C304.296 55.8299 307.952 55.8299 312.586 55.644C311.183 62.0411 316.499 68.6812 320.012 77.6427Z" fill="black"/>
<path d="M320.442 76.6894C320.433 83.716 317.835 90.4934 313.142 95.7287C308.45 100.964 301.992 104.291 295.001 105.075C288.01 105.859 280.974 104.045 275.236 99.9792C269.498 95.9133 265.46 89.8802 263.891 83.0305C262.322 76.1808 263.333 68.9941 266.73 62.8412C270.128 56.6882 275.674 51.9997 282.312 49.67C288.949 47.3403 296.213 47.5325 302.717 50.2098C309.222 52.8871 314.512 57.8622 317.579 64.1861C319.469 68.0836 320.448 72.3589 320.442 76.6894Z" fill="#F8BDC5"/>
<path opacity="0.1" d="M452.082 128.681C451.175 129.998 449.817 130.939 448.264 131.326C441.711 133.171 395.516 144.244 392.495 143.572C389.827 142.981 378.378 141.336 375.738 140.96L376.535 135.688L404.422 132.666L447.085 121.597C447.085 121.597 450.359 123.623 452.082 128.681Z" fill="black"/>
<path opacity="0.1" d="M338.392 87.3717C332.932 87.6986 327.492 88.3032 322.093 89.1831C322.17 88.9377 322.16 88.6735 322.064 88.4347L333.233 87.0571C333.233 87.0571 331.6 60.8398 325.596 54.5572C327.849 54.1949 329.677 53.7373 330.67 53.1271C335.204 50.4625 338.392 87.3717 338.392 87.3717Z" fill="black"/>
<path d="M323.783 47.9982C323.783 47.9982 333.695 47.1069 335.037 45.429C336.378 43.751 345.956 43.2505 345.956 43.2505C345.956 43.2505 350.658 42.4116 351.684 41.2342C352.71 40.0568 378.22 38.5505 380.74 39.8947C383.26 41.239 385.613 42.0731 387.126 42.2447C388.639 42.4163 400.394 50.7963 401.568 50.7963C402.742 50.7963 434.977 81.1655 434.977 81.1655C434.977 81.1655 438.317 88.8829 439.682 89.2166C441.047 89.5503 453.122 120.086 453.122 120.086C453.122 120.086 454.802 127.465 448.254 129.315C441.706 131.164 395.506 142.233 392.485 141.561C389.464 140.889 375.184 138.877 375.184 138.877C375.184 138.877 375.351 138.877 375.017 137.032C374.683 135.187 374.177 135.688 374.845 134.01C375.514 132.332 376.191 132.499 375.351 131.493C374.511 130.487 375.351 129.982 372.664 128.304C369.977 126.626 366.937 124.782 366.784 124.281C366.632 123.781 364.264 120.42 363.09 120.253C361.916 120.086 328.99 110.858 328.99 110.858L321.263 108.341C321.263 108.341 317.569 105.824 318.399 104.318C319.229 102.811 322.088 89.1832 322.088 89.1832L333.901 87.7294C333.901 87.7294 332.14 59.3194 325.525 54.5526C318.91 49.7858 323.783 47.9982 323.783 47.9982Z" fill="#2193B0"/>
<path opacity="0.1" d="M328.65 167.396C328.65 167.396 327.591 169.303 325.997 172.135C325.749 163.383 319.62 161.686 316.504 161.395C318.413 159.884 319.749 159.012 319.749 159.012L328.65 167.396Z" fill="black"/>
<path d="M320.443 103.812L321.254 108.341C321.254 108.341 324.447 112.202 324.447 113.375C324.447 114.547 328.141 117.903 329.153 119.748C330.165 121.593 333.687 121.931 332.341 125.12C330.995 128.309 323.273 152.634 323.273 152.634L315.379 161.357C315.379 161.357 328.48 160.18 326.461 175.781L343.428 161.004L356.715 136.861C356.715 136.861 343.781 112.369 343.28 110.357C342.779 108.346 320.443 103.812 320.443 103.812Z" fill="#2193B0"/>
<path opacity="0.1" d="M359.727 112.202C359.727 112.202 370.475 104.651 370.475 103.812C370.475 102.973 359.727 112.202 359.727 112.202Z" fill="black"/>
<path opacity="0.1" d="M377.715 121.597C377.715 121.597 383.442 120.253 383.919 117.236C384.397 114.218 377.715 121.597 377.715 121.597Z" fill="black"/>
<path opacity="0.1" d="M382.401 129.315C382.401 129.315 390.467 125.325 390.128 124.634C389.789 123.942 382.401 129.315 382.401 129.315Z" fill="black"/>
<path opacity="0.1" d="M425.57 103.76C425.57 103.76 422.229 105.938 423.221 107.978C424.214 110.019 425.57 103.76 425.57 103.76Z" fill="black"/>
<path opacity="0.1" d="M435.464 104.651C435.464 104.651 425.948 113.708 428.1 113.88C430.253 114.051 435.464 104.651 435.464 104.651Z" fill="black"/>
<path opacity="0.1" d="M413.814 245.071C413.814 245.071 426.075 247.421 426.41 248.26C426.744 249.099 413.814 245.071 413.814 245.071Z" fill="black"/>
<path opacity="0.1" d="M418.182 253.122C418.182 253.122 424.73 257.15 424.897 258.323C425.064 259.495 418.182 253.122 418.182 253.122Z" fill="black"/>
<path opacity="0.1" d="M416.669 262.184C416.669 262.184 417.676 266.713 419.356 267.385C421.036 268.057 416.669 262.184 416.669 262.184Z" fill="black"/>
<path opacity="0.1" d="M317.607 64.0382C317.607 64.0859 317.607 64.1383 317.583 64.186C317.354 65.678 316.743 67.2939 315.34 67.7897C314.492 68.0278 313.586 67.9446 312.796 67.5561C310.41 66.5122 308.286 64.0048 305.738 64.6102C304.525 64.8962 303.676 65.8162 303.074 66.9459C302.657 67.7591 302.337 68.6182 302.12 69.5057C301.643 71.3743 301.261 73.4049 301.991 75.1829C302.111 75.4738 302.255 75.7544 302.421 76.0219C303.098 77.1039 304.053 78.0239 304.721 79.1155C305.551 80.4788 305.766 82.5238 304.473 83.4581C304.148 83.6711 303.78 83.8094 303.396 83.863C303.011 83.9166 302.619 83.8841 302.249 83.7679C301.301 83.4706 300.39 83.0676 299.533 82.5667C297.844 81.6848 295.715 81.1366 294.111 82.1567C293.558 82.4999 293.114 82.9957 292.584 83.358C291.483 84.0391 290.177 84.3108 288.895 84.1254C285.859 83.8156 284.723 81.8946 282.404 80.4073C280.705 79.311 277.154 78.8438 276.142 81.0842C275.493 82.5142 276.457 84.3161 275.822 85.7747C275.188 87.2334 273.169 87.6814 272.233 89.0352C271.002 90.818 272.147 93.3968 271.245 95.375C271.107 95.6815 270.922 95.9645 270.697 96.214C265.639 90.7709 262.892 83.5812 263.033 76.1567C263.173 68.7322 266.191 61.6516 271.452 56.4038C276.712 51.1561 283.805 48.1502 291.239 48.0182C298.673 47.8863 305.868 50.6386 311.312 55.6963L312.601 55.6487C313.856 55.601 315.187 55.5343 316.529 55.4532C316.846 56.1239 317.094 56.825 317.268 57.5458C317.788 59.6696 317.903 61.872 317.607 64.0382Z" fill="black"/>
<path d="M275.46 80.4171C274.806 81.8471 275.77 83.649 275.14 85.1028C274.51 86.5567 272.477 87.0095 271.551 88.3633C270.315 90.1509 271.46 92.7297 270.563 94.7031C269.532 96.9578 266.42 97.3106 264.034 96.6528C261.995 96.0713 260.124 95.0137 258.576 93.5673C257.027 92.121 255.846 90.3274 255.128 88.3347C253.51 83.7348 254.555 78.6725 254.135 73.8151C253.957 71.7336 253.507 69.6841 252.799 67.7184C252.107 65.8117 251.162 63.9336 250.938 61.9077C250.777 60.1887 251.136 58.4612 251.968 56.948C252.8 55.4347 254.067 54.2052 255.605 53.418C257.572 52.4647 259.992 52.193 261.423 50.558C262.521 49.29 262.755 47.5215 263.266 45.9247C264.645 41.6346 268.764 38.1357 273.288 38.1786C276.906 38.2072 280.447 40.338 283.984 39.499C285.984 39.0224 287.802 37.5923 289.864 37.7973C290.851 37.9524 291.798 38.3042 292.646 38.8317C298.136 41.793 303.359 45.2219 308.258 49.0803C309.271 49.9519 310.381 50.7052 311.565 51.3254C312.328 51.6223 313.072 51.9646 313.794 52.3503C315.336 53.3036 316.142 55.1198 316.581 56.8835C317.108 59.0059 317.228 61.2089 316.934 63.3758C316.724 64.906 316.123 66.622 314.667 67.1321C313.817 67.369 312.909 67.2824 312.119 66.889C309.732 65.8546 307.613 63.3473 305.065 63.9479C302.984 64.4245 301.982 66.7793 301.438 68.8433C300.96 70.7119 300.569 72.7426 301.309 74.5253C301.92 76.0031 303.218 77.0851 304.034 78.4532C304.85 79.8212 305.084 81.8662 303.786 82.7957C302.354 83.8301 300.411 82.729 298.841 81.9091C297.161 81.0272 295.023 80.4791 293.424 81.4944C292.875 81.8376 292.431 82.3333 291.897 82.7004C290.795 83.3749 289.492 83.6446 288.212 83.4631C285.172 83.1532 284.036 81.2322 281.722 79.745C280.018 78.6391 276.476 78.1719 275.46 80.4171Z" fill="#474463"/>
<path opacity="0.1" d="M368.345 148.372C368.217 149.087 367.233 149.168 367.033 149.864C365.124 156.59 360.924 162.639 354.443 165.118C353.197 163.159 352.166 161.877 352.166 161.877C352.166 161.877 364.26 139.735 364.933 142.752C365.148 143.691 366.546 145.875 368.345 148.372Z" fill="black"/>
<path d="M368.703 143.739C368.704 148.119 367.405 152.402 364.969 156.044C362.533 159.687 359.07 162.526 355.018 164.203C350.967 165.88 346.508 166.319 342.206 165.465C337.905 164.611 333.953 162.502 330.852 159.405C327.75 156.308 325.638 152.362 324.782 148.066C323.926 143.77 324.365 139.317 326.043 135.27C327.721 131.223 330.563 127.764 334.21 125.33C337.856 122.896 342.144 121.597 346.529 121.597C349.444 121.587 352.332 122.152 355.027 123.261C357.721 124.37 360.17 126 362.231 128.058C364.292 130.116 365.925 132.562 367.036 135.253C368.147 137.944 368.713 140.828 368.703 143.739Z" fill="#FFC1C8"/>
<path opacity="0.1" d="M356.448 334.401L356.61 337.327C354.668 337.756 350.973 338.319 348.821 337.003C346.039 335.302 341.929 334.887 338.164 332.57C338.231 331.532 338.196 330.489 338.059 329.458L356.448 334.401Z" fill="black"/>
<path opacity="0.1" d="M388.267 340.984C388.138 341.637 388.018 342.037 388.018 342.037C388.018 342.037 373.199 340.521 368.928 338.476C368.928 336.999 368.885 335.14 368.885 335.14L387.536 337.404L388.267 340.984Z" fill="black"/>
<path d="M384.921 274.43C383.914 277.114 383.408 277.619 384.42 278.958C385.431 280.298 384.921 287.348 383.317 288.015C381.713 288.683 375.681 292.711 375.681 292.711C375.681 292.711 379.022 297.072 379.122 298.907C379.21 300.08 379.664 301.195 380.42 302.096C380.42 302.096 385.594 313.17 386.624 316.692C387.655 320.215 388.6 325.749 388.6 325.749C388.6 325.749 386.792 330.783 388.042 333.638C389.292 336.493 388.042 340.683 388.042 340.683C388.042 340.683 369.996 338.839 367.997 336.47C365.997 334.101 367.329 328.771 367.329 328.771C366.916 326.396 366.061 324.12 364.809 322.06C362.79 318.871 365.286 315.52 364.809 315.348C364.331 315.176 362.79 313.336 361.272 310.319C359.754 307.302 358.809 308.47 358.809 308.47C358.809 308.47 360.776 325.415 358.809 326.927C356.843 328.438 356.576 327.765 357.082 329.787C357.474 331.727 357.754 333.687 357.922 335.659C357.922 335.659 351.875 337.504 348.853 335.659C345.832 333.814 341.284 333.476 337.289 330.626C333.295 327.775 339.098 322.908 340.105 322.236C341.112 321.564 339.771 311.835 339.771 311.835L338.425 302.273C338.425 302.273 342.959 303.278 341.47 299.589C339.981 295.9 338.258 283.148 337.418 281.137C336.578 279.125 340.282 276.437 339.771 275.097C339.26 273.758 341.952 266.04 341.952 266.04C341.952 266.04 342.124 259.667 343.799 258.471C344.439 258.023 344.854 256.631 345.131 255.091C345.424 253.274 345.598 251.44 345.651 249.6C345.651 249.6 384.114 246.916 390.328 250.606C393.125 252.264 392.929 255.32 391.76 258.414C390.328 262.189 387.388 266.04 386.648 267.437C385.259 270.011 385.928 271.746 384.921 274.43Z" fill="#575988"/>
<path opacity="0.1" d="M391.712 258.414C386.94 259.753 380.583 261.722 379.547 262.851C377.867 264.701 372.154 252.45 372.154 252.45C372.154 252.45 372.493 261.66 364.933 257.808C358.39 254.471 347.828 254.91 345.098 255.091C345.391 253.274 345.565 251.44 345.618 249.6C345.618 249.6 384.081 246.916 390.295 250.606C393.092 252.264 392.896 255.32 391.712 258.414Z" fill="black"/>
<path d="M372.154 156.995C372.154 156.995 375.495 152.967 376.187 154.478C376.879 155.989 380.821 159.007 380.821 159.007C380.821 159.007 381.953 162.529 383.943 163.035C385.933 163.54 400.881 183.67 400.881 183.67L395.502 194.572L391.135 221.08C391.135 221.08 391.326 225.275 390.138 226.8C388.949 228.325 384.41 227.973 386.515 229.817C388.62 231.662 391.641 233.34 393.321 241.734C395.001 250.129 397.015 254.986 397.015 254.986C397.015 254.986 381.227 259.014 379.547 260.859C377.867 262.703 372.154 250.457 372.154 250.457C372.154 250.457 372.493 259.662 364.933 255.815C357.373 251.969 344.439 253.141 344.439 253.141V243.226C344.439 243.226 346.959 239.365 345.618 236.681C344.277 233.998 346.534 228.964 346.534 228.964C346.534 228.964 345.785 223.763 344.439 220.746C343.093 217.729 343.599 203.467 343.599 203.467C343.599 203.467 342.578 194.238 343.509 189.538C344.298 185.464 345.693 181.531 347.646 177.869C349.493 174.275 350.663 170.919 350.162 169.575C349.661 168.23 354.595 165.323 354.595 165.323L357.33 169.742L358.027 172.382C358.027 172.382 372.493 162.029 372.154 156.995Z" fill="#DCE6F2"/>
<path d="M396.328 180.314C396.328 180.314 405.735 189.538 406.742 191.049C407.749 192.56 411.123 200.416 406.756 202.799C402.389 205.183 385.279 208.858 383.58 207.59C381.881 206.322 371.648 209.02 371.648 209.02C371.648 209.02 354.533 213.215 358.227 206.336C361.921 199.458 370.66 200.616 370.66 200.616C370.66 200.616 384.778 200.592 386.286 199.186C387.794 197.78 399.172 194.763 396.595 188.547C394.018 182.331 396.328 180.314 396.328 180.314Z" fill="#FFC1C8"/>
<path opacity="0.1" d="M368.703 221.585C368.703 221.585 346.792 240.543 348.973 240.543C351.154 240.543 368.703 221.585 368.703 221.585Z" fill="black"/>
<path opacity="0.1" d="M383.317 229.303C383.317 229.303 376.354 230.976 377.7 231.986C379.046 232.997 383.317 229.303 383.317 229.303Z" fill="black"/>
<path opacity="0.1" d="M358.762 183.332C358.762 183.332 367.453 184.109 365.921 186.826C364.389 189.543 358.762 183.332 358.762 183.332Z" fill="black"/>
<path opacity="0.1" d="M353.345 264.811C353.345 264.811 352.166 268.224 353.345 270.054C354.524 271.884 353.345 276.251 353.345 276.251V291.505C353.345 291.505 353.183 302.578 357.206 306.434L353.345 264.811Z" fill="black"/>
<path opacity="0.1" d="M341.838 312.345C341.838 312.345 344.186 315.782 344.525 317.04C344.864 318.298 341.838 312.345 341.838 312.345Z" fill="black"/>
<path opacity="0.1" d="M342.425 305.466C342.425 305.466 347.885 304.461 348.725 305.047C349.565 305.633 342.425 305.466 342.425 305.466Z" fill="black"/>
<path opacity="0.1" d="M340.831 326.016C340.831 326.016 339.232 326.182 342.425 327.922C345.618 329.662 351.832 331.864 351.913 331.111C351.994 330.358 340.831 326.016 340.831 326.016Z" fill="black"/>
<path opacity="0.1" d="M364.203 309.322C364.766 309.322 371.796 308.903 371.391 309.995C370.985 311.086 364.203 309.322 364.203 309.322Z" fill="black"/>
<path opacity="0.1" d="M373.753 299.508C373.753 299.508 375.347 296.743 375.934 297.916C376.521 299.088 373.753 299.508 373.753 299.508Z" fill="black"/>
<path opacity="0.1" d="M368.703 143.739C368.706 145.798 368.42 147.847 367.854 149.826C366.928 150.665 365.329 150.675 364.188 150.05C362.852 149.316 361.979 147.981 361.11 146.713C360.241 145.445 359.253 144.177 357.831 143.634C356.032 142.957 353.98 143.634 352.414 144.759C350.849 145.884 349.598 147.371 348.119 148.572C346.639 149.774 344.754 150.746 342.869 150.451C341.652 150.265 340.573 149.578 339.528 148.916C338.096 148.015 336.559 146.613 334.989 146.008C333.419 145.402 332.126 146.485 330.632 146.485C329.443 146.914 328.15 147.891 328.389 149.125C328.516 149.583 328.723 150.016 328.999 150.403C329.479 151.347 329.668 152.411 329.543 153.462C329.419 154.513 328.985 155.503 328.298 156.309C326.32 153.452 325.042 150.171 324.567 146.73C324.093 143.29 324.436 139.786 325.568 136.502C326.7 133.218 328.589 130.245 331.084 127.825C333.578 125.405 336.607 123.605 339.927 122.57C343.247 121.535 346.763 121.294 350.193 121.868C353.623 122.441 356.87 123.811 359.671 125.869C362.473 127.927 364.751 130.614 366.32 133.713C367.89 136.812 368.708 140.237 368.708 143.71L368.703 143.739Z" fill="black"/>
<path d="M330.626 145.841C329.438 146.27 328.145 147.247 328.378 148.487C328.511 148.942 328.719 149.372 328.994 149.759C330.388 152.243 329.209 155.808 326.608 156.962C326.2 157.174 325.734 157.248 325.281 157.172C324.922 157.06 324.594 156.864 324.326 156.6C322.928 155.351 321.963 153.69 321.573 151.857C321.162 149.95 321.415 147.929 321.205 145.97C320.995 144.011 320.322 142.08 320.088 140.107C319.923 139.131 320.027 138.129 320.389 137.208C320.704 136.601 321.109 136.045 321.592 135.559C322.933 134.067 324.331 132.542 325.004 130.649C326.068 127.637 325.295 123.799 327.624 121.592C328.703 120.582 330.211 120.205 331.548 119.567C332.806 118.899 334.011 118.136 335.151 117.283C339.47 114.318 344.72 112.04 349.856 113.088C351.907 113.585 353.872 114.388 355.683 115.472C359.047 117.324 362.241 119.468 365.228 121.878C366.52 122.833 367.649 123.99 368.569 125.306C369.255 126.432 369.749 127.664 370.03 128.952C370.715 131.762 370.81 134.684 370.306 137.533C369.829 140.326 368.746 143.038 368.703 145.874C368.703 146.828 368.779 147.857 368.288 148.677C367.5 149.983 365.548 150.107 364.212 149.383C362.875 148.658 362.002 147.314 361.138 146.046C360.274 144.778 359.282 143.51 357.859 142.971C356.06 142.29 354.008 142.971 352.442 144.092C350.877 145.212 349.631 146.704 348.147 147.905C346.663 149.106 344.806 150.079 342.897 149.783C341.68 149.597 340.601 148.916 339.556 148.253C338.124 147.347 336.587 145.946 335.022 145.345C333.457 144.745 332.115 145.841 330.626 145.841Z" fill="#794F6A"/>
<path d="M381.562 180.314C381.562 180.314 356.873 203.128 361.908 214.535C366.943 225.942 389.112 205.812 389.112 205.812L397.016 187.546L381.562 180.314Z" fill="#F8BDC5"/>
<path d="M326.599 155.608C326.193 155.82 325.728 155.894 325.277 155.818C324.915 155.708 324.587 155.509 324.322 155.241C322.923 153.994 321.957 152.335 321.563 150.503C321.158 148.573 321.411 146.57 321.201 144.611C320.991 142.652 320.313 140.726 320.084 138.748C320.084 138.653 320.084 138.553 320.06 138.453C320.008 138.998 320.016 139.548 320.084 140.092C320.313 142.066 320.991 143.973 321.201 145.956C321.411 147.939 321.158 149.917 321.563 151.843C321.956 153.676 322.922 155.337 324.322 156.585C324.589 156.851 324.917 157.047 325.277 157.157C325.728 157.233 326.193 157.16 326.599 156.948C328.651 156.037 329.811 153.64 329.539 151.447C329.439 152.332 329.117 153.177 328.603 153.905C328.089 154.632 327.4 155.218 326.599 155.608Z" fill="black"/>
<path d="M370.274 136.183C369.797 138.977 368.713 141.689 368.675 144.525C368.675 145.479 368.751 146.508 368.255 147.328C367.472 148.634 365.52 148.758 364.184 148.034C362.848 147.309 361.974 145.97 361.106 144.697C360.237 143.424 359.254 142.161 357.827 141.622C356.032 140.945 353.98 141.622 352.414 142.747C350.849 143.872 349.599 145.355 348.119 146.561C346.64 147.767 344.754 148.734 342.869 148.444C341.652 148.253 340.573 147.571 339.528 146.909C338.096 146.003 336.56 144.606 334.994 144.001C333.429 143.396 332.131 144.478 330.637 144.478C329.448 144.911 328.155 145.884 328.384 147.128C328.413 147.262 328.456 147.393 328.513 147.519C328.98 146.705 329.739 146.099 330.637 145.822C332.126 145.822 333.443 144.754 334.994 145.345C336.545 145.936 338.111 147.347 339.528 148.253C340.564 148.915 341.643 149.597 342.869 149.783C344.778 150.079 346.649 149.12 348.119 147.905C349.589 146.689 350.854 145.188 352.414 144.091C353.975 142.995 356.032 142.29 357.827 142.971C359.259 143.51 360.242 144.792 361.106 146.046C361.969 147.3 362.848 148.629 364.184 149.383C365.52 150.136 367.472 149.983 368.255 148.677C368.732 147.857 368.661 146.832 368.675 145.874C368.713 143.038 369.782 140.326 370.274 137.532C370.526 136.098 370.628 134.641 370.579 133.185C370.549 134.19 370.447 135.192 370.274 136.183Z" fill="black"/>
<path opacity="0.1" d="M352 64.2193C352 64.2193 342.931 80.66 355.34 89.0495C367.749 97.439 368.947 96.6001 368.947 96.6001C368.947 96.6001 368.776 98.6117 368.947 99.1169C369.119 99.6222 372.288 100.79 372.288 100.79C372.288 100.79 376.149 106.987 381.69 109.685C387.232 112.383 388.243 118.742 388.243 118.742C388.243 118.742 388.243 120.925 391.107 122.937C393.971 124.948 396.176 130.821 396.176 130.821V136.193C396.176 137.032 397.183 139.53 395.001 139.797C392.82 140.064 394.663 145.083 394.663 145.083C394.663 145.083 392.314 147.943 392.816 149.278C393.317 150.612 391.809 153.301 391.809 153.301C391.809 153.301 389.962 155.985 390.129 156.49C390.296 156.995 388.115 158.84 388.616 160.013C389.117 161.185 386.1 162.696 386.602 164.041C387.103 165.385 384.454 166.052 384.454 166.052L377.195 182.831C377.195 182.831 392.467 186.168 396.409 194.572L415.662 159.34C415.662 159.34 426.41 133.004 426.749 131.326C427.088 129.648 424.396 123.609 424.396 123.609L411.295 99.7748L391.641 72.0941C391.641 72.0941 376.021 38.8887 352 64.2193Z" fill="black"/>
<path opacity="0.1" d="M371.391 71.155C371.391 71.155 347.794 79.4253 360.222 87.8149C372.651 96.2044 373.829 95.3607 373.829 95.3607C373.829 95.3607 373.662 97.377 373.829 97.8775C373.996 98.3781 377.17 99.5555 377.17 99.5555C377.17 99.5555 381.036 105.752 386.577 108.45C392.118 111.148 393.13 117.507 393.13 117.507C393.13 117.507 393.13 119.69 395.994 121.702C398.857 123.713 401.034 129.586 401.034 129.586V134.954C401.034 135.793 402.041 138.29 399.855 138.562C397.669 138.834 399.521 143.848 399.521 143.848C399.521 143.848 397.168 146.708 397.674 148.038C398.18 149.368 396.667 152.066 396.667 152.066C396.667 152.066 394.82 154.75 394.987 155.255C395.154 155.761 392.968 157.605 393.474 158.778C393.98 159.951 390.954 161.462 391.46 162.806C391.966 164.15 389.307 164.817 389.307 164.817L382.053 181.592C382.053 181.592 394.634 182.24 398.604 190.649L420.516 158.125C420.516 158.125 431.269 131.788 431.603 130.111C431.937 128.433 429.259 122.374 429.259 122.374L416.158 98.5401L386.272 81.3225C386.272 81.3225 395.411 45.8195 371.391 71.155Z" fill="black"/>
<path d="M353.345 64.2195C353.345 64.2195 344.277 80.6601 356.686 89.0497C369.095 97.4392 370.293 96.6003 370.293 96.6003C370.293 96.6003 370.126 98.6118 370.293 99.1171C370.46 99.6224 373.634 100.79 373.634 100.79C373.634 100.79 377.5 106.987 383.041 109.685C388.582 112.383 389.594 118.742 389.594 118.742C389.594 118.742 389.594 120.925 392.457 122.937C395.321 124.948 397.521 130.821 397.521 130.821V136.193C397.521 137.032 398.528 139.53 396.342 139.797C394.157 140.064 396.008 145.083 396.008 145.083C396.008 145.083 393.655 147.943 394.161 149.278C394.667 150.613 393.154 153.301 393.154 153.301C393.154 153.301 391.307 155.985 391.474 156.49C391.641 156.995 389.455 158.84 389.961 160.013C390.467 161.185 387.441 162.696 387.947 164.041C388.453 165.385 385.795 166.052 385.795 166.052L378.54 182.831C378.54 182.831 393.784 186.168 397.75 194.572L417.003 159.341C417.003 159.341 427.756 133.004 428.09 131.326C428.424 129.648 425.737 123.609 425.737 123.609L412.636 99.7749L392.987 72.1038C392.987 72.1038 377.361 38.8888 353.345 64.2195Z" fill="#2193B0"/>
<path d="M254.136 72.4757C253.959 70.3922 253.51 68.3409 252.799 66.3742C252.107 64.4675 251.162 62.5893 250.938 60.5635C250.938 60.5015 250.938 60.4443 250.938 60.3823C250.888 60.8896 250.888 61.4005 250.938 61.9077C251.162 63.9336 252.107 65.7974 252.799 67.7184C253.51 69.6835 253.959 71.7332 254.136 73.8151C254.202 74.5969 254.231 75.3882 254.241 76.1985C254.255 74.9353 254.241 73.7007 254.136 72.4757Z" fill="black"/>
<path d="M270.562 93.3634C269.536 95.6133 266.42 95.9708 264.033 95.3082C261.996 94.7251 260.127 93.6675 258.579 92.2223C257.03 90.7771 255.848 88.9856 255.128 86.995C254.464 84.9465 254.142 82.8032 254.173 80.6504C254.144 83.2769 254.245 85.87 255.128 88.3344C255.847 90.3257 257.03 92.118 258.578 93.564C260.126 95.0101 261.996 96.0685 264.033 96.6525C266.42 97.3103 269.536 96.9575 270.562 94.7029C270.997 93.7495 270.954 92.6436 270.935 91.5568C270.926 92.1771 270.8 92.7901 270.562 93.3634Z" fill="black"/>
<path d="M316.934 62.0267C316.729 63.5521 316.123 65.2681 314.667 65.7781C313.819 66.0149 312.913 65.93 312.123 65.5398C309.737 64.5006 307.613 61.9933 305.065 62.5987C302.984 63.0754 301.986 65.4254 301.437 67.4942C301.039 68.8014 300.867 70.1666 300.927 71.5316C301.018 70.6192 301.189 69.7164 301.437 68.8337C301.986 66.7696 302.984 64.4339 305.065 63.9382C307.613 63.3376 309.718 65.8449 312.123 66.8793C312.912 67.2728 313.818 67.3594 314.667 67.1224C316.123 66.6123 316.729 64.8963 316.934 63.3662C317.065 62.3916 317.113 61.4077 317.077 60.425C317.054 60.9589 317.006 61.4976 316.934 62.0267Z" fill="black"/>
<path d="M303.785 81.4464C302.353 82.4808 300.41 81.3797 298.84 80.555C297.16 79.6732 295.022 79.125 293.423 80.1403C292.874 80.4835 292.431 80.9793 291.896 81.3463C290.796 82.0259 289.491 82.2959 288.211 82.109C285.171 81.7992 284.035 79.8782 281.721 78.3909C280.022 77.2993 276.471 76.8322 275.459 79.0726C275.216 79.7321 275.149 80.4433 275.263 81.1366C275.295 80.8887 275.36 80.6465 275.459 80.4168C276.475 78.1717 280.022 78.6388 281.721 79.7352C284.035 81.2224 285.171 83.1434 288.211 83.4533C289.492 83.6363 290.796 83.3647 291.896 82.6858C292.431 82.3235 292.874 81.8278 293.423 81.4846C295.036 80.4835 297.16 81.0079 298.84 81.8993C300.41 82.7192 302.343 83.806 303.785 82.7859C304.625 82.1853 304.825 81.1175 304.639 80.0641C304.541 80.6168 304.236 81.1112 303.785 81.4464Z" fill="black"/>
<path d="M275.14 83.7634C274.486 85.2602 272.477 85.6702 271.551 87.0192C270.859 88.0202 270.916 89.2691 270.94 90.5227C270.931 89.7592 271.143 89.0094 271.551 88.3634C272.477 87.0144 274.486 86.5997 275.14 85.1029C275.369 84.4516 275.431 83.7537 275.321 83.0723C275.292 83.3097 275.231 83.5421 275.14 83.7634Z" fill="black"/>
<path d="M85.1667 334.443L86.3743 336.214L93.8413 347.324L100.181 349.236L104.911 344.607L104.681 341.552L103.502 325.688C103.502 325.688 132.766 308.472 135.383 305.251C137.999 302.031 148.062 299.113 148.062 299.113C148.062 299.113 163.459 291.968 169.195 279.489C174.931 267.011 159.635 265.099 159.635 265.099L102.174 320.052L85.1667 334.443Z" fill="#FFC1C7"/>
<path d="M78.1213 340.884L96.3359 357.891C96.3359 357.891 106.802 359.903 116.161 358.494C122.142 357.593 120.991 354.312 119.417 352.054L119.389 352.014C118.446 350.722 117.068 349.816 115.509 349.462C107.764 347.594 105.091 341.987 105.091 341.987L99.4555 346.817L89.6941 335.441L82.4767 338.831L78.1213 340.884Z" fill="#575988"/>
<path opacity="0.1" d="M82.4778 338.839L86.7647 336.826L86.3622 336.214L85.1546 334.443L102.174 320.053L159.635 265.107C159.635 265.107 174.931 267.011 169.195 279.489C163.459 291.968 148.062 299.113 148.062 299.113C148.062 299.113 137.999 302.031 135.383 305.251C132.766 308.472 103.482 325.68 103.482 325.68L104.661 341.544L104.718 342.301L105.092 341.983C105.092 341.983 107.765 347.59 115.51 349.458C117.069 349.812 118.447 350.718 119.39 352.01L119.418 352.05C121.028 354.304 122.143 357.585 116.162 358.49C106.803 359.899 96.337 357.887 96.337 357.887L78.1224 340.88L82.4778 338.839Z" fill="black"/>
<path d="M73.4883 240.118C73.4883 240.118 62.1369 212.142 40.9395 201.764C32.0201 197.469 24.7357 190.395 20.1809 181.605C18.0505 177.417 16.3083 173.042 14.9762 168.535" stroke="#535461" stroke-width="2" stroke-miterlimit="10"/>
<path d="M1.65689 161.918C3.8668 164.695 15.3027 168.761 15.3027 168.761C15.3027 168.761 13.9261 156.705 11.7162 153.927C11.2121 153.207 10.566 152.598 9.81769 152.138C9.0694 151.677 8.23474 151.374 7.36507 151.248C6.49541 151.122 5.60914 151.175 4.7608 151.404C3.91246 151.634 3.11999 152.034 2.43218 152.581C1.74438 153.128 1.17577 153.81 0.761368 154.585C0.346962 155.36 0.0955429 156.211 0.0225401 157.087C-0.0504637 157.963 0.0564928 158.844 0.336871 159.677C0.617249 160.51 1.06511 161.276 1.65287 161.93L1.65689 161.918Z" fill="#6C63FF"/>
<path d="M5.58062 183.916C8.94579 185.047 20.748 182.233 20.748 182.233C20.748 182.233 13.0396 172.862 9.6744 171.731C8.85927 171.397 7.98426 171.234 7.10351 171.252C6.22275 171.269 5.35498 171.467 4.55383 171.833C3.75267 172.2 3.03519 172.727 2.44574 173.381C1.85628 174.036 1.40735 174.805 1.12679 175.64C0.846235 176.475 0.739981 177.358 0.814577 178.236C0.889172 179.114 1.14303 179.967 1.56048 180.743C1.97793 181.519 2.55012 182.2 3.24159 182.746C3.93306 183.292 4.72914 183.69 5.58062 183.916Z" fill="#6C63FF"/>
<path d="M26.8595 209.924C30.3333 209.199 39.1045 200.814 39.1045 200.814C39.1045 200.814 27.7169 196.616 24.243 197.337C22.6621 197.769 21.3055 198.788 20.4496 200.186C19.5937 201.583 19.3029 203.255 19.6365 204.86C19.97 206.464 20.9029 207.882 22.2449 208.822C23.5869 209.763 25.2372 210.157 26.8595 209.924Z" fill="#6C63FF"/>
<path d="M47.3884 225.972C50.9347 225.852 60.998 219.065 60.998 219.065C60.998 219.065 50.4839 213.003 46.9376 213.128C46.0563 213.1 45.1787 213.254 44.3592 213.579C43.5397 213.905 42.7958 214.395 42.1735 215.02C41.5512 215.644 41.0639 216.39 40.7416 217.211C40.4193 218.032 40.2689 218.91 40.2999 219.791C40.3308 220.672 40.5423 221.538 40.9214 222.334C41.3004 223.13 41.8389 223.84 42.5034 224.419C43.168 224.999 43.9445 225.436 44.7847 225.703C45.625 225.97 46.5112 226.062 47.3884 225.972Z" fill="#6C63FF"/>
<path d="M31.7377 174.372C31.2868 177.894 23.5984 187.281 23.5984 187.281C23.5984 187.281 18.5346 176.252 18.9894 172.734C19.3042 171.13 20.2171 169.705 21.5431 168.749C22.8692 167.793 24.5091 167.377 26.1304 167.586C27.7517 167.794 29.2332 168.611 30.2744 169.871C31.3156 171.131 31.8387 172.74 31.7377 174.372Z" fill="#6C63FF"/>
<path d="M55.5116 193.448C54.0262 196.668 43.8784 203.33 43.8784 203.33C43.8784 203.33 42.3528 191.294 43.8381 188.07C44.6189 186.634 45.9161 185.549 47.4671 185.034C49.018 184.52 50.7067 184.614 52.1909 185.297C53.6751 185.981 54.8439 187.204 55.4605 188.717C56.077 190.23 56.0953 191.921 55.5116 193.448Z" fill="#6C63FF"/>
<path d="M76.0724 215.161C75.1506 218.59 66.2788 226.866 66.2788 226.866C66.2788 226.866 62.7365 215.261 63.6543 211.832C64.1755 210.277 65.2699 208.98 66.7144 208.205C68.1589 207.429 69.8447 207.234 71.4283 207.658C73.0118 208.083 74.3739 209.095 75.2368 210.489C76.0997 211.883 76.3986 213.554 76.0724 215.161Z" fill="#6C63FF"/>
<path opacity="0.25" d="M1.65689 161.918C3.8668 164.695 15.3027 168.761 15.3027 168.761C15.3027 168.761 13.9261 156.705 11.7162 153.927C11.2121 153.207 10.566 152.598 9.81769 152.138C9.0694 151.677 8.23474 151.374 7.36507 151.248C6.49541 151.122 5.60914 151.175 4.7608 151.404C3.91246 151.634 3.11999 152.034 2.43218 152.581C1.74438 153.128 1.17577 153.81 0.761368 154.585C0.346962 155.36 0.0955429 156.211 0.0225401 157.087C-0.0504637 157.963 0.0564928 158.844 0.336871 159.677C0.617249 160.51 1.06511 161.276 1.65287 161.93L1.65689 161.918Z" fill="black"/>
<path opacity="0.25" d="M5.58062 183.916C8.94579 185.047 20.748 182.233 20.748 182.233C20.748 182.233 13.0396 172.862 9.6744 171.731C8.85927 171.397 7.98426 171.234 7.10351 171.252C6.22275 171.269 5.35498 171.467 4.55383 171.833C3.75267 172.2 3.03519 172.727 2.44574 173.381C1.85628 174.036 1.40735 174.805 1.12679 175.64C0.846235 176.475 0.739981 177.358 0.814577 178.236C0.889172 179.114 1.14303 179.967 1.56048 180.743C1.97793 181.519 2.55012 182.2 3.24159 182.746C3.93306 183.292 4.72914 183.69 5.58062 183.916Z" fill="black"/>
<path opacity="0.25" d="M26.8595 209.924C30.3333 209.199 39.1045 200.814 39.1045 200.814C39.1045 200.814 27.7169 196.616 24.243 197.337C22.6621 197.769 21.3055 198.788 20.4496 200.186C19.5937 201.583 19.3029 203.255 19.6365 204.86C19.97 206.464 20.9029 207.882 22.2449 208.822C23.5869 209.763 25.2372 210.157 26.8595 209.924Z" fill="black"/>
<path opacity="0.25" d="M47.3884 225.972C50.9347 225.852 60.998 219.065 60.998 219.065C60.998 219.065 50.4839 213.003 46.9376 213.128C46.0563 213.1 45.1787 213.254 44.3592 213.579C43.5397 213.905 42.7958 214.395 42.1735 215.02C41.5512 215.644 41.0639 216.39 40.7416 217.211C40.4193 218.032 40.2689 218.91 40.2999 219.791C40.3308 220.672 40.5423 221.538 40.9214 222.334C41.3004 223.13 41.8389 223.84 42.5034 224.419C43.168 224.999 43.9445 225.436 44.7847 225.703C45.625 225.97 46.5112 226.062 47.3884 225.972Z" fill="black"/>
<path opacity="0.25" d="M31.7377 174.372C31.2868 177.894 23.5984 187.281 23.5984 187.281C23.5984 187.281 18.5346 176.252 18.9894 172.734C19.3042 171.13 20.2171 169.705 21.5431 168.749C22.8692 167.793 24.5091 167.377 26.1304 167.586C27.7517 167.794 29.2332 168.611 30.2744 169.871C31.3156 171.131 31.8387 172.74 31.7377 174.372Z" fill="black"/>
<path opacity="0.25" d="M55.5116 193.448C54.0262 196.668 43.8784 203.33 43.8784 203.33C43.8784 203.33 42.3528 191.294 43.8381 188.07C44.6189 186.634 45.9161 185.549 47.4671 185.034C49.018 184.52 50.7067 184.614 52.1909 185.297C53.6751 185.981 54.8439 187.204 55.4605 188.717C56.077 190.23 56.0953 191.921 55.5116 193.448Z" fill="black"/>
<path opacity="0.25" d="M76.0724 215.161C75.1506 218.59 66.2788 226.866 66.2788 226.866C66.2788 226.866 62.7365 215.261 63.6543 211.832C64.1755 210.277 65.2699 208.98 66.7144 208.205C68.1589 207.429 69.8447 207.234 71.4283 207.658C73.0118 208.083 74.3739 209.095 75.2368 210.489C76.0997 211.883 76.3986 213.554 76.0724 215.161Z" fill="black"/>
<path d="M91.5625 195.36C91.5625 195.36 90.1295 165.202 73.5733 148.38C66.584 141.371 62.057 132.283 60.6722 122.481C60.0551 117.819 59.8664 113.11 60.1086 108.413" stroke="#535461" stroke-width="2" stroke-miterlimit="10"/>
<path d="M49.7272 97.7459C50.8906 101.103 60.334 108.719 60.334 108.719C60.334 108.719 63.0309 96.8885 61.8716 93.5354C61.2363 92.0285 60.0514 90.8197 58.5575 90.1543C57.0636 89.489 55.3725 89.4168 53.8274 89.9525C52.2822 90.4882 50.9987 91.5917 50.2373 93.039C49.4758 94.4863 49.2935 96.1691 49.7272 97.7459Z" fill="#6C63FF"/>
<path d="M46.1324 119.804C48.9502 121.986 61.002 123.25 61.002 123.25C61.002 123.25 56.8357 111.85 54.0381 109.669C52.6858 108.747 51.0334 108.375 49.4166 108.628C47.7999 108.881 46.34 109.74 45.3336 111.03C44.3271 112.321 43.8496 113.946 43.998 115.575C44.1464 117.205 44.9095 118.717 46.1324 119.804Z" fill="#6C63FF"/>
<path d="M57.5805 151.395C61.0987 151.866 72.1562 146.863 72.1562 146.863C72.1562 146.863 62.8054 139.126 59.2752 138.655C57.6431 138.543 56.0297 139.057 54.7625 140.092C53.4953 141.126 52.6692 142.604 52.452 144.225C52.2348 145.847 52.6427 147.49 53.5929 148.822C54.5432 150.153 55.9646 151.074 57.5685 151.395H57.5805Z" fill="#6C63FF"/>
<path d="M71.6287 173.345C75.014 174.408 86.7559 171.333 86.7559 171.333C86.7559 171.333 78.8501 162.131 75.4608 161.072C74.6379 160.751 73.7576 160.602 72.8747 160.635C71.9918 160.668 71.1252 160.883 70.3288 161.266C69.5325 161.648 68.8233 162.19 68.2454 162.859C67.6676 163.527 67.2334 164.307 66.9699 165.15C66.7064 165.994 66.6193 166.882 66.7139 167.761C66.8085 168.639 67.0828 169.489 67.5197 170.257C67.9567 171.024 68.547 171.694 69.2538 172.224C69.9607 172.754 70.7691 173.133 71.6287 173.337V173.345Z" fill="#6C63FF"/>
<path d="M73.9757 119.474C72.3655 122.646 62.0124 128.954 62.0124 128.954C62.0124 128.954 60.8974 116.878 62.4914 113.702C63.3199 112.293 64.6535 111.251 66.2217 110.788C67.7899 110.326 69.4754 110.477 70.9362 111.211C72.3971 111.945 73.524 113.208 74.0884 114.742C74.6529 116.277 74.6125 117.969 73.9757 119.474Z" fill="#6C63FF"/>
<path d="M90.0773 145.357C87.6057 147.905 75.8276 150.824 75.8276 150.824C75.8276 150.824 78.3757 138.957 80.8472 136.409C82.0591 135.307 83.6453 134.708 85.2832 134.734C86.9211 134.76 88.4875 135.409 89.6636 136.549C90.8397 137.69 91.5371 139.235 91.614 140.872C91.6908 142.508 91.1413 144.112 90.0773 145.357Z" fill="#6C63FF"/>
<path d="M102.273 172.657C100.26 175.588 89.1503 180.454 89.1503 180.454C89.1503 180.454 89.6615 168.33 91.6621 165.4C92.6738 164.123 94.1318 163.277 95.7424 163.032C97.353 162.787 98.9965 163.162 100.342 164.081C101.687 164.999 102.634 166.394 102.993 167.983C103.351 169.572 103.094 171.238 102.273 172.645V172.657Z" fill="#6C63FF"/>
<path d="M99.96 166.78C99.96 166.78 111.13 172.516 112.539 195.058C112.539 195.058 114.351 206.53 115.357 208.543C116.363 210.556 121.194 229.575 120.59 231.89C120.59 231.89 121.596 234.204 125.32 233.198C129.043 232.192 149.17 229.072 153.698 226.053L166.177 220.116C166.177 220.116 190.53 202.908 195.662 217.701C200.794 232.494 171.611 231.898 171.611 231.898L157.824 238.339L116.061 252.117C116.061 252.117 110.526 254.633 106.803 246.582C104.421 241.511 101.592 236.661 98.3499 232.091C98.3499 232.091 89.8967 208.342 89.9973 204.316C90.098 200.291 80.9403 190.731 80.9403 190.731C80.9403 190.731 79.1289 165.371 94.0226 165.875L99.96 166.78Z" fill="#FFC1C7"/>
<path opacity="0.03" d="M99.96 166.78C99.96 166.78 111.13 172.516 112.539 195.058C112.539 195.058 114.351 206.53 115.357 208.543C116.363 210.556 121.194 229.575 120.59 231.89C120.59 231.89 121.596 234.204 125.32 233.198C129.043 232.192 149.17 229.072 153.698 226.053L166.177 220.116C166.177 220.116 190.53 202.908 195.662 217.701C200.794 232.494 171.611 231.898 171.611 231.898L157.824 238.339L116.061 252.117C116.061 252.117 110.526 254.633 106.803 246.582C104.421 241.511 101.592 236.661 98.3499 232.091C98.3499 232.091 89.8967 208.342 89.9973 204.316C90.098 200.291 80.9403 190.731 80.9403 190.731C80.9403 190.731 79.1289 165.371 94.0226 165.875L99.96 166.78Z" fill="black"/>
<path d="M102.878 340.481L104.085 342.252L111.552 353.362L117.892 355.274L122.622 350.645L122.392 347.59L121.213 331.726C121.213 331.726 150.477 314.51 153.094 311.289C155.71 308.069 165.773 305.151 165.773 305.151C165.773 305.151 181.17 298.006 186.906 285.527C192.642 273.049 177.346 271.137 177.346 271.137L119.885 326.09L102.878 340.481Z" fill="#FFC1C7"/>
<path opacity="0.1" d="M104.065 342.248L111.532 353.358L117.872 355.27L122.602 350.641L122.372 347.586L117.167 352.05L107.406 340.678L104.065 342.248Z" fill="black"/>
<path d="M95.8342 346.921L114.049 363.928C114.049 363.928 124.515 365.941 133.873 364.532C139.855 363.63 138.704 360.35 137.13 358.092L137.102 358.051C136.159 356.76 134.781 355.853 133.221 355.499C125.477 353.631 122.804 348.024 122.804 348.024L117.168 352.855L107.407 341.479L100.19 344.868L95.8342 346.921Z" fill="#575988"/>
<path d="M95.8332 347.115L114.048 364.13C114.048 364.13 124.514 366.142 133.873 364.733C139.854 363.832 139.106 360.551 137.532 358.293C135.722 359.728 133.549 360.632 131.256 360.905C126.124 361.409 118.375 360.905 118.375 360.905L100.189 345.074L95.8332 347.115Z" fill="white"/>
<path d="M86.0034 167.694C86.0034 167.694 110.425 190.771 109.62 184.065C109.507 183.131 109.829 181.839 110.465 180.313C112.724 174.871 118.967 166.422 123.85 160.243C127.432 155.71 130.29 152.398 130.29 152.398C130.29 152.398 99.9592 126.905 102.374 141.396C102.878 144.701 102.418 148.08 101.05 151.13C98.0271 158.246 91.3289 163.846 87.9839 166.317C86.7763 167.207 86.0034 167.694 86.0034 167.694Z" fill="#FFC1C7"/>
<path opacity="0.1" d="M105.729 145.82C106.167 146.364 107.794 148.272 108.277 148.775C112.866 153.553 113.477 160.448 120.622 160.448C121.699 160.449 122.775 160.38 123.843 160.243C127.425 155.71 130.283 152.398 130.283 152.398C130.283 152.398 99.9604 126.905 102.376 141.396C102.947 144.834 107.005 142.809 105.729 145.82Z" fill="black"/>
<path d="M95.3991 134.416C95.3983 139.406 96.8773 144.284 99.6489 148.433C102.421 152.582 106.36 155.816 110.97 157.726C115.58 159.636 120.652 160.136 125.546 159.163C130.44 158.189 134.936 155.787 138.464 152.258C141.992 148.73 144.395 144.235 145.368 139.341C146.341 134.447 145.841 129.375 143.931 124.765C142.022 120.155 138.788 116.215 134.639 113.444C130.489 110.672 125.612 109.193 120.622 109.194C117.306 109.181 114.02 109.825 110.954 111.088C107.888 112.351 105.103 114.208 102.758 116.553C100.413 118.898 98.5561 121.683 97.293 124.749C96.03 127.815 95.3863 131.101 95.3991 134.416Z" fill="#FFC1C7"/>
<path opacity="0.1" d="M86.003 167.694C86.003 167.694 110.425 190.771 109.62 184.065C109.507 183.131 109.829 181.839 110.465 180.313L106.935 171.989C102.609 168.2 97.0623 166.099 91.3124 166.072C90.2661 166.071 89.2211 166.142 88.1847 166.285L87.9834 166.317C86.7758 167.207 86.003 167.694 86.003 167.694Z" fill="black"/>
<path d="M57.2914 336.758C57.2914 336.758 74.6003 364.395 74.6003 366.545C74.6003 366.545 94.1916 358.897 101.167 357.287C108.143 355.677 114.721 341.053 114.721 341.053C114.721 341.053 133.237 323.607 140.483 321.192C146.629 319.143 176.167 277.477 184.967 264.905C186.044 263.367 186.604 261.526 186.567 259.648C186.529 257.771 185.895 255.954 184.757 254.46L184.592 254.246C182.264 251.317 179.18 249.078 175.673 247.771C172.166 246.465 168.369 246.14 164.691 246.832C163.875 246.982 163.068 247.181 162.276 247.428C149.604 251.344 127.658 258.074 116.588 261.114C112.885 262.132 110.41 262.724 109.906 262.688C108.699 262.563 108.035 261.48 107.668 260.292C107.389 259.326 107.239 258.327 107.222 257.322C107.222 257.322 107.222 257.257 107.222 257.141C107.561 254.581 108.094 252.052 108.816 249.573C110.108 245.145 112.346 239.948 116.061 237.465C119.145 235.408 121.596 230.871 122.88 225.598C124.607 218.477 124.208 210.004 120.356 204.457L116.633 195.674L110.406 180.981L106.936 172.794C102.61 169.005 97.0634 166.904 91.3135 166.877C90.2673 166.876 89.2222 166.947 88.1858 167.09C85.517 167.46 83.2105 168.261 82.2484 169.839C79.2979 174.67 72.5876 183.525 71.2472 192.381C69.9068 201.237 71.5129 215.728 66.9522 221.098C62.3915 226.468 59.7066 239.345 54.8762 242.03C50.0458 244.714 62.6572 250.346 62.6572 250.346L62.6089 251.195L62.3915 254.911C62.3915 254.911 62.3029 255.011 62.1419 255.213C59.3322 258.69 33.9445 292.08 57.2914 336.758Z" fill="#C1BBEB"/>
<path d="M62.1215 255.212C67.4108 256.319 78.9796 258.73 84.14 259.789L85.0457 259.974C85.3476 260.035 85.6858 260.091 86.0521 260.143C91.2367 260.856 102.483 260.506 107.632 260.296C107.352 259.33 107.202 258.331 107.185 257.326C107.185 257.326 107.185 257.261 107.185 257.144C103.268 256.891 93.986 256.15 86.0319 254.516C85.3839 254.383 84.7438 254.242 84.1199 254.113C83.2182 253.904 82.3407 253.683 81.5035 253.449C74.3706 251.437 66.8392 251.171 62.5844 251.211L62.367 254.927C62.367 254.927 62.3026 255.011 62.1215 255.212Z" fill="#575988"/>
<path d="M84.1602 254.098V259.789L85.0659 259.975C85.3678 260.035 85.706 260.091 86.0723 260.144V254.532C85.4242 254.383 84.7842 254.243 84.1602 254.098Z" fill="#C1BBEB"/>
<path opacity="0.1" d="M79.2292 264.998C79.2292 264.998 89.997 289.653 96.5381 292.068C103.079 294.484 119.382 303.037 119.382 303.037C119.382 303.037 110.023 311.289 100.262 302.232C90.5001 293.175 76.4115 269.023 79.2292 264.998Z" fill="black"/>
<path opacity="0.1" d="M67.4555 261.685C67.4555 261.685 66.4492 271.044 67.858 272.755C69.2669 274.465 67.4555 261.685 67.4555 261.685Z" fill="black"/>
<path opacity="0.1" d="M61.6188 267.816C61.6188 267.816 56.1846 324.774 83.1543 325.076C83.1543 325.084 57.8954 300.019 61.6188 267.816Z" fill="black"/>
<path opacity="0.1" d="M54.7752 281.502C54.7752 281.502 47.0265 311.39 57.1904 314.812C57.1904 314.82 51.8569 299.322 54.7752 281.502Z" fill="black"/>
<path opacity="0.1" d="M102.978 273.854C103.481 273.854 123.909 277.376 119.482 280.194C115.054 283.012 102.978 273.854 102.978 273.854Z" fill="black"/>
<path opacity="0.1" d="M88.8896 233.508C88.8896 233.508 72.1845 248.301 75.4048 249.911L88.8896 233.508Z" fill="black"/>
<path opacity="0.1" d="M90.2988 238.238C90.2988 238.238 80.638 250.113 81.745 250.817L90.2988 238.238Z" fill="black"/>
<path opacity="0.1" d="M69.6689 236.418C69.6689 236.418 65.2411 241.953 65.9455 243.161L69.6689 236.418Z" fill="black"/>
<path opacity="0.1" d="M65.2412 233.508C65.2412 233.508 58.9013 238.431 60.3102 240.351L65.2412 233.508Z" fill="black"/>
<path d="M100.463 173.531C100.463 173.531 79.8331 175.141 80.7388 191.745C81.6445 208.35 97.0414 212.576 97.0414 212.576L117.067 206.84C117.067 206.84 108.111 174.637 100.463 173.531Z" fill="#FFC1C7"/>
<path opacity="0.1" d="M162.259 247.428C149.587 251.344 127.641 258.075 116.572 261.114C117.297 261.484 118.092 261.698 118.905 261.743C119.718 261.788 120.531 261.663 121.293 261.376L163.056 247.597L164.69 246.832C163.869 246.982 163.057 247.181 162.259 247.428Z" fill="black"/>
<path opacity="0.1" d="M91.5863 206.385C93.5466 209.002 95.2735 211.819 95.2091 213.582C95.1769 214.85 96.0141 218.083 97.1332 221.911C100.016 231.525 103.93 240.8 108.807 249.573C110.099 245.145 112.337 239.948 116.052 237.465C119.136 235.408 121.587 230.871 122.871 225.598C121.893 221.782 120.963 218.574 120.581 217.809C119.574 215.796 117.763 204.324 117.763 204.324C117.593 201.417 117.212 198.526 116.624 195.674C115.163 188.698 112.679 184 110.397 180.981C107.643 177.31 105.164 176.046 105.164 176.046L99.2263 175.141C92.3833 174.911 89.0825 180.116 87.4925 185.82C85.5443 192.908 87.1745 200.492 91.5863 206.385Z" fill="black"/>
<path d="M106.399 174.428C106.399 174.428 117.57 180.164 118.979 202.706C118.979 202.706 120.79 214.178 121.796 216.191C122.803 218.204 127.633 237.223 127.029 239.538C127.029 239.538 128.036 241.852 131.759 240.846C135.482 239.84 155.609 236.72 160.138 233.701L172.616 227.764C172.616 227.764 196.969 210.555 202.102 225.349C207.234 240.142 178.05 239.546 178.05 239.546L164.264 245.986L122.501 259.765C122.501 259.765 116.966 262.281 113.243 254.23C112.313 252.218 111.318 250.306 110.348 248.567C105.325 239.618 101.301 230.145 98.3488 220.317C97.2096 216.489 96.3925 213.256 96.4247 211.988C96.469 210.225 94.7381 207.404 92.8019 204.791C88.374 198.898 86.7639 191.314 88.7363 184.222C90.3263 178.518 93.6432 173.313 100.47 173.547L106.399 174.428Z" fill="#FFC1C7"/>
<path opacity="0.1" d="M95.3994 134.417C95.3911 140.932 97.9139 147.196 102.436 151.886C104.277 152.277 106.177 152.309 108.031 151.983C108.979 151.863 109.88 151.501 110.647 150.932C111.386 150.25 111.965 149.413 112.342 148.481C113.811 145.321 114.564 141.67 116.625 138.965C118.686 136.26 122.868 135.073 124.857 137.846C125.94 139.352 126.121 141.666 127.566 142.709C129.301 143.965 131.591 142.487 132.94 140.696C136.925 135.463 135.56 125.174 143.16 123.729L143.466 123.677C141.029 118.48 136.893 114.27 131.74 111.742C126.587 109.213 120.727 108.517 115.125 109.769C109.524 111.02 104.517 114.144 100.93 118.626C97.344 123.107 95.393 128.677 95.3994 134.417Z" fill="black"/>
<path d="M142.756 123.355C143.988 123.117 145.417 123.15 146.242 122.087C146.729 121.459 146.87 120.589 146.987 119.764C147.482 116.198 147.752 112.37 146.331 109.137C144 103.836 138.002 102.065 132.789 102.459C127.577 102.854 122.46 104.798 117.248 104.472C113.416 104.222 109.636 102.741 105.816 103.164C102.793 103.502 99.975 105.003 97.2579 106.537C94.7139 107.97 92.1136 109.512 90.3102 111.999C87.6616 115.642 87.1624 120.674 87.09 125.396C87.0014 130.939 87.3918 136.695 89.7185 141.573C93.0917 148.654 100.615 152.869 107.627 151.601C108.575 151.481 109.476 151.119 110.244 150.55C110.98 149.867 111.557 149.03 111.934 148.099C113.408 144.935 114.16 141.288 116.221 138.579C118.282 135.87 122.465 134.69 124.453 137.464C125.536 138.965 125.717 141.284 127.162 142.326C128.897 143.578 131.187 142.101 132.536 140.314C136.521 135.077 135.156 124.796 142.756 123.355Z" fill="#945B79"/>
<path d="M81.4995 111.653C77.6634 113.485 75.0026 117.051 72.5029 120.485C70.4218 123.339 68.2683 126.39 67.9945 129.908C67.8859 131.349 68.0992 132.814 67.8255 134.231C66.8634 139.235 60.5799 141.477 58.7443 146.243C57.891 148.489 58.1607 150.989 58.535 153.364C59.0732 156.799 59.7975 160.203 60.7047 163.56C61.2481 165.572 61.864 167.666 61.4494 169.71C61.1314 171.296 60.2418 172.689 59.5333 174.138C57.6857 178.047 57.3677 182.479 57.2268 186.798C57.0859 191.117 57.0899 195.513 55.7978 199.635C54.5056 203.757 51.6557 207.653 47.5459 208.986C48.9262 209.927 50.5264 210.495 52.1911 210.636C52.4366 211.984 51.6678 213.357 50.581 214.21C49.4941 215.064 48.1658 215.507 46.8696 215.929C47.7542 216.553 48.7714 216.964 49.8414 217.129C50.9114 217.294 52.005 217.208 53.0364 216.879C54.7552 216.316 56.1762 215.108 57.5488 213.925L65.2654 207.287C66.2963 206.452 67.2489 205.525 68.1113 204.517C73.1027 198.314 70.1239 188.915 72.9094 181.464C75.1797 175.406 81.2821 170.487 80.7226 164.043C80.5697 162.239 79.8773 160.533 79.2976 158.81C77.2417 152.559 76.596 145.931 77.4068 139.401C78.2176 132.871 80.4649 126.602 83.9871 121.044C84.8687 119.676 85.8911 118.299 87.3604 117.595C89.5944 116.528 92.7865 116.987 94.0545 114.857C94.7267 113.734 94.8595 111.758 94.9199 110.498C90.8221 109.56 85.3316 109.822 81.4995 111.653Z" fill="#945B79"/>
<path opacity="0.1" d="M87.0785 124.917C87.1952 129.453 87.8111 133.99 89.699 137.955C93.0722 145.035 100.596 149.25 107.608 147.982C108.555 147.862 109.456 147.5 110.224 146.931C110.961 146.248 111.538 145.411 111.915 144.48C113.388 141.316 114.141 137.669 116.202 134.96C118.263 132.251 122.445 131.071 124.434 133.845C125.516 135.346 125.698 137.665 127.143 138.707C128.878 139.959 131.168 138.482 132.516 136.695C136.501 131.462 135.137 121.169 142.737 119.728C143.968 119.491 145.397 119.523 146.223 118.46C146.71 117.832 146.851 116.963 146.967 116.137C147.104 115.167 147.221 114.177 147.289 113.183C147.429 115.38 147.321 117.587 146.967 119.76C146.851 120.585 146.71 121.455 146.223 122.083C145.397 123.146 143.968 123.113 142.737 123.351C135.137 124.792 136.501 135.073 132.516 140.318C131.172 142.085 128.894 143.562 127.143 142.33C125.698 141.288 125.532 138.969 124.434 137.468C122.445 134.694 118.263 135.878 116.202 138.583C114.141 141.288 113.384 144.939 111.915 148.103C111.538 149.034 110.961 149.871 110.224 150.554C109.456 151.123 108.555 151.485 107.608 151.605C100.596 152.873 93.0722 148.658 89.699 141.578C87.3724 136.699 86.9819 130.943 87.0705 125.4C87.0785 125.223 87.0785 125.062 87.0785 124.917Z" fill="black"/>
<path d="M60.7567 144.238C59.9033 146.484 60.173 148.984 60.5474 151.359C61.0858 154.792 61.8101 158.193 62.717 161.547C63.2604 163.56 63.8763 165.653 63.4617 167.698C63.1437 169.284 62.2541 170.677 61.5456 172.126C59.698 176.034 59.38 180.466 59.2391 184.785C59.0982 189.105 59.1023 193.5 57.8101 197.622C56.973 200.431 55.3734 202.953 53.1891 204.908C54.3431 203.362 55.2252 201.63 55.7975 199.788C57.0896 195.666 57.0896 191.27 57.2265 186.951C57.3633 182.632 57.6853 178.2 59.533 174.295C60.2253 172.834 61.1431 171.441 61.449 169.868C61.8516 167.823 61.2478 165.725 60.7043 163.713C59.7963 160.349 59.072 156.939 58.5347 153.497C58.1603 151.122 57.8906 148.618 58.744 146.372C59.4323 144.572 60.7567 143.151 62.1937 141.771C61.5919 142.515 61.1073 143.347 60.7567 144.238Z" fill="black"/>
<path d="M47.5462 209.147C48.6221 208.791 49.6335 208.264 50.541 207.585C51.68 208.177 52.925 208.538 54.2041 208.648C54.4496 209.996 53.6808 211.369 52.594 212.222C52.3779 212.396 52.1491 212.553 51.9097 212.693C52.1897 212.103 52.2838 211.442 52.1794 210.797C50.5196 210.651 48.9248 210.083 47.5462 209.147Z" fill="black"/>
<path d="M89.3856 115.614C90.9192 114.882 92.9037 114.866 94.4092 114.242C94.324 114.521 94.2093 114.791 94.067 115.047C92.799 117.172 89.6069 116.713 87.3729 117.784C87.0908 117.926 86.8215 118.091 86.5678 118.279C87.266 117.166 88.2356 116.249 89.3856 115.614Z" fill="black"/>
<path d="M50.1947 214.682C51.7369 215.339 53.464 215.421 55.0613 214.911C56.7801 214.348 58.201 213.14 59.5737 211.957L67.2902 205.319C67.6565 205.005 68.0188 204.687 68.373 204.365C68.2925 204.473 68.212 204.586 68.1235 204.695C67.2622 205.704 66.3095 206.631 65.2776 207.464L57.561 214.106C56.1884 215.285 54.7674 216.497 53.0486 217.061C52.0169 217.389 50.9231 217.474 49.8531 217.308C48.7831 217.143 47.7661 216.731 46.8818 216.107C48.0468 215.787 49.1617 215.308 50.1947 214.682Z" fill="black"/>
<path d="M74.5157 118.476C72.4346 121.33 70.2811 124.381 70.0074 127.9C69.8987 129.341 70.112 130.806 69.8383 132.223C69.4036 134.489 67.8699 136.192 66.1551 137.814C66.9838 136.82 67.5572 135.638 67.8256 134.372C68.0993 132.951 67.886 131.486 67.9947 130.045C68.2684 126.527 70.4099 123.476 72.5031 120.626C74.0166 118.545 75.5945 116.419 77.4502 114.656C76.4157 115.88 75.4536 117.184 74.5157 118.476Z" fill="black"/>
<path opacity="0.1" d="M92.1743 110.132C92.1743 110.132 94.5895 114.157 87.7465 117.51L87.344 116.435L92.1743 110.132Z" fill="black"/>
<path d="M92.5767 110.132C92.5767 110.132 94.9919 114.157 88.1488 117.51L87.7463 116.435L92.5767 110.132Z" fill="#C1BBEB"/>
<defs>
<linearGradient id="paint0_linear_679_45002" x1="352.1" y1="374.351" x2="352.1" y2="34.5747" gradientUnits="userSpaceOnUse">
<stop stop-color="#808080" stop-opacity="0.25"/>
<stop offset="0.54" stop-color="#808080" stop-opacity="0.12"/>
<stop offset="1" stop-color="#808080" stop-opacity="0.1"/>
</linearGradient>
</defs>
</svg>
