<svg width="813" height="584" viewBox="0 0 813 584" fill="none" xmlns="http://www.w3.org/2000/svg">
<path d="M760.945 96.3397H590.281C563.737 96.3397 542.219 117.826 542.219 144.331V533.752C542.219 560.257 563.737 581.744 590.281 581.744H760.945C787.489 581.744 809.006 560.257 809.006 533.752V144.331C809.006 117.826 787.489 96.3397 760.945 96.3397Z" fill="#3F3D56"/>
<path d="M804.066 144.697V533.387C804.052 544.897 799.474 555.933 791.336 564.072C783.197 572.212 772.163 576.79 760.653 576.804H590.573C579.063 576.79 568.029 572.212 559.89 564.072C551.751 555.933 547.173 544.897 547.16 533.387V144.697C547.173 133.187 551.751 122.151 559.89 114.012C568.029 105.872 579.063 101.294 590.573 101.28H612.814V108.964C612.814 112.442 614.196 115.778 616.655 118.238C619.114 120.697 622.45 122.079 625.928 122.079H725.298C728.776 122.079 732.111 120.697 734.571 118.238C737.03 115.778 738.412 112.442 738.412 108.964V101.28H760.653C772.163 101.294 783.197 105.872 791.336 114.012C799.474 122.151 804.052 133.187 804.066 144.697Z" fill="white"/>
<path d="M541.602 195.15C540.783 195.149 539.999 194.791 539.42 194.154C538.841 193.517 538.515 192.654 538.514 191.753V184.96C538.514 184.059 538.84 183.195 539.419 182.558C539.998 181.921 540.783 181.563 541.602 181.563C542.421 181.563 543.206 181.921 543.786 182.558C544.365 183.195 544.69 184.059 544.69 184.96V191.753C544.689 192.654 544.363 193.517 543.784 194.154C543.206 194.791 542.421 195.149 541.602 195.15Z" fill="#3F3D56"/>
<path d="M541.602 228.498C540.783 228.497 539.999 228.15 539.42 227.533C538.841 226.916 538.515 226.08 538.514 225.207V207.087C538.514 206.214 538.84 205.377 539.419 204.76C539.998 204.142 540.783 203.796 541.602 203.796C542.421 203.796 543.206 204.142 543.786 204.76C544.365 205.377 544.69 206.214 544.69 207.087V225.207C544.689 226.08 544.363 226.916 543.784 227.533C543.206 228.15 542.421 228.497 541.602 228.498Z" fill="#3F3D56"/>
<path d="M541.602 255.671C540.783 255.67 539.999 255.323 539.42 254.706C538.841 254.089 538.515 253.252 538.514 252.38V234.26C538.514 233.387 538.84 232.55 539.419 231.932C539.998 231.315 540.783 230.968 541.602 230.968C542.421 230.968 543.206 231.315 543.786 231.932C544.365 232.55 544.69 233.387 544.69 234.26V252.38C544.689 253.252 544.363 254.089 543.784 254.706C543.206 255.323 542.421 255.67 541.602 255.671Z" fill="#3F3D56"/>
<path d="M809.624 240.849C808.805 240.848 808.02 240.502 807.441 239.887C806.863 239.272 806.537 238.438 806.536 237.568V193.49C806.536 192.62 806.861 191.786 807.44 191.17C808.019 190.555 808.805 190.209 809.624 190.209C810.443 190.209 811.228 190.555 811.807 191.17C812.386 191.786 812.712 192.62 812.712 193.49V237.568C812.711 238.438 812.385 239.272 811.806 239.887C811.227 240.502 810.442 240.848 809.624 240.849Z" fill="#3F3D56"/>
<path d="M682.286 111.161H657.823C657.3 111.161 656.798 110.966 656.428 110.619C656.058 110.271 655.85 109.8 655.85 109.309C655.85 108.817 656.058 108.346 656.428 107.999C656.798 107.651 657.3 107.456 657.823 107.456H682.286C682.809 107.456 683.311 107.651 683.681 107.999C684.051 108.346 684.258 108.817 684.258 109.309C684.258 109.8 684.051 110.271 683.681 110.619C683.311 110.966 682.809 111.161 682.286 111.161Z" fill="white"/>
<path d="M695.992 111.161C697.015 111.161 697.845 110.332 697.845 109.309C697.845 108.285 697.015 107.456 695.992 107.456C694.969 107.456 694.139 108.285 694.139 109.309C694.139 110.332 694.969 111.161 695.992 111.161Z" fill="white"/>
<path d="M603.508 119.807H580.975C579.868 119.807 578.807 119.417 578.025 118.722C577.242 118.027 576.802 117.085 576.802 116.102C576.802 115.119 577.242 114.177 578.025 113.482C578.807 112.787 579.868 112.396 580.975 112.396H603.508C604.614 112.396 605.676 112.787 606.458 113.482C607.241 114.177 607.681 115.119 607.681 116.102C607.681 117.085 607.241 118.027 606.458 118.722C605.676 119.417 604.614 119.807 603.508 119.807Z" fill="#E6E6E6"/>
<path d="M686.428 291.49H664.796C663.734 291.49 662.715 291.034 661.964 290.223C661.213 289.413 660.791 288.313 660.791 287.167C660.791 286.02 661.213 284.921 661.964 284.11C662.715 283.299 663.734 282.844 664.796 282.844H686.428C687.49 282.844 688.509 283.299 689.26 284.11C690.012 284.921 690.434 286.02 690.434 287.167C690.434 288.313 690.012 289.413 689.26 290.223C688.509 291.034 687.49 291.49 686.428 291.49Z" fill="#E6E6E6"/>
<path d="M747.25 119.807C749.296 119.807 750.955 118.148 750.955 116.102C750.955 114.055 749.296 112.396 747.25 112.396C745.204 112.396 743.545 114.055 743.545 116.102C743.545 118.148 745.204 119.807 747.25 119.807Z" fill="#E6E6E6"/>
<path d="M759.602 119.807C761.648 119.807 763.307 118.148 763.307 116.102C763.307 114.055 761.648 112.396 759.602 112.396C757.555 112.396 755.896 114.055 755.896 116.102C755.896 118.148 757.555 119.807 759.602 119.807Z" fill="#E6E6E6"/>
<path d="M770.718 119.807C772.764 119.807 774.423 118.148 774.423 116.102C774.423 114.055 772.764 112.396 770.718 112.396C768.671 112.396 767.012 114.055 767.012 116.102C767.012 118.148 768.671 119.807 770.718 119.807Z" fill="#E6E6E6"/>
<path d="M746.072 348.305H594.037C590.123 348.301 586.37 346.755 583.602 344.007C580.834 341.258 579.277 337.532 579.273 333.645V318.501C579.277 314.614 580.834 310.888 583.602 308.139C586.37 305.391 590.123 303.845 594.037 303.841H746.072C749.986 303.845 753.739 305.391 756.507 308.14C759.275 310.888 760.832 314.614 760.836 318.501V333.645C760.832 337.532 759.275 341.258 756.507 344.007C753.739 346.755 749.986 348.301 746.072 348.305ZM594.037 305.458C590.555 305.462 587.216 306.837 584.753 309.282C582.291 311.728 580.905 315.043 580.901 318.501V333.645C580.905 337.103 582.291 340.418 584.753 342.864C587.216 345.309 590.555 346.684 594.037 346.688H746.072C749.555 346.684 752.894 345.309 755.356 342.864C757.819 340.419 759.204 337.103 759.208 333.645V318.501C759.204 315.043 757.819 311.728 755.356 309.282C752.894 306.837 749.555 305.462 746.072 305.458H594.037Z" fill="#E6E6E6"/>
<path d="M686.428 405.121H664.796C663.734 405.121 662.715 404.666 661.964 403.855C661.213 403.044 660.791 401.945 660.791 400.798C660.791 399.652 661.213 398.552 661.964 397.741C662.715 396.931 663.734 396.475 664.796 396.475H686.428C687.49 396.475 688.509 396.931 689.26 397.741C690.012 398.552 690.434 399.652 690.434 400.798C690.434 401.945 690.012 403.044 689.26 403.855C688.509 404.666 687.49 405.121 686.428 405.121Z" fill="#E6E6E6"/>
<path d="M691.837 523.693H659.395C658.606 523.694 657.824 523.535 657.094 523.225C656.364 522.915 655.701 522.46 655.143 521.887C654.584 521.313 654.141 520.632 653.838 519.882C653.536 519.133 653.38 518.329 653.38 517.517C653.38 516.706 653.536 515.902 653.838 515.152C654.141 514.403 654.584 513.722 655.143 513.148C655.701 512.574 656.364 512.12 657.094 511.81C657.824 511.5 658.606 511.341 659.395 511.342H691.837C693.431 511.342 694.959 511.992 696.085 513.151C697.212 514.309 697.845 515.88 697.845 517.517C697.845 519.155 697.212 520.726 696.085 521.884C694.959 523.042 693.431 523.693 691.837 523.693Z" fill="#2193B0"/>
<path d="M746.072 461.937H594.037C590.123 461.932 586.37 460.386 583.602 457.638C580.834 454.89 579.277 451.163 579.273 447.277V432.132C579.277 428.246 580.834 424.519 583.602 421.771C586.37 419.023 590.123 417.477 594.037 417.472H746.072C749.986 417.477 753.739 419.023 756.507 421.771C759.275 424.519 760.832 428.246 760.836 432.132V447.277C760.832 451.163 759.275 454.89 756.507 457.638C753.739 460.386 749.986 461.932 746.072 461.937ZM594.037 419.089C590.555 419.093 587.216 420.469 584.753 422.914C582.291 425.359 580.905 428.674 580.901 432.132V447.277C580.905 450.735 582.291 454.05 584.753 456.495C587.216 458.94 590.555 460.316 594.037 460.32H746.072C749.555 460.316 752.894 458.941 755.356 456.495C757.819 454.05 759.204 450.735 759.208 447.277V432.132C759.204 428.674 757.819 425.359 755.356 422.914C752.894 420.469 749.555 419.093 746.072 419.089H594.037Z" fill="#E6E6E6"/>
<path d="M774.422 254.436H576.802V255.671H774.422V254.436Z" fill="#E6E6E6"/>
<path d="M634.242 321.513L537.12 355.852C534.719 356.698 532.08 356.556 529.783 355.459C527.486 354.362 525.717 352.398 524.866 349.999L508.182 302.81C507.336 300.409 507.477 297.77 508.574 295.473C509.671 293.175 511.635 291.407 514.034 290.555L611.156 256.217C613.557 255.371 616.196 255.512 618.493 256.609C620.791 257.707 622.559 259.67 623.41 262.07L640.095 309.259C640.941 311.66 640.799 314.299 639.702 316.596C638.605 318.894 636.641 320.662 634.242 321.513Z" fill="#2193B0"/>
<path d="M619.079 269.886C612.642 274.122 604.391 270.934 601.505 266.291L601.965 266.029C607.446 262.613 615.585 264.516 619.079 269.886Z" fill="white"/>
<path d="M611.733 313.53C611.063 313.808 610.342 313.945 609.617 313.932C608.891 313.919 608.176 313.756 607.516 313.454C604.752 312.081 603.455 308.009 602.413 304.737C602.11 303.785 601.823 302.886 601.532 302.151L601.528 302.14C601.02 300.682 601.109 299.083 601.773 297.69C602.438 296.297 603.626 295.222 605.078 294.7L618.142 290.081C618.812 289.803 619.531 289.666 620.256 289.679C620.981 289.692 621.696 289.855 622.355 290.157C625.118 291.528 626.416 295.599 627.459 298.869C627.763 299.823 628.05 300.724 628.343 301.46C628.853 302.919 628.767 304.521 628.102 305.917C627.437 307.312 626.248 308.389 624.794 308.912L611.733 313.53Z" fill="white"/>
<path d="M531.682 326.525C531.449 326.617 531.196 326.645 530.948 326.603C530.701 326.562 530.47 326.455 530.279 326.292C530.056 326.097 529.887 325.848 529.788 325.569C529.689 325.289 529.664 324.989 529.715 324.697C529.762 324.446 529.878 324.213 530.049 324.023C530.221 323.834 530.442 323.695 530.687 323.624L535.659 321.866C535.895 321.768 536.153 321.737 536.406 321.777C536.658 321.817 536.894 321.925 537.089 322.091C537.312 322.286 537.481 322.535 537.58 322.815C537.678 323.094 537.704 323.394 537.653 323.686C537.605 323.937 537.488 324.169 537.317 324.359C537.145 324.548 536.925 324.686 536.68 324.758L531.708 326.516L531.682 326.525Z" fill="white"/>
<path d="M529.042 337.807C528.605 337.888 528.155 337.849 527.739 337.693C527.323 337.538 526.957 337.272 526.681 336.924C526.359 336.509 526.15 336.018 526.073 335.499C525.996 334.979 526.054 334.448 526.242 333.958C526.409 333.537 526.69 333.171 527.053 332.899C527.416 332.628 527.847 332.463 528.298 332.422L546.817 326.207C547.261 326.117 547.721 326.151 548.146 326.306C548.571 326.461 548.946 326.73 549.228 327.084C549.549 327.5 549.759 327.991 549.835 328.51C549.912 329.03 549.854 329.56 549.666 330.051C549.497 330.47 549.216 330.836 548.853 331.106C548.491 331.377 548.061 331.542 547.61 331.584L529.09 337.799L529.042 337.807Z" fill="white"/>
<path d="M627.043 272.342L512.143 312.966L512.337 313.515L627.237 272.891L627.043 272.342Z" fill="white"/>
<path d="M608.773 303.892C610.579 303.892 612.042 302.428 612.042 300.623C612.042 298.818 610.579 297.354 608.773 297.354C606.968 297.354 605.505 298.818 605.505 300.623C605.505 302.428 606.968 303.892 608.773 303.892Z" fill="#2193B0"/>
<path d="M619.397 304.709C620.751 304.709 621.848 303.611 621.848 302.257C621.848 300.903 620.751 299.806 619.397 299.806C618.043 299.806 616.945 300.903 616.945 302.257C616.945 303.611 618.043 304.709 619.397 304.709Z" fill="#2193B0"/>
<path d="M617.24 560.628C616.777 560.65 616.319 560.527 615.927 560.277C615.535 560.026 615.23 559.661 615.051 559.229C614.872 558.798 614.829 558.321 614.928 557.864C615.026 557.407 615.262 556.991 615.602 556.674L615.757 556.052C615.736 556.003 615.716 555.953 615.695 555.903C615.229 554.791 614.447 553.843 613.449 553.178C612.451 552.513 611.28 552.16 610.084 552.165C608.888 552.169 607.72 552.531 606.726 553.203C605.733 553.876 604.958 554.83 604.5 555.945C602.669 560.397 600.338 564.856 599.764 569.563C599.511 571.644 599.618 573.753 600.079 575.797C595.779 566.327 593.546 556.034 593.531 545.616C593.531 543.002 593.674 540.389 593.962 537.791C594.2 535.661 594.531 533.547 594.953 531.447C597.258 520.055 602.207 509.378 609.393 500.292C612.871 498.376 615.684 495.43 617.453 491.851C618.093 490.564 618.546 489.19 618.797 487.773C618.405 487.825 617.317 481.792 617.613 481.422C617.067 480.585 616.088 480.168 615.491 479.351C612.521 475.286 608.429 475.996 606.293 481.52C601.73 483.845 601.685 487.701 604.485 491.409C606.267 493.768 606.511 496.961 608.075 499.487C607.914 499.695 607.746 499.896 607.586 500.104C604.646 503.92 602.084 508.017 599.936 512.337C600.459 507.497 599.835 502.601 598.118 498.052C596.377 493.812 593.113 490.241 590.24 486.576C586.788 482.173 579.71 484.095 579.102 489.676C579.096 489.73 579.091 489.784 579.085 489.838C579.512 490.081 579.93 490.339 580.338 490.612C580.852 490.958 581.25 491.453 581.48 492.032C581.71 492.61 581.762 493.245 581.628 493.854C581.495 494.463 581.182 495.017 580.731 495.443C580.281 495.869 579.713 496.148 579.102 496.243L579.04 496.253C579.192 497.806 579.461 499.345 579.844 500.857C576.158 515.249 584.116 520.491 595.48 520.727C595.731 520.857 595.976 520.986 596.227 521.11C594.069 527.283 592.715 533.714 592.2 540.239C591.908 544.089 591.926 547.957 592.252 551.804L592.232 551.668C591.409 547.39 589.148 543.53 585.832 540.739C580.907 536.655 573.949 535.151 568.635 531.868C568.071 531.502 567.414 531.307 566.743 531.305C566.072 531.303 565.415 531.495 564.848 531.859C564.282 532.222 563.83 532.741 563.546 533.355C563.263 533.969 563.159 534.652 563.247 535.323C563.254 535.371 563.261 535.419 563.268 535.467C564.06 535.792 564.832 536.167 565.578 536.59C566.004 536.833 566.422 537.091 566.831 537.364C567.345 537.71 567.742 538.205 567.973 538.784C568.203 539.362 568.254 539.998 568.121 540.607C567.987 541.215 567.675 541.769 567.224 542.195C566.773 542.622 566.205 542.901 565.595 542.996L565.532 543.005C565.487 543.012 565.449 543.018 565.404 543.025C566.757 546.287 568.657 549.29 571.019 551.901C573.324 564.465 583.224 565.657 593.815 561.999H593.821C594.983 567.096 596.666 572.058 598.844 576.803H616.79C616.854 576.602 616.912 576.394 616.97 576.193C615.309 576.298 613.641 576.198 612.005 575.894C613.336 574.245 614.667 572.583 615.999 570.933C616.029 570.903 616.057 570.87 616.083 570.836C616.758 569.992 617.44 569.154 618.115 568.31L618.115 568.309C618.151 565.722 617.857 563.14 617.24 560.628Z" fill="#C1BBEB"/>
<path d="M186.012 470.365C184.969 468.606 180.458 470.489 179.629 468.893C178.802 467.303 182.994 464.88 185.388 459.346C185.82 458.348 188.542 452.058 186.527 450.117C182.708 446.439 165.234 461.62 159.119 456.652C157.777 455.562 156.839 453.385 152.777 449.851C151.161 448.446 150.184 447.811 149.239 448.047C147.897 448.382 147.791 450.178 146.352 453.709C144.194 459.004 142.918 458.684 141.661 462.909C140.727 466.046 140.94 467.869 139.842 468.224C138.288 468.727 136.858 465.4 134.888 465.698C132.878 466.002 131.663 469.875 131.279 472.775C130.559 478.217 132.558 481.808 133.666 485.584C134.869 489.688 135.584 495.928 132.804 504.763L105.289 582.287C111.363 566.379 128.952 522.772 136.342 506.567C138.476 501.889 140.832 497.144 145.669 495.272C150.326 493.469 156.722 494.545 164.875 492.581C165.828 492.351 168.47 491.679 168.803 490.125C169.078 488.84 167.523 488.123 167.762 486.919C168.083 485.305 171.139 485.285 174.896 483.422C177.544 482.109 179.194 480.547 180.613 479.204C181.041 478.799 187.4 472.705 186.012 470.365Z" fill="#F2F2F2"/>
<path d="M77.76 511.177C76.5961 511.181 76.2186 513.938 75.196 513.885C74.1771 513.832 74.1975 511.076 72.1721 508.303C71.8068 507.803 69.5051 504.653 67.9712 505.082C65.0639 505.895 67.4728 518.851 63.2701 520.419C62.3478 520.764 61.009 520.596 58.1027 521.57C56.9465 521.957 56.3531 522.254 56.1961 522.786C55.9734 523.541 56.8241 524.112 58.142 525.836C60.1184 528.423 59.5932 528.958 61.304 530.794C62.5741 532.157 63.5305 532.578 63.388 533.219C63.1863 534.127 61.1409 533.87 60.7188 534.922C60.2881 535.996 61.8385 537.71 63.1511 538.735C65.6143 540.659 67.9534 540.714 70.1263 541.26C72.4877 541.853 75.7567 543.303 79.2906 547.217L109.401 583.089C103.346 575.518 87.0182 554.303 81.1972 546C79.5168 543.604 77.8677 541.078 78.3443 538.164C78.803 535.358 81.1767 532.529 82.5653 527.961C82.7275 527.427 83.1599 525.936 82.4931 525.324C81.9417 524.819 81.1412 525.375 80.6194 524.91C79.9195 524.287 80.7918 522.781 80.9614 520.4C81.0811 518.721 80.7906 517.461 80.5408 516.377C80.4655 516.05 79.3094 511.171 77.76 511.177Z" fill="#F2F2F2"/>
<path d="M100.98 516.389L100.279 510.129L100.599 509.654C102.082 507.46 102.838 505.317 102.847 503.283C102.848 502.959 102.833 502.636 102.818 502.306C102.758 501.001 102.682 499.378 103.528 497.485C104.003 496.431 105.336 493.988 107.34 494.291C107.879 494.366 108.287 494.614 108.597 494.904C108.643 494.832 108.689 494.759 108.739 494.68C109.363 493.728 109.858 493.32 110.334 492.927C110.699 492.625 111.077 492.314 111.67 491.576C111.93 491.253 112.132 490.969 112.303 490.73C112.821 490.008 113.498 489.146 114.692 489.161C115.968 489.222 116.636 490.277 117.079 490.975C117.869 492.22 118.227 493.118 118.465 493.713C118.551 493.931 118.649 494.176 118.699 494.251C119.11 494.856 122.451 494.29 123.71 494.085C126.538 493.613 128.985 493.205 129.993 494.989C130.715 496.264 130.179 497.951 128.35 500.136C127.78 500.816 127.174 501.333 126.636 501.738C127.082 502.004 127.481 502.412 127.643 503.053C128.024 504.57 126.719 506.091 123.768 507.578C123.035 507.95 122.048 508.445 120.665 508.684C120.014 508.796 119.427 508.823 118.926 508.838C118.915 509.129 118.847 509.443 118.67 509.766C118.152 510.718 117.073 511.172 115.447 511.063C113.657 510.969 112.184 510.628 110.884 510.329C109.749 510.069 108.771 509.848 108.003 509.899C106.58 510.014 105.482 511.154 104.195 512.632L100.98 516.389Z" fill="#F2F2F2"/>
<path d="M104.233 479.118L98.3557 481.384L97.8154 481.194C95.3167 480.317 93.0521 480.129 91.0821 480.637C90.7688 480.717 90.4598 480.814 90.145 480.912C88.8973 481.302 87.3464 481.787 85.3014 481.448C84.1607 481.256 81.4602 480.586 81.2442 478.571C81.1805 478.03 81.3167 477.573 81.5188 477.199C81.4371 477.174 81.3551 477.147 81.2664 477.119C80.1871 476.757 79.6671 476.382 79.1662 476.021C78.781 475.744 78.3841 475.458 77.5204 475.072C77.1416 474.902 76.8154 474.778 76.5411 474.674C75.7109 474.356 74.7059 473.919 74.4177 472.76C74.1526 471.511 75.0036 470.598 75.5666 469.992C76.5707 468.912 77.3482 468.337 77.864 467.957C78.0527 467.818 78.2646 467.661 78.325 467.594C78.8055 467.043 77.4112 463.954 76.8931 462.788C75.7197 460.173 74.7044 457.91 76.1738 456.482C77.2243 455.46 78.9919 455.551 81.5696 456.766C82.372 457.144 83.0257 457.599 83.5539 458.017C83.6981 457.518 83.9916 457.029 84.5705 456.71C85.9416 455.957 87.7431 456.833 89.9302 459.31C90.4758 459.925 91.2056 460.754 91.7873 462.031C92.0607 462.633 92.2358 463.193 92.3777 463.675C92.6611 463.611 92.9824 463.597 93.3401 463.686C94.3925 463.946 95.1048 464.875 95.412 466.476C95.7753 468.23 95.8186 469.742 95.8589 471.075C95.8953 472.239 95.9299 473.241 96.1743 473.97C96.6466 475.318 98.0271 476.091 99.7835 476.961L104.233 479.118Z" fill="#F2F2F2"/>
<path d="M100.98 460.676L100.279 454.416L100.599 453.942C102.082 451.747 102.838 449.604 102.847 447.57C102.848 447.247 102.833 446.923 102.818 446.594C102.758 445.288 102.682 443.665 103.528 441.773C104.003 440.718 105.336 438.276 107.34 438.578C107.879 438.653 108.287 438.901 108.597 439.191C108.643 439.119 108.689 439.046 108.739 438.968C109.363 438.016 109.858 437.608 110.334 437.215C110.699 436.912 111.077 436.601 111.67 435.864C111.93 435.54 112.132 435.256 112.303 435.017C112.821 434.295 113.498 433.433 114.692 433.449C115.968 433.509 116.636 434.564 117.079 435.262C117.869 436.507 118.227 437.405 118.465 438.001C118.551 438.218 118.649 438.463 118.699 438.539C119.11 439.143 122.451 438.578 123.71 438.372C126.538 437.901 128.985 437.493 129.993 439.276C130.715 440.552 130.179 442.238 128.35 444.424C127.78 445.104 127.174 445.621 126.636 446.026C127.082 446.292 127.481 446.7 127.643 447.34C128.024 448.858 126.719 450.378 123.768 451.865C123.035 452.237 122.048 452.733 120.665 452.972C120.014 453.083 119.427 453.111 118.926 453.126C118.915 453.416 118.847 453.73 118.67 454.054C118.152 455.006 117.073 455.459 115.447 455.35C113.657 455.257 112.184 454.915 110.884 454.616C109.749 454.356 108.771 454.135 108.003 454.187C106.58 454.302 105.482 455.441 104.195 456.919L100.98 460.676Z" fill="#F2F2F2"/>
<path d="M107.385 582.185L106.074 581.363L104.544 581.538C104.52 581.396 104.437 581.069 104.311 580.559C103.627 577.76 101.54 569.242 99.7986 555.828C98.5835 546.464 97.8958 536.837 97.7538 527.21C97.6117 517.568 98.0681 510.268 98.4339 504.401C98.7104 499.976 99.046 495.762 99.3754 491.658C100.252 480.692 101.079 470.333 100.464 458.865C100.328 456.305 100.042 450.976 96.9286 445.306C95.1226 442.017 92.635 439.098 89.5338 436.631L91.4622 434.207C94.8853 436.933 97.6374 440.168 99.6429 443.819C103.095 450.106 103.406 455.912 103.556 458.702C104.181 470.373 103.346 480.831 102.46 491.903C102.134 495.992 101.798 500.188 101.523 504.595C101.16 510.407 100.708 517.643 100.849 527.161C100.988 536.673 101.668 546.183 102.867 555.429C104.586 568.674 106.643 577.065 107.319 579.821C107.679 581.293 107.754 581.602 107.385 582.185Z" fill="#F2F2F2"/>
<path d="M83.8573 441.549C83.7303 441.549 83.6019 441.546 83.4719 441.537C80.8362 441.395 78.3954 439.817 76.2161 436.849C75.1945 435.453 74.6716 433.86 73.6288 430.683C73.4671 430.193 72.6812 427.709 72.2036 424.29C71.8907 422.056 71.9301 421.122 72.3729 420.297C72.8641 419.378 73.659 418.738 74.5537 418.305C74.5144 418.009 74.5461 417.704 74.6746 417.392C75.202 416.102 76.6045 416.271 77.3632 416.353C77.7471 416.401 78.2262 416.465 78.7431 416.437C79.5561 416.398 79.9929 416.156 80.6548 415.793C81.2881 415.446 82.0755 415.014 83.2437 414.775C85.5469 414.294 87.4769 414.947 88.1131 415.162C91.4606 416.277 93.111 418.88 95.0213 421.893C95.4021 422.498 96.7094 424.698 97.5723 427.715C98.195 429.891 98.1074 430.858 97.9199 431.578C97.5391 433.056 96.6399 433.902 94.3563 435.77C91.9714 437.726 90.7745 438.705 89.7468 439.3C87.3544 440.682 85.8522 441.549 83.8573 441.549Z" fill="#F2F2F2"/>
<path d="M228.841 576.888L236.947 576.887L240.803 545.623L228.84 545.624L228.841 576.888Z" fill="#FFB6B6"/>
<path d="M256.612 576.704C256.864 577.129 256.997 578.501 256.997 578.995C256.997 580.514 255.766 581.746 254.246 581.746H229.145C228.108 581.746 227.268 580.906 227.268 579.869V578.824C227.268 578.824 226.026 575.683 228.583 571.812C228.583 571.812 231.76 574.843 236.508 570.095L237.908 567.559L248.043 574.971L253.661 575.662C254.89 575.814 255.98 575.639 256.612 576.704Z" fill="#2F2E41"/>
<path d="M204.139 576.888L212.244 576.887L216.1 545.623L204.137 545.624L204.139 576.888Z" fill="#FFB6B6"/>
<path d="M231.909 576.704C232.162 577.129 232.295 578.501 232.295 578.995C232.295 580.514 231.063 581.746 229.544 581.746H204.442C203.406 581.746 202.566 580.906 202.566 579.869V578.824C202.566 578.824 201.324 575.683 203.881 571.812C203.881 571.812 207.058 574.843 211.806 570.095L213.206 567.559L223.341 574.971L228.958 575.662C230.188 575.814 231.277 575.639 231.909 576.704Z" fill="#2F2E41"/>
<path d="M238.205 441.872L246.851 475.353L242.528 561.33L222.148 562.694L220.913 513.201L218.443 564.149L197.446 559.782L196.211 447.695L238.205 441.872Z" fill="#2F2E41"/>
<path d="M154.508 329.146C151.718 324.251 146.931 321.722 143.816 323.498C140.701 325.274 140.438 330.681 143.229 335.578C144.318 337.549 145.862 339.231 147.733 340.483L159.815 361.075L169.358 355.2L156.434 335.523C156.311 333.274 155.65 331.087 154.508 329.146Z" fill="#FFB6B6"/>
<path d="M209.414 401.84C209.414 401.84 197.964 417.623 190.961 411.983C183.957 406.343 145.264 342.947 145.264 342.947L160.619 334.717L209.414 401.84Z" fill="#2193B0"/>
<path d="M198.682 382.586L213.503 360.354L228.325 366.529L224.619 386.291L198.682 382.586Z" fill="#FFB6B6"/>
<path d="M199.916 377.646L225.854 376.41L243.146 381.351L246.851 472.75L194.976 467.81V419.611L187.565 394.937L199.916 377.646Z" fill="#2193B0"/>
<path d="M242.723 439.299C241.811 436.64 241.448 433.834 241.683 431.033C242.347 423.131 242.472 407.647 234.417 400.652L229.867 395.723C229.773 395.621 229.666 395.533 229.57 395.433L237.098 377.739L232.55 375.806L225.563 392.228C222.465 390.343 218.89 389.298 215.193 389.298C210.923 389.298 206.841 390.691 203.468 393.143L199.207 377.532L194.44 378.833L199.768 396.637C199.574 396.873 199.363 397.09 199.179 397.337L196.576 400.83C195.942 401.68 195.243 402.471 194.485 403.213C192.887 404.777 189.77 408.577 189.74 414.426C189.729 416.427 189.318 418.405 188.709 420.31L185.615 429.979C185.324 430.887 185.096 431.811 184.941 432.751C183.577 441.03 178.856 480.035 211.127 479.255C241.211 478.527 243.191 460.209 243.016 454.124C242.978 452.805 243.096 451.495 243.343 450.197C243.794 447.817 244.2 443.606 242.723 439.299Z" fill="#3F3D56"/>
<path d="M378.627 44.485L381.44 87.9202L346.065 96.0372L348.529 60.9178L378.627 44.485Z" fill="#FFB6B6"/>
<path d="M381.32 572.367L365.375 572.365L357.79 510.861L381.323 510.862L381.32 572.367Z" fill="#FFB6B6"/>
<path d="M326.69 572.005C326.193 572.841 325.931 575.54 325.931 576.512C325.931 579.501 328.354 581.924 331.343 581.924H380.724C382.763 581.924 384.416 580.271 384.416 578.232V576.176C384.416 576.176 386.859 569.997 381.829 562.381C381.829 562.381 375.579 568.345 366.238 559.004L363.484 554.014L343.546 568.596L332.495 569.956C330.077 570.254 327.933 569.91 326.69 572.005Z" fill="#2F2E41"/>
<path d="M424.55 572.367L408.605 572.365L401.019 510.861L424.553 510.862L424.55 572.367Z" fill="#FFB6B6"/>
<path d="M369.919 572.005C369.423 572.841 369.161 575.54 369.161 576.512C369.161 579.501 371.584 581.924 374.573 581.924H423.954C425.993 581.924 427.646 580.271 427.646 578.232V576.176C427.646 576.176 430.088 569.997 425.059 562.381C425.059 562.381 418.808 568.345 409.468 559.004L406.714 554.014L386.776 568.596L375.724 569.956C373.307 570.254 371.163 569.91 369.919 572.005Z" fill="#2F2E41"/>
<path d="M434.591 280.071C434.591 280.071 448.177 297.362 445.707 307.243C443.237 317.124 425.945 544.387 425.945 544.387L401.242 543.152L386.421 339.357L382.608 544.387L359.248 543.152L329.605 288.717L434.591 280.071Z" fill="#2F2E41"/>
<path d="M291.777 335.205C289.441 344.157 282.928 350.209 277.231 348.721C271.534 347.234 268.811 338.772 271.149 329.817C272.033 326.227 273.765 322.901 276.199 320.117L286.574 282.311L304.212 287.558L292.111 324.271C292.874 327.89 292.76 331.639 291.777 335.205Z" fill="#FFB6B6"/>
<path d="M349.892 80.5297C369.383 80.5297 385.184 64.7287 385.184 45.2372C385.184 25.7457 369.383 9.9447 349.892 9.9447C330.4 9.9447 314.599 25.7457 314.599 45.2372C314.599 64.7287 330.4 80.5297 349.892 80.5297Z" fill="#FFB6B6"/>
<path d="M345.661 89.8613L382.715 82.4505L423.474 103.448L432.12 238.076L443.236 288.716L328.369 289.952L333.31 222.02L325.899 114.564L345.661 89.8613Z" fill="#E6E6E6"/>
<path d="M337.016 118.269C337.016 118.269 317.254 112.094 309.843 123.21C302.432 134.326 288.846 234.371 288.846 234.371L275.259 309.714L299.962 313.419L340.721 181.261L337.016 118.269Z" fill="#E6E6E6"/>
<path d="M516.767 291.904C520.794 300.234 519.759 309.063 514.458 311.625C509.156 314.187 501.596 309.511 497.569 301.177C495.915 297.871 495.077 294.216 495.125 290.519L478.51 255.01L495.339 247.568L509.932 283.364C512.86 285.624 515.203 288.552 516.767 291.904Z" fill="#FFB6B6"/>
<path d="M408.005 104.728C408.005 104.728 425.752 94.0651 435.576 103.119C445.4 112.174 482.203 206.19 482.203 206.19L513.179 276.202L490.048 285.63L419.263 166.816L408.005 104.728Z" fill="#E6E6E6"/>
<path d="M276.334 339.097C278.538 333.912 283 330.846 286.3 332.249C289.6 333.653 290.487 338.993 288.281 344.18C287.429 346.264 286.089 348.113 284.375 349.574L274.759 371.426L264.6 366.694L275.159 345.654C275.021 343.406 275.424 341.158 276.334 339.097Z" fill="#FFB6B6"/>
<path d="M212.103 376.769C224.649 376.769 234.82 366.598 234.82 354.051C234.82 341.505 224.649 331.334 212.103 331.334C199.556 331.334 189.385 341.505 189.385 354.051C189.385 366.598 199.556 376.769 212.103 376.769Z" fill="#FFB6B6"/>
<path d="M240.676 381.351L262.908 372.705L270.319 346.767L286.375 352.943L274.024 389.997L240.676 402.737V381.351Z" fill="#2193B0"/>
<path d="M209.115 379.31L222.664 368.286C222.664 368.286 221.382 351.765 226.253 350.279C231.124 348.793 236.203 342.858 236.203 342.858C236.203 342.858 228.141 324.647 213.951 327.411C199.761 330.174 202.999 325.971 194.254 330.602C185.509 335.233 183.458 341.412 184.522 347.978C185.586 354.544 182.42 370.856 193.011 371.696C203.603 372.536 209.115 379.31 209.115 379.31Z" fill="#2F2E41"/>
<path d="M328.516 53.1386C325.941 48.4419 327.278 46.1999 324.954 44.3638C324.954 44.3638 324.019 43.625 316.98 42.6839C316.307 31.1657 314.442 29.6263 314.442 29.6263C312.292 27.8522 308.871 28.0996 306.691 28.9054C302.08 30.6097 302.24 35.0997 299.178 35.7119C294.948 36.5575 306.48 29.3265 306.345 21.6774C306.235 15.4379 310.704 9.74338 312.261 10.1879C313.804 10.6286 317.943 6.13402 319.965 6.36997C321.345 6.53112 327.2 4.52382 328.707 4.8377C330.352 5.18052 335.605 8.47863 335.885 7.84339C337.835 3.42918 337.47 2.13196 338.92 0.940463C341.49 -1.17086 345.266 0.744053 351.322 2.09395C363.781 4.87136 366.312 0.892182 372.545 4.2243C375.693 5.90753 378.116 9.96221 382.834 18.0029C389.432 29.2476 392.73 34.87 392.258 41.0826C391.776 47.4183 388.741 46.7712 386.645 56.0402C384.312 66.3581 387.117 71.3854 383.365 74.4983C380.465 76.9042 356.42 77.0894 353.73 74.5597C349.126 70.2287 356.323 61.2404 351.434 53.8629C348.433 49.3343 341.864 46.9012 338.618 48.7618C334.947 50.8657 336.306 58.0102 333.805 58.4776C331.664 58.8779 328.965 53.957 328.516 53.1386Z" fill="#2F2E41"/>
<path d="M157.463 340.255C162.379 336.101 161.074 326.472 154.547 318.746C151.69 315.365 148.306 312.909 144.992 311.564L141.183 307.168L91.9918 245.533C91.9918 245.533 64.7507 184.219 56.7091 177.595C48.6678 170.971 39.2067 174.42 39.2067 174.42L31.8248 183.553L77.825 269.162L124.903 316.54L131.258 323.166C132.031 326.658 133.887 330.405 136.744 333.786C143.27 341.512 152.546 344.408 157.463 340.255Z" fill="#FFB6B6"/>
<path d="M64.608 188.995L76.9352 207.074L94.6323 233.266L62.8339 244.266L34.7583 196.091L64.608 188.995Z" fill="#E6E6E6"/>
<path d="M77.1241 127.466L68.196 161.504L34.1577 154.808C34.1577 154.808 47.5498 130.256 44.2018 119.096L77.1241 127.466Z" fill="#FFB6B6"/>
<path d="M41.1923 570.539L61.6898 570.537L71.4407 491.474L41.1882 491.476L41.1923 570.539Z" fill="#FFB6B6"/>
<path d="M111.419 570.074C112.057 571.149 112.394 574.619 112.394 575.869C112.394 579.711 109.279 582.826 105.437 582.826H41.9583C39.3372 582.826 37.2123 580.701 37.2123 578.079V575.437C37.2123 575.437 34.0721 567.494 40.5372 557.703C40.5372 557.703 48.5726 565.369 60.5794 553.362L64.1201 546.948L89.7501 565.693L103.956 567.441C107.064 567.824 109.82 567.382 111.419 570.074Z" fill="#2F2E41"/>
<path d="M98.1062 341.729L69.8613 533.932H34.4243L41.6164 366.53L34.4243 339.07C34.4243 339.07 31.1452 332.967 28.3827 325.568C25.2689 317.218 22.8095 307.209 26.4607 302.462C27.804 300.712 31.2967 299.417 36.0432 298.453C38.9435 297.86 42.3191 297.399 45.9634 297.041C66.9197 294.967 96.7284 296.262 96.7284 296.262L98.1062 341.729Z" fill="#2F2E41"/>
<path d="M5.08483 561.139L25.3647 564.119L46.5121 487.315L16.581 482.917L5.08483 561.139Z" fill="#FFB6B6"/>
<path d="M74.6329 570.894C75.108 572.05 74.9365 575.532 74.7547 576.768C74.1959 580.57 70.6613 583.198 66.8598 582.64L4.05634 573.406C1.46311 573.025 -0.330176 570.613 0.0511068 568.02L0.435529 565.405C0.435529 565.405 -1.51593 557.09 6.30453 548.344C6.30453 548.344 13.1394 557.098 26.765 546.965L31.2011 541.134L53.8319 563.407L67.6327 567.203C70.6521 568.034 73.4428 567.998 74.6329 570.894Z" fill="#2F2E41"/>
<path d="M98.5509 309.675L94.6768 343.039L38.771 529.091L3.7148 523.939L35.1773 359.364L32.0621 331.144C32.0621 331.144 31.0475 328.339 29.8846 324.232C27.5762 316.108 24.6809 302.877 27.8662 296.128C28.2963 295.211 28.8362 294.415 29.5041 293.771C30.7569 292.556 33.3032 291.818 36.7146 291.426C50.9737 289.815 80.3393 294.424 93.4063 296.687L98.5509 309.675Z" fill="#2F2E41"/>
<path d="M71.543 151.46L110.045 200.007L103.134 250.62L97.2112 302.122L27.4607 291.519C27.4607 291.519 42.5268 255.249 44.2008 253.575C45.8748 251.901 50.0796 256.036 47.1402 250.62C44.2008 245.205 40.8528 245.205 43.6428 242.415C46.4328 239.625 21.8806 203.355 21.8806 183.825C21.8806 164.294 33.5987 148.67 33.5987 148.67L71.543 151.46Z" fill="#E6E6E6"/>
<path d="M62.5609 133.894C76.8856 133.894 88.498 122.282 88.498 107.957C88.498 93.6327 76.8856 82.0203 62.5609 82.0203C48.2363 82.0203 36.6239 93.6327 36.6239 107.957C36.6239 122.282 48.2363 133.894 62.5609 133.894Z" fill="#FFB6B6"/>
<path d="M61.3487 157.548C61.3487 157.548 65.2298 126.838 65.9168 117.908C66.6038 108.977 79.2099 95.034 79.2099 95.034L88.1405 102.247C88.1405 102.247 95.6972 102.247 90.5449 91.2556C85.3926 80.2641 75.775 78.5467 75.775 78.5467C75.775 78.5467 74.7446 64.1203 56.8834 65.8378C39.0221 67.5552 31.122 81.9816 31.122 81.9816C31.122 81.9816 30.0915 63.7768 18.7565 77.1728C7.4215 90.5687 0.895275 96.0644 12.9173 100.53C24.9392 104.995 33.8698 101.56 33.8698 101.56C33.8698 101.56 22.1913 103.965 24.2523 112.208C26.3132 120.452 -2.88307 157.892 10.5128 162.014C23.9088 166.135 53.792 176.096 57.2268 169.57C60.6617 163.044 61.3487 157.548 61.3487 157.548Z" fill="#2F2E41"/>
<path d="M168.266 342.827C173.217 338.715 171.992 329.075 165.531 321.295C162.702 317.889 159.339 315.405 156.036 314.032L152.264 309.604L103.591 247.559C103.591 247.559 76.8652 186.02 68.8794 179.328C60.8939 172.637 51.4042 176.007 51.4042 176.007L43.946 185.077L89.2271 271.069L135.907 318.84L142.206 325.519C142.949 329.018 144.774 332.78 147.602 336.185C154.064 343.965 163.315 346.939 168.266 342.827Z" fill="#FFB6B6"/>
<path d="M41.1207 171.237C41.1207 171.237 53.0359 233.069 66.5945 242.185L93.6131 221.117C93.6131 221.117 95.9775 221.015 91.5769 216.044C87.1764 211.074 88.3031 200.399 88.3031 200.399C88.3031 200.399 90.2832 202.961 85.9745 199.405C81.6659 195.848 85.677 171.389 85.677 171.389L41.1207 171.237Z" fill="#E6E6E6"/>
<path d="M237.909 426.341C237.34 426.341 236.827 425.946 236.703 425.366L235.345 419.057C233.349 409.779 225.332 403.004 215.851 402.58C207.066 402.186 198.926 407.39 195.589 415.522L192.182 423.828C191.924 424.46 191.204 424.761 190.57 424.502C189.94 424.243 189.638 423.522 189.897 422.891L193.305 414.585C197.037 405.491 206.13 399.682 215.962 400.112C226.564 400.586 235.527 408.162 237.76 418.537L239.118 424.846C239.261 425.513 238.837 426.17 238.171 426.314C238.083 426.332 237.995 426.341 237.909 426.341Z" fill="#FFB6B6"/>
<path d="M239.368 446.429C239.331 446.429 239.294 446.427 239.257 446.424L193.551 442.348C192.872 442.287 192.37 441.688 192.43 441.008C192.492 440.329 193.085 439.831 193.771 439.888L239.476 443.963C240.155 444.024 240.657 444.624 240.597 445.304C240.539 445.946 240.001 446.429 239.368 446.429Z" fill="#FFB6B6"/>
<path d="M612.469 231V214.242H615.692L621.376 226.957L626.942 214.242H630.047V231H627.176V219.328L622.63 231H619.981L615.34 219.328V231H612.469Z" fill="#1E1E1E"/>
<path d="M635.286 231H632.098L639.212 214.242H642.551L649.817 231H646.477L644.567 226.43H639.001L640.067 223.734H643.442L640.805 217.441L635.286 231Z" fill="#1E1E1E"/>
<path d="M651.575 230.297V227.484C653.255 228.109 655.153 228.422 657.27 228.422C659.84 228.422 661.126 227.562 661.126 225.844C661.126 224.594 660.337 223.969 658.758 223.969H656.133C652.704 223.969 650.989 222.406 650.989 219.281C650.989 215.844 653.43 214.125 658.313 214.125C660.188 214.125 661.965 214.398 663.645 214.945V217.758C661.965 217.133 660.188 216.82 658.313 216.82C655.501 216.82 654.094 217.641 654.094 219.281C654.094 220.531 654.774 221.156 656.133 221.156H658.758C662.407 221.156 664.231 222.719 664.231 225.844C664.231 229.359 661.911 231.117 657.27 231.117C655.153 231.117 653.255 230.844 651.575 230.297Z" fill="#1E1E1E"/>
<path d="M666.868 230.977V214.242H674.485C677.907 214.242 679.618 215.738 679.618 218.73C679.618 220.754 678.286 222.43 675.622 223.758L680.93 231H677.016L671.919 223.699V222.281C674.887 221.773 676.372 220.621 676.372 218.824C676.372 217.59 675.676 216.973 674.286 216.973H670.032V230.977H666.868Z" fill="#1E1E1E"/>
<path d="M685.044 222.574C685.044 226.473 686.774 228.422 690.235 228.422C693.61 228.422 695.297 226.473 695.297 222.574C695.297 218.738 693.61 216.82 690.235 216.82C686.774 216.82 685.044 218.738 685.044 222.574ZM681.821 222.645C681.821 216.965 684.626 214.125 690.235 214.125C695.758 214.125 698.52 216.965 698.52 222.645C698.52 228.293 695.758 231.117 690.235 231.117C684.876 231.117 682.071 228.293 681.821 222.645Z" fill="#1E1E1E"/>
<path d="M704.098 222.574C704.098 226.473 705.829 228.422 709.29 228.422C712.665 228.422 714.352 226.473 714.352 222.574C714.352 218.738 712.665 216.82 709.29 216.82C705.829 216.82 704.098 218.738 704.098 222.574ZM700.876 222.645C700.876 216.965 703.68 214.125 709.29 214.125C714.813 214.125 717.575 216.965 717.575 222.645C717.575 228.293 714.813 231.117 709.29 231.117C703.93 231.117 701.126 228.293 700.876 222.645Z" fill="#1E1E1E"/>
<path d="M731.52 214.242V216.914H723.598V221.133H731.122V223.91H723.563V231H720.516V214.242H731.52Z" fill="#1E1E1E"/>
<path d="M737.262 214.242V231H734.157V214.242H737.262Z" fill="#1E1E1E"/>
</svg>
