<svg width="59" height="52" viewBox="0 0 59 52" fill="none" xmlns="http://www.w3.org/2000/svg">
<rect width="59" height="52" fill="#E5E5E5"/>
<rect width="1920" height="1808" transform="translate(-38 -50)" fill="#F3F4FF"/>
<rect x="-38" y="-50" width="345" height="150" fill="white"/>
<rect width="53.6625" height="34.8549" rx="7" transform="matrix(0.999824 -0.0187829 0.0158463 0.999874 1.38086 15.6306)" fill="#0E1522"/>
<rect width="26.1668" height="21.7366" rx="5" transform="matrix(0.704047 -0.710153 0.648057 0.761592 9.59375 25.4443)" fill="url(#paint0_linear_0_1)"/>
<rect width="37.8324" height="25.291" rx="5" transform="matrix(0.927769 -0.373155 0.321313 0.946973 11.9902 25.4758)" fill="url(#paint1_linear_0_1)"/>
<ellipse cx="23" cy="24.5" rx="5" ry="5.5" fill="url(#paint2_linear_0_1)"/>
<ellipse cx="40" cy="21.5" rx="5" ry="5.5" fill="url(#paint3_linear_0_1)"/>
<rect width="50.8168" height="22.0548" transform="matrix(0.999658 -0.0261373 0.0220518 0.999757 4.24219 23.0122)" fill="#1E1E1E" fill-opacity="0.3"/>
<mask id="path-8-inside-1_0_1" fill="white">
<path d="M1.19905 16.6044C0.96441 23.7613 22.6144 26.1602 48.2959 25.8356C53.9368 25.7643 58.6329 30.2362 58.6697 35.8774L58.7067 41.5427C58.7428 47.0654 54.2943 51.5775 48.7716 51.6201C35.0411 51.7259 24.0341 51.8078 10.3144 51.9135C4.75967 51.9563 0.286149 47.4683 0.44683 41.9154C0.730694 32.1055 1.19429 19.3961 1.19905 16.6044Z"/>
</mask>
<path d="M1.19905 16.6044C0.96441 23.7613 22.6144 26.1602 48.2959 25.8356C53.9368 25.7643 58.6329 30.2362 58.6697 35.8774L58.7067 41.5427C58.7428 47.0654 54.2943 51.5775 48.7716 51.6201C35.0411 51.7259 24.0341 51.8078 10.3144 51.9135C4.75967 51.9563 0.286149 47.4683 0.44683 41.9154C0.730694 32.1055 1.19429 19.3961 1.19905 16.6044Z" fill="url(#paint4_linear_0_1)" stroke="#FCFCFC" stroke-width="4" mask="url(#path-8-inside-1_0_1)"/>
<path d="M3 12L26.3185 2.13269C28.0321 1.40758 29.9638 1.39454 31.687 2.09647L56 12" stroke="#0E1622" stroke-width="3"/>
<defs>
<linearGradient id="paint0_linear_0_1" x1="20.4545" y1="-1.62234" x2="14.9239" y2="14.9222" gradientUnits="userSpaceOnUse">
<stop stop-color="#243B55"/>
<stop offset="1" stop-color="#2193B0"/>
</linearGradient>
<linearGradient id="paint1_linear_0_1" x1="29.5014" y1="-0.396357" x2="26.9137" y2="12.6818" gradientUnits="userSpaceOnUse">
<stop stop-color="#243B55"/>
<stop offset="1" stop-color="#2193B0"/>
</linearGradient>
<linearGradient id="paint2_linear_0_1" x1="19.8182" y1="19" x2="22.2713" y2="28.59" gradientUnits="userSpaceOnUse">
<stop stop-color="#BDC3C7"/>
<stop offset="1" stop-color="#2C3E50"/>
</linearGradient>
<linearGradient id="paint3_linear_0_1" x1="36.8182" y1="16" x2="39.2713" y2="25.59" gradientUnits="userSpaceOnUse">
<stop stop-color="#BDC3C7"/>
<stop offset="1" stop-color="#2C3E50"/>
</linearGradient>
<linearGradient id="paint4_linear_0_1" x1="1.73592" y1="50.4776" x2="40.2155" y2="11.5186" gradientUnits="userSpaceOnUse">
<stop stop-color="#0D1420"/>
<stop offset="1" stop-color="#243B55"/>
</linearGradient>
</defs>
</svg>
