<svg width="59" height="52" viewBox="0 0 59 52" fill="none" xmlns="http://www.w3.org/2000/svg">
<rect width="53.6625" height="34.8549" rx="7" transform="matrix(0.999824 -0.0187829 0.0158463 0.999874 1.38184 15.6306)" fill="#0E1522"/>
<rect width="26.1668" height="21.7366" rx="5" transform="matrix(0.704047 -0.710153 0.648057 0.761592 9.5918 25.4443)" fill="url(#paint0_linear_392_1502)"/>
<rect width="37.8324" height="25.291" rx="5" transform="matrix(0.927769 -0.373155 0.321313 0.946973 11.9902 25.4758)" fill="url(#paint1_linear_392_1502)"/>
<ellipse cx="23" cy="24.5" rx="5" ry="5.5" fill="url(#paint2_linear_392_1502)"/>
<ellipse cx="40" cy="21.5" rx="5" ry="5.5" fill="url(#paint3_linear_392_1502)"/>
<rect width="50.8168" height="22.0548" transform="matrix(0.999658 -0.0261373 0.0220518 0.999757 4.24414 23.0122)" fill="#1E1E1E" fill-opacity="0.3"/>
<path d="M2.11554 20.505C2.75793 21.0657 3.53203 21.5628 4.39129 22.0022C6.925 23.2979 10.5305 24.279 14.8609 25.0116C23.5428 26.4803 35.446 26.9981 48.3073 26.8356C53.4115 26.771 57.6367 30.8155 57.6698 35.8852L57.7068 41.5505C57.7392 46.5209 53.7356 50.5818 48.7652 50.6201C41.8785 50.6732 35.6912 50.7201 29.5041 50.767C23.336 50.8138 17.1682 50.8606 10.308 50.9135C5.3086 50.952 1.30241 46.9193 1.4464 41.9431C1.55456 38.2052 1.68925 34.0348 1.81466 30.1514C1.93338 26.4754 2.04379 23.0565 2.11554 20.505Z" fill="url(#paint4_linear_392_1502)" stroke="#FCFCFC" stroke-width="2"/>
<path d="M3 12L26.3185 2.13269C28.0321 1.40758 29.9638 1.39454 31.687 2.09647L56 12" stroke="#0E1622" stroke-width="3"/>
<defs>
<linearGradient id="paint0_linear_392_1502" x1="20.4545" y1="-1.62234" x2="14.9239" y2="14.9222" gradientUnits="userSpaceOnUse">
<stop stop-color="#243B55"/>
<stop offset="1" stop-color="#2193B0"/>
</linearGradient>
<linearGradient id="paint1_linear_392_1502" x1="29.5014" y1="-0.396357" x2="26.9137" y2="12.6818" gradientUnits="userSpaceOnUse">
<stop stop-color="#243B55"/>
<stop offset="1" stop-color="#2193B0"/>
</linearGradient>
<linearGradient id="paint2_linear_392_1502" x1="19.8182" y1="19" x2="22.2713" y2="28.59" gradientUnits="userSpaceOnUse">
<stop stop-color="#BDC3C7"/>
<stop offset="1" stop-color="#2C3E50"/>
</linearGradient>
<linearGradient id="paint3_linear_392_1502" x1="36.8182" y1="16" x2="39.2713" y2="25.59" gradientUnits="userSpaceOnUse">
<stop stop-color="#BDC3C7"/>
<stop offset="1" stop-color="#2C3E50"/>
</linearGradient>
<linearGradient id="paint4_linear_392_1502" x1="1.73592" y1="50.4776" x2="40.2155" y2="11.5186" gradientUnits="userSpaceOnUse">
<stop stop-color="#0D1420"/>
<stop offset="1" stop-color="#243B55"/>
</linearGradient>
</defs>
</svg>
