<svg width="345" height="145" viewBox="0 0 345 145" fill="none" xmlns="http://www.w3.org/2000/svg">
<rect width="345" height="145" fill="white"/>
<path d="M123.637 94V68.8633H128.471L136.996 87.9355L145.346 68.8633H150.004V94H145.697V76.4922L138.877 94H134.904L127.943 76.4922V94H123.637ZM157.861 94H153.08L163.75 68.8633H168.76L179.658 94H174.648L171.783 87.1445H163.434L165.033 83.1016H170.096L166.141 73.6621L157.861 94ZM182.295 92.9453V88.7266C184.814 89.6641 187.662 90.1328 190.838 90.1328C194.693 90.1328 196.621 88.8438 196.621 86.2656C196.621 84.3906 195.438 83.4531 193.07 83.4531H189.133C183.988 83.4531 181.416 81.1094 181.416 76.4219C181.416 71.2656 185.078 68.6875 192.402 68.6875C195.215 68.6875 197.881 69.0977 200.4 69.918V74.1367C197.881 73.1992 195.215 72.7305 192.402 72.7305C188.184 72.7305 186.074 73.9609 186.074 76.4219C186.074 78.2969 187.094 79.2344 189.133 79.2344H193.07C198.543 79.2344 201.279 81.5781 201.279 86.2656C201.279 91.5391 197.799 94.1758 190.838 94.1758C187.662 94.1758 184.814 93.7656 182.295 92.9453ZM205.234 93.9648V68.8633H216.66C221.793 68.8633 224.359 71.1074 224.359 75.5957C224.359 78.6309 222.361 81.1445 218.365 83.1367L226.328 94H220.457L212.811 83.0488V80.9219C217.264 80.1602 219.49 78.4316 219.49 75.7363C219.49 73.8848 218.447 72.959 216.361 72.959H209.98V93.9648H205.234ZM232.498 81.3613C232.498 87.209 235.094 90.1328 240.285 90.1328C245.348 90.1328 247.879 87.209 247.879 81.3613C247.879 75.6074 245.348 72.7305 240.285 72.7305C235.094 72.7305 232.498 75.6074 232.498 81.3613ZM227.664 81.4668C227.664 72.9473 231.871 68.6875 240.285 68.6875C248.57 68.6875 252.713 72.9473 252.713 81.4668C252.713 89.9395 248.57 94.1758 240.285 94.1758C232.246 94.1758 228.039 89.9395 227.664 81.4668ZM261.08 81.3613C261.08 87.209 263.676 90.1328 268.867 90.1328C273.93 90.1328 276.461 87.209 276.461 81.3613C276.461 75.6074 273.93 72.7305 268.867 72.7305C263.676 72.7305 261.08 75.6074 261.08 81.3613ZM256.246 81.4668C256.246 72.9473 260.453 68.6875 268.867 68.6875C277.152 68.6875 281.295 72.9473 281.295 81.4668C281.295 89.9395 277.152 94.1758 268.867 94.1758C260.828 94.1758 256.621 89.9395 256.246 81.4668ZM302.213 68.8633V72.8711H290.33V79.1992H301.615V83.3652H290.277V94H285.707V68.8633H302.213ZM310.826 68.8633V94H306.168V68.8633H310.826Z" fill="#1E1E1E"/>
<rect width="53.6625" height="34.8549" rx="7" transform="matrix(0.999824 -0.0187829 0.0158463 0.999874 39.3817 64.6309)" fill="#0E1522"/>
<rect width="26.1668" height="21.7366" rx="5" transform="matrix(0.704047 -0.710153 0.648057 0.761592 47.5924 74.4443)" fill="url(#paint0_linear_798_45366)"/>
<rect width="37.8324" height="25.291" rx="5" transform="matrix(0.927769 -0.373155 0.321313 0.946973 49.9905 74.4756)" fill="url(#paint1_linear_798_45366)"/>
<ellipse cx="61" cy="73.5" rx="5" ry="5.5" fill="url(#paint2_linear_798_45366)"/>
<ellipse cx="78" cy="70.5" rx="5" ry="5.5" fill="url(#paint3_linear_798_45366)"/>
<rect width="50.8168" height="22.0548" transform="matrix(0.999658 -0.0261373 0.0220518 0.999757 42.2435 72.0117)" fill="#1E1E1E" fill-opacity="0.3"/>
<path d="M40.1155 69.5045C40.7579 70.0652 41.532 70.5623 42.3913 71.0017C44.925 72.2974 48.5305 73.2785 52.8609 74.0111C61.5428 75.4798 73.446 75.9976 86.3073 75.8351C91.4115 75.7706 95.6367 79.815 95.6698 84.8847L95.7068 90.55C95.7392 95.5204 91.7356 99.5813 86.7652 99.6196C79.8745 99.6727 73.684 99.7197 67.4933 99.7666C61.3288 99.8134 55.1642 99.8602 48.308 99.913C43.3086 99.9515 39.3024 95.9188 39.4464 90.9426C39.5546 87.2047 39.6892 83.0343 39.8147 79.151C39.9334 75.4749 40.0438 72.0561 40.1155 69.5045Z" fill="url(#paint4_linear_798_45366)" stroke="#FCFCFC" stroke-width="2"/>
<path d="M41 61L64.3185 51.1327C66.0321 50.4076 67.9638 50.3945 69.687 51.0965L94 61" stroke="#0E1622" stroke-width="3"/>
<defs>
<linearGradient id="paint0_linear_798_45366" x1="20.4545" y1="-1.62234" x2="14.9239" y2="14.9222" gradientUnits="userSpaceOnUse">
<stop stop-color="#243B55"/>
<stop offset="1" stop-color="#2193B0"/>
</linearGradient>
<linearGradient id="paint1_linear_798_45366" x1="29.5014" y1="-0.396357" x2="26.9137" y2="12.6818" gradientUnits="userSpaceOnUse">
<stop stop-color="#243B55"/>
<stop offset="1" stop-color="#2193B0"/>
</linearGradient>
<linearGradient id="paint2_linear_798_45366" x1="57.8182" y1="68" x2="60.2713" y2="77.59" gradientUnits="userSpaceOnUse">
<stop stop-color="#BDC3C7"/>
<stop offset="1" stop-color="#2C3E50"/>
</linearGradient>
<linearGradient id="paint3_linear_798_45366" x1="74.8182" y1="65" x2="77.2713" y2="74.59" gradientUnits="userSpaceOnUse">
<stop stop-color="#BDC3C7"/>
<stop offset="1" stop-color="#2C3E50"/>
</linearGradient>
<linearGradient id="paint4_linear_798_45366" x1="39.7359" y1="99.4771" x2="78.2155" y2="60.5181" gradientUnits="userSpaceOnUse">
<stop stop-color="#0D1420"/>
<stop offset="1" stop-color="#243B55"/>
</linearGradient>
</defs>
</svg>
