<svg width="59" height="54" viewBox="0 0 59 54" fill="none" xmlns="http://www.w3.org/2000/svg">
<rect width="53.6625" height="34.8549" rx="7" transform="matrix(0.999824 -0.0187829 0.0158463 0.999874 1.38171 15.6309)" fill="#0E1522"/>
<rect width="26.1668" height="21.7366" rx="5" transform="matrix(0.704047 -0.710153 0.648057 0.761592 9.59241 25.4443)" fill="url(#paint0_linear_900_45292)"/>
<rect width="37.8324" height="25.291" rx="5" transform="matrix(0.927769 -0.373155 0.321313 0.946973 11.9905 25.4756)" fill="url(#paint1_linear_900_45292)"/>
<ellipse cx="23" cy="24.5" rx="5" ry="5.5" fill="url(#paint2_linear_900_45292)"/>
<ellipse cx="40" cy="21.5" rx="5" ry="5.5" fill="url(#paint3_linear_900_45292)"/>
<rect width="50.8168" height="22.0548" transform="matrix(0.999658 -0.0261373 0.0220518 0.999757 4.24353 23.0117)" fill="#1E1E1E" fill-opacity="0.3"/>
<path d="M2.63965 21.5134C3.27033 22.0656 4.02799 22.5563 4.86875 22.991C7.37558 24.287 10.942 25.2686 15.2243 26.0019C23.8097 27.4721 35.5814 27.9933 48.3045 27.8353C53.4102 27.7719 57.6367 31.8168 57.6698 36.8874L57.7068 42.5475C57.7392 47.5205 53.747 51.5799 48.7775 51.6177C39.1182 51.6913 24.044 51.8064 10.8354 51.9085C5.83714 51.9472 1.83584 47.9156 1.97825 42.9386C2.08521 39.2003 2.21842 35.0296 2.34247 31.1459C2.45967 27.4765 2.56869 24.0633 2.63965 21.5134Z" fill="url(#paint4_linear_900_45292)" stroke="white" stroke-width="2"/>
<path d="M1.67411 18.4443C1.44206 25.593 22.8633 27.996 48.2936 27.6797C53.9354 27.6095 58.6329 32.0815 58.6698 37.7236L58.7067 43.384C58.7428 48.9076 54.3075 53.42 48.7839 53.462C39.1147 53.5357 24.0182 53.6509 10.7925 53.7533C5.238 53.7962 0.770424 49.3085 0.929465 43.7559C1.21044 33.946 1.66953 21.2361 1.67411 18.4443Z" fill="url(#paint5_linear_900_45292)"/>
<path d="M3 12L26.3185 2.13269C28.0321 1.40758 29.9638 1.39454 31.687 2.09647L56 12" stroke="#0E1622" stroke-width="3"/>
<defs>
<linearGradient id="paint0_linear_900_45292" x1="20.4545" y1="-1.62234" x2="14.9239" y2="14.9222" gradientUnits="userSpaceOnUse">
<stop stop-color="#243B55"/>
<stop offset="1" stop-color="#2193B0"/>
</linearGradient>
<linearGradient id="paint1_linear_900_45292" x1="29.5014" y1="-0.396357" x2="26.9137" y2="12.6818" gradientUnits="userSpaceOnUse">
<stop stop-color="#243B55"/>
<stop offset="1" stop-color="#2193B0"/>
</linearGradient>
<linearGradient id="paint2_linear_900_45292" x1="19.8182" y1="19" x2="22.2713" y2="28.59" gradientUnits="userSpaceOnUse">
<stop stop-color="#BDC3C7"/>
<stop offset="1" stop-color="#2C3E50"/>
</linearGradient>
<linearGradient id="paint3_linear_900_45292" x1="36.8182" y1="16" x2="39.2713" y2="25.59" gradientUnits="userSpaceOnUse">
<stop stop-color="#BDC3C7"/>
<stop offset="1" stop-color="#2C3E50"/>
</linearGradient>
<linearGradient id="paint4_linear_900_45292" x1="2.25652" y1="51.4728" x2="40.7365" y2="12.8695" gradientUnits="userSpaceOnUse">
<stop stop-color="#0D1420"/>
<stop offset="1" stop-color="#243B55"/>
</linearGradient>
<linearGradient id="paint5_linear_900_45292" x1="2.20836" y1="52.3175" x2="40.6884" y2="13.6812" gradientUnits="userSpaceOnUse">
<stop stop-color="#0D1420"/>
<stop offset="1" stop-color="#243B55"/>
</linearGradient>
</defs>
</svg>
