<svg width="404" height="293" viewBox="0 0 404 293" fill="none" xmlns="http://www.w3.org/2000/svg">
<path d="M271.761 56.4117C271.282 56.411 270.823 56.1828 270.485 55.777C270.146 55.3712 269.956 54.821 269.955 54.2472V25.1704C269.955 24.5963 270.145 24.0458 270.484 23.6398C270.823 23.2339 271.282 23.0059 271.761 23.0059C272.24 23.0059 272.699 23.2339 273.038 23.6398C273.376 24.0458 273.567 24.5963 273.567 25.1704V54.2472C273.566 54.821 273.376 55.3712 273.037 55.777C272.699 56.1828 272.24 56.411 271.761 56.4117V56.4117Z" fill="#3F3D56"/>
<path d="M244.714 111.163C244.841 112.149 245.317 113.042 246.041 113.653C246.765 114.263 247.679 114.542 248.59 114.43C248.774 114.404 248.957 114.362 249.135 114.303L256.425 125.029L262.733 122.923L251.285 109.403C251.004 108.619 250.493 107.957 249.83 107.521C249.167 107.086 248.39 106.902 247.621 106.997C247.184 107.055 246.761 107.207 246.378 107.443C245.994 107.679 245.657 107.995 245.386 108.373C245.115 108.75 244.915 109.182 244.797 109.644C244.68 110.106 244.647 110.588 244.701 111.064C244.705 111.097 244.709 111.13 244.714 111.163Z" fill="#FFB6B6"/>
<path d="M339.108 184.413C338.454 183.697 338.078 182.725 338.06 181.706C338.043 180.687 338.385 179.701 339.014 178.957C339.144 178.808 339.285 178.671 339.435 178.548L335.864 165.483L341.211 161.144L344.355 179.626C344.768 180.357 344.952 181.218 344.876 182.076C344.801 182.933 344.472 183.739 343.939 184.368C343.633 184.722 343.267 185.006 342.862 185.204C342.457 185.402 342.021 185.509 341.579 185.52C341.136 185.531 340.696 185.445 340.283 185.267C339.871 185.09 339.494 184.824 339.174 184.485C339.152 184.462 339.129 184.438 339.108 184.413Z" fill="#FFB6B6"/>
<path d="M308.777 285.738L302.66 285.738L299.75 264.973L308.779 264.973L308.777 285.738Z" fill="#FFB6B6"/>
<path d="M308.778 292.058L290.721 292.058V291.847C290.721 290.122 291.461 288.468 292.779 287.249C294.097 286.03 295.885 285.345 297.749 285.345H297.749L301.048 283.03L307.202 285.345L308.778 285.345L308.778 292.058Z" fill="#2F2E41"/>
<path d="M332.252 285.738L326.746 285.738L324.127 264.973L332.253 264.973L332.252 285.738Z" fill="#FFB6B6"/>
<path d="M332.253 292.058L315.099 292.058V291.847C315.099 290.122 315.802 288.468 317.054 287.249C318.307 286.03 320.005 285.345 321.775 285.345H321.776L324.909 283.03L330.756 285.345L332.253 285.345L332.253 292.058Z" fill="#2F2E41"/>
<path d="M292.33 170.181C292.33 170.181 286.005 179.046 290.571 194.362C295.137 209.678 292.573 223.371 293.855 226.116C295.137 228.862 297.717 231.47 295.585 233.551C293.453 235.633 292.33 237.326 294.014 237.89C295.698 238.454 301.31 277.951 301.31 277.951L310.852 278.515C310.852 278.515 314.308 260.168 310.615 245.361C310.615 245.361 311.426 234.612 309.736 231.455C308.045 228.298 308.377 231.146 308.492 227.183C308.555 224.316 308.971 221.469 309.729 218.706C310.29 216.449 310.615 193.701 310.615 193.701L323.019 221.8C323.392 222.84 323.532 223.949 323.429 225.05C323.199 226.605 323.197 228.929 323.479 229.742C323.76 230.555 324.074 230.726 323.917 232.333C323.76 233.94 323.76 276.564 323.76 276.564H334.424L339.475 233.94C338.567 232.928 337.81 231.787 337.23 230.555C336.108 228.298 336.064 228.173 336.647 226.543C337.23 224.912 337.23 221.736 337.23 220.785C337.23 219.834 337.813 176.671 330.506 170.322C323.199 163.974 292.33 170.181 292.33 170.181Z" fill="#2F2E41"/>
<path d="M324.604 103.1L313.94 100.324L308.962 93.4292L297.14 94.8888L294.623 104.294L286.207 109.2C286.207 109.2 290.859 158.612 289.752 161.326C288.646 164.039 284.678 163.815 288.067 167.312C291.455 170.81 291.904 169.401 291.118 173.209C290.331 177.017 284.6 181.046 291.118 181.006C297.635 180.966 336.964 180.402 335.841 175.888C334.717 171.374 334.735 172.52 333.04 169.69C331.346 166.86 330.206 168.442 330.776 164.265C331.346 160.089 330.784 157.268 330.784 155.011C330.784 152.754 328.902 132.244 328.902 132.244L324.604 103.1Z" fill="#3F3D56"/>
<path d="M291.413 107.096C291.413 107.096 280.742 105.897 278.469 110.961C276.196 116.026 270.467 126.572 270.467 126.572C270.467 126.572 266.001 121.945 265.569 119.848C265.202 118.067 265 121.041 262 117.822C260.656 116.379 261.792 116.379 260.088 115.816L256.678 114.691L250.996 119.755C250.996 119.755 250.885 125.875 253.837 125.945C256.789 126.016 252.7 124.82 256.678 128.759C258.732 130.793 256.848 130.456 260.271 132.526C263.694 134.596 263.308 134.587 264.353 135.717C265.399 136.847 271.01 137.669 271.01 137.669L296.138 123.899L291.413 107.096Z" fill="#3F3D56"/>
<path d="M319.612 105.791C319.612 105.791 324.193 99.1772 332.022 107.77C339.851 116.363 345.705 155.589 345.338 156.997C344.971 158.405 342.906 157.598 345.36 159.963C347.815 162.329 349.521 160.648 347.815 162.329C346.108 164.011 342.547 165.594 345.465 166.204C348.383 166.814 337.031 170.172 337.031 170.172C337.031 170.172 335.377 169.577 335.307 165.649C335.268 163.443 336.405 162.321 334.699 161.761C332.992 161.2 335.091 157.457 334.911 156.81C334.732 156.163 323.924 127.574 323.924 127.574L319.612 105.791Z" fill="#3F3D56"/>
<path d="M301.555 92.5263C308.536 92.5263 314.195 86.4629 314.195 78.9833C314.195 71.5038 308.536 65.4404 301.555 65.4404C294.574 65.4404 288.915 71.5038 288.915 78.9833C288.915 86.4629 294.574 92.5263 301.555 92.5263Z" fill="#FFB6B6"/>
<path d="M309.207 88.9149C306.279 86.5358 310.282 76.0701 305.446 78.304C305.446 78.304 299.535 74.3948 298.347 76.9637C296.972 79.9383 292.082 78.5888 289.078 77.5389C289.314 76.9686 289.482 76.3703 289.578 75.7574C289.023 76.2115 288.435 76.6204 287.82 76.9805C287.408 76.7513 287.043 76.4402 286.746 76.0646C286.453 75.7158 286.269 75.2822 286.22 74.822C286.171 74.3617 286.259 73.8969 286.472 73.49C286.971 72.6914 288.003 72.4457 288.61 71.7365C288.68 71.6367 288.726 71.5208 288.744 71.3986C288.761 71.2764 288.75 71.1516 288.711 71.0349C288.639 70.7495 288.628 70.4511 288.679 70.1609C288.73 69.8706 288.843 69.5957 289.008 69.3557C289.173 69.1157 289.387 68.9165 289.635 68.7723C289.883 68.6281 290.158 68.5425 290.441 68.5216C290.555 68.5252 290.668 68.4996 290.77 68.4471C291.28 68.1228 291.751 67.7366 292.173 67.2967C291.467 67.3321 290.759 67.3115 290.056 67.2352C289.911 67.2185 289.766 67.2017 289.621 67.1794C289.889 66.524 290.291 65.9367 290.798 65.4577C291.306 64.9786 291.907 64.6192 292.56 64.4038C293.939 63.9704 295.375 63.7613 296.816 63.7839C297.649 63.756 298.482 63.7281 299.309 63.7001C301.064 63.5703 302.828 63.634 304.57 63.89C306.431 64.2429 308.194 65.0185 309.733 66.1616C311.272 67.3046 312.55 68.7868 313.474 70.5022C315.296 73.9368 317.268 85.0056 309.207 88.9149Z" fill="#2F2E41"/>
<path d="M261.529 145.495C261.089 145.702 260.615 145.804 260.138 145.794C259.661 145.785 259.191 145.663 258.757 145.438C256.94 144.416 256.088 141.384 255.402 138.949C255.203 138.24 255.015 137.571 254.823 137.023L254.82 137.015C254.487 135.93 254.545 134.739 254.982 133.702C255.419 132.665 256.2 131.865 257.155 131.476L265.742 128.038C266.182 127.831 266.655 127.729 267.132 127.738C267.608 127.748 268.078 127.869 268.511 128.094C270.328 129.115 271.181 132.145 271.867 134.58C272.066 135.29 272.255 135.961 272.448 136.509C272.783 137.595 272.726 138.788 272.289 139.827C271.852 140.866 271.071 141.667 270.114 142.057L261.529 145.495Z" fill="white"/>
<path d="M259.121 137.669C260.118 137.669 260.927 136.861 260.927 135.864C260.927 134.866 260.118 134.058 259.121 134.058C258.124 134.058 257.315 134.866 257.315 135.864C257.315 136.861 258.124 137.669 259.121 137.669Z" fill="#2193B0"/>
<path d="M266.795 137.669C267.543 137.669 268.149 137.265 268.149 136.766C268.149 136.268 267.543 135.864 266.795 135.864C266.047 135.864 265.44 136.268 265.44 136.766C265.44 137.265 266.047 137.669 266.795 137.669Z" fill="#2193B0"/>
<path d="M2.96188e-06 292.51C-0.00025913 292.569 0.0168754 292.628 0.0504147 292.683C0.083954 292.738 0.133241 292.788 0.195437 292.83C0.257633 292.872 0.331509 292.905 0.412821 292.927C0.494133 292.95 0.581274 292.962 0.66923 292.961H402.909C403.087 292.961 403.257 292.914 403.383 292.829C403.508 292.745 403.579 292.63 403.579 292.51C403.579 292.39 403.508 292.275 403.383 292.191C403.257 292.106 403.087 292.059 402.909 292.059H0.669196C0.581244 292.058 0.494111 292.07 0.412804 292.093C0.331497 292.115 0.257621 292.148 0.195429 292.19C0.133237 292.232 0.0839529 292.282 0.0504147 292.337C0.0168764 292.392 -0.000256123 292.451 2.96188e-06 292.51V292.51Z" fill="#CCCCCC"/>
<path d="M243.368 0H141.329C125.459 0 112.594 12.968 112.594 28.9649V263.996C112.594 279.993 125.459 292.961 141.329 292.961H243.368C259.238 292.961 272.104 279.993 272.104 263.996V28.9649C272.104 12.968 259.238 0 243.368 0Z" fill="#3F3D56"/>
<path d="M270.525 29.3303V263.631C270.516 270.57 267.744 277.222 262.816 282.128C257.888 287.035 251.206 289.795 244.237 289.803H141.25C134.281 289.795 127.599 287.035 122.671 282.128C117.743 277.222 114.971 270.57 114.963 263.631V29.3303C114.971 22.3916 117.743 15.7395 122.671 10.8331C127.599 5.92667 134.281 3.16672 141.25 3.15869H154.718V7.79024C154.718 9.88702 155.554 11.8979 157.044 13.3805C158.533 14.8632 160.553 15.6962 162.659 15.6963H222.829C224.935 15.6962 226.955 14.8632 228.444 13.3805C229.933 11.8979 230.77 9.88702 230.77 7.79024V3.15869H244.237C251.206 3.16673 257.888 5.92667 262.816 10.8331C267.744 15.7395 270.516 22.3916 270.525 29.3303Z" fill="white"/>
<path d="M111.41 59.2238C110.886 59.2231 110.385 58.9941 110.014 58.587C109.644 58.1799 109.436 57.628 109.436 57.0522V52.7091C109.436 52.1332 109.644 51.5809 110.014 51.1736C110.384 50.7664 110.886 50.5376 111.41 50.5376C111.933 50.5376 112.435 50.7664 112.806 51.1736C113.176 51.5809 113.384 52.1332 113.384 52.7091V57.0522C113.383 57.628 113.175 58.1799 112.805 58.587C112.435 58.9941 111.933 59.2231 111.41 59.2238V59.2238Z" fill="#3F3D56"/>
<path d="M111.41 78.9654C110.886 78.9648 110.385 78.7762 110.014 78.4409C109.644 78.1056 109.436 77.651 109.436 77.1768V67.3299C109.436 66.8555 109.644 66.4006 110.014 66.0651C110.384 65.7297 110.886 65.5413 111.41 65.5413C111.933 65.5413 112.435 65.7297 112.806 66.0651C113.176 66.4006 113.384 66.8555 113.384 67.3299V77.1768C113.383 77.651 113.175 78.1056 112.805 78.4409C112.435 78.7762 111.933 78.9648 111.41 78.9654V78.9654Z" fill="#3F3D56"/>
<path d="M111.41 96.3375C110.886 96.337 110.385 96.1373 110.014 95.7822C109.644 95.4272 109.436 94.9458 109.436 94.4437V84.0176C109.436 83.5153 109.644 83.0336 110.014 82.6785C110.384 82.3233 110.886 82.1238 111.41 82.1238C111.933 82.1238 112.435 82.3233 112.806 82.6785C113.176 83.0336 113.384 83.5153 113.384 84.0176V94.4437C113.383 94.9458 113.175 95.4272 112.805 95.7822C112.435 96.1373 111.933 96.337 111.41 96.3375V96.3375Z" fill="#3F3D56"/>
<path d="M198.581 118.448H185.327C184.676 118.448 184.052 118.115 183.592 117.523C183.132 116.931 182.873 116.127 182.873 115.289C182.873 114.452 183.132 113.648 183.592 113.056C184.052 112.464 184.676 112.131 185.327 112.131H198.581C199.232 112.131 199.856 112.464 200.316 113.056C200.776 113.648 201.035 114.452 201.035 115.289C201.035 116.127 200.776 116.931 200.316 117.523C199.856 118.115 199.232 118.448 198.581 118.448V118.448Z" fill="#E6E6E6"/>
<path d="M235.476 151.614H142.904C140.52 151.611 138.235 150.677 136.55 149.018C134.865 147.358 133.917 145.108 133.914 142.762V133.617C133.917 131.27 134.865 129.02 136.55 127.361C138.235 125.702 140.52 124.768 142.904 124.765H235.476C237.859 124.768 240.144 125.702 241.829 127.361C243.515 129.021 244.463 131.27 244.465 133.617V142.762C244.463 145.108 243.515 147.358 241.829 149.018C240.144 150.677 237.859 151.611 235.476 151.614V151.614ZM142.904 125.742C140.783 125.744 138.75 126.575 137.251 128.051C135.751 129.528 134.908 131.529 134.906 133.617V142.762C134.908 144.85 135.751 146.851 137.251 148.328C138.75 149.804 140.783 150.635 142.904 150.637H235.476C237.596 150.635 239.629 149.804 241.129 148.328C242.628 146.851 243.472 144.85 243.474 142.762V133.617C243.472 131.529 242.628 129.527 241.129 128.051C239.629 126.575 237.596 125.744 235.476 125.742H142.904Z" fill="#E6E6E6"/>
<path d="M198.581 186.358H185.327C184.676 186.358 184.052 186.108 183.592 185.664C183.132 185.22 182.873 184.617 182.873 183.989C182.873 183.361 183.132 182.758 183.592 182.314C184.052 181.87 184.676 181.62 185.327 181.62H198.581C199.232 181.62 199.856 181.87 200.316 182.314C200.776 182.758 201.035 183.361 201.035 183.989C201.035 184.617 200.776 185.22 200.316 185.664C199.856 186.108 199.232 186.358 198.581 186.358V186.358Z" fill="#E6E6E6"/>
<path d="M202.935 257.427H183.347C182.87 257.427 182.398 257.326 181.957 257.128C181.517 256.929 181.116 256.639 180.779 256.272C180.442 255.905 180.174 255.47 179.991 254.991C179.809 254.511 179.715 253.997 179.715 253.479C179.715 252.96 179.809 252.446 179.991 251.967C180.174 251.487 180.442 251.052 180.779 250.685C181.116 250.318 181.517 250.028 181.957 249.83C182.398 249.631 182.87 249.53 183.347 249.53H202.935C203.898 249.53 204.82 249.946 205.501 250.687C206.181 251.427 206.563 252.431 206.563 253.479C206.563 254.526 206.181 255.53 205.501 256.27C204.82 257.011 203.898 257.427 202.935 257.427Z" fill="#2193B0"/>
<path d="M235.476 221.103H142.904C140.52 221.1 138.235 220.112 136.55 218.355C134.865 216.598 133.917 214.215 133.914 211.73V202.048C133.917 199.563 134.865 197.181 136.55 195.424C138.235 193.667 140.52 192.678 142.904 192.676H235.476C237.859 192.678 240.144 193.667 241.829 195.424C243.515 197.181 244.463 199.563 244.465 202.048V211.73C244.463 214.215 243.515 216.598 241.829 218.355C240.144 220.112 237.859 221.1 235.476 221.103V221.103ZM142.904 193.709C140.783 193.712 138.75 194.591 137.251 196.154C135.751 197.718 134.908 199.837 134.906 202.048V211.73C134.908 213.941 135.751 216.061 137.251 217.624C138.75 219.187 140.783 220.067 142.904 220.069H235.476C237.596 220.067 239.629 219.187 241.129 217.624C242.628 216.061 243.472 213.941 243.474 211.73V202.048C243.472 199.837 242.628 197.718 241.129 196.154C239.629 194.591 237.596 193.712 235.476 193.709H142.904Z" fill="#E6E6E6"/>
<path d="M252.363 94.7583H133.125V96.3376H252.363V94.7583Z" fill="#E6E6E6"/>
<path d="M273.67 154.745L214.855 175.474C213.401 175.984 211.803 175.899 210.412 175.237C209.021 174.574 207.95 173.389 207.434 171.941L197.331 143.455C196.818 142.006 196.904 140.413 197.568 139.026C198.233 137.639 199.422 136.572 200.875 136.058L259.689 115.33C261.143 114.819 262.741 114.904 264.133 115.567C265.524 116.229 266.595 117.414 267.11 118.863L277.214 147.348C277.726 148.798 277.641 150.39 276.976 151.777C276.312 153.164 275.123 154.232 273.67 154.745Z" fill="#2193B0"/>
<path d="M212.004 142.598C208.243 144.37 203.424 143.037 201.738 141.095L202.007 140.985C205.208 139.557 209.963 140.353 212.004 142.598Z" fill="white"/>
<path d="M212.791 158.352C212.699 158.427 212.599 158.449 212.501 158.416C212.403 158.382 212.312 158.295 212.236 158.163C212.148 158.005 212.081 157.802 212.042 157.575C212.003 157.349 211.993 157.105 212.013 156.868C212.032 156.664 212.077 156.474 212.145 156.32C212.213 156.167 212.3 156.054 212.397 155.996L214.363 154.568C214.456 154.489 214.559 154.464 214.658 154.496C214.758 154.529 214.852 154.617 214.928 154.751C215.017 154.91 215.083 155.112 215.123 155.339C215.162 155.566 215.172 155.81 215.151 156.047C215.132 156.25 215.086 156.439 215.019 156.593C214.951 156.746 214.864 156.859 214.767 156.917L212.801 158.345L212.791 158.352Z" fill="white"/>
<path d="M211.326 163.936C211.08 163.98 210.826 163.959 210.592 163.875C210.358 163.791 210.152 163.647 209.996 163.46C209.815 163.235 209.697 162.97 209.653 162.689C209.61 162.408 209.643 162.122 209.748 161.856C209.843 161.629 210.001 161.431 210.205 161.284C210.41 161.138 210.653 161.049 210.907 161.026L221.34 157.668C221.59 157.619 221.849 157.638 222.089 157.721C222.328 157.805 222.539 157.951 222.698 158.142C222.879 158.366 222.997 158.632 223.04 158.912C223.084 159.193 223.051 159.48 222.945 159.745C222.85 159.972 222.691 160.169 222.487 160.315C222.283 160.462 222.04 160.551 221.787 160.574L211.353 163.932L211.326 163.936Z" fill="white"/>
<path d="M269.66 124.842L200.414 149.325L200.531 149.655L269.777 125.173L269.66 124.842Z" fill="white"/>
<path d="M158.21 280.1C157.92 280.113 157.634 280.039 157.389 279.889C157.144 279.739 156.953 279.519 156.842 279.26C156.73 279.002 156.703 278.716 156.764 278.441C156.826 278.167 156.973 277.918 157.186 277.728L157.283 277.355C157.27 277.325 157.257 277.295 157.244 277.265C156.953 276.598 156.464 276.03 155.84 275.631C155.216 275.232 154.484 275.02 153.737 275.023C152.989 275.026 152.259 275.242 151.638 275.646C151.017 276.049 150.532 276.621 150.246 277.29C149.102 279.961 147.644 282.636 147.285 285.46C147.127 286.708 147.194 287.973 147.482 289.199C144.794 283.518 143.398 277.344 143.389 271.094C143.389 269.526 143.479 267.959 143.659 266.401C143.807 265.123 144.014 263.854 144.278 262.595C145.719 255.762 148.812 249.357 153.305 243.906C155.479 242.757 157.237 240.99 158.343 238.842C158.743 238.071 159.026 237.247 159.183 236.396C158.938 236.427 158.258 232.809 158.443 232.587C158.102 232.084 157.49 231.835 157.116 231.344C155.26 228.906 152.702 229.332 151.367 232.645C148.514 234.04 148.486 236.353 150.237 238.578C151.35 239.993 151.503 241.908 152.48 243.423C152.38 243.548 152.275 243.668 152.175 243.793C150.337 246.082 148.736 248.54 147.393 251.132C147.72 248.228 147.33 245.291 146.256 242.562C145.168 240.019 143.128 237.877 141.332 235.678C139.174 233.037 134.749 234.19 134.369 237.538C134.365 237.57 134.362 237.603 134.358 237.635C134.625 237.781 134.886 237.935 135.142 238.099C135.463 238.307 135.712 238.604 135.856 238.951C136 239.298 136.032 239.679 135.948 240.044C135.865 240.409 135.669 240.742 135.388 240.997C135.106 241.253 134.751 241.42 134.369 241.477L134.33 241.483C134.425 242.415 134.593 243.338 134.833 244.245C132.528 252.878 137.504 256.023 144.608 256.164C144.764 256.242 144.917 256.32 145.074 256.394C143.725 260.097 142.879 263.955 142.557 267.869C142.375 270.179 142.385 272.499 142.589 274.806L142.577 274.725C142.062 272.158 140.649 269.843 138.576 268.169C135.497 265.719 131.148 264.817 127.826 262.847C127.473 262.628 127.063 262.511 126.643 262.51C126.224 262.509 125.813 262.624 125.459 262.842C125.105 263.06 124.822 263.371 124.645 263.739C124.467 264.108 124.402 264.517 124.458 264.92C124.462 264.949 124.467 264.977 124.471 265.006C124.966 265.202 125.448 265.427 125.915 265.68C126.181 265.826 126.443 265.981 126.698 266.144C127.019 266.352 127.268 266.649 127.412 266.996C127.556 267.343 127.588 267.724 127.504 268.089C127.421 268.455 127.226 268.787 126.944 269.043C126.662 269.298 126.307 269.466 125.926 269.523L125.886 269.528C125.858 269.532 125.834 269.536 125.806 269.54C126.652 271.497 127.839 273.298 129.316 274.865C130.757 282.401 136.946 283.116 143.566 280.922H143.57C144.297 283.979 145.349 286.956 146.711 289.803H157.929C157.969 289.682 158.005 289.557 158.041 289.437C157.003 289.5 155.96 289.44 154.937 289.257C155.769 288.268 156.602 287.271 157.434 286.281C157.453 286.263 157.47 286.243 157.486 286.223C157.909 285.717 158.335 285.214 158.757 284.708L158.757 284.707C158.78 283.155 158.596 281.607 158.21 280.1L158.21 280.1Z" fill="#F2F2F2"/>
<path d="M151.172 78V66.8281H153.32L157.109 75.3047L160.82 66.8281H162.891V78H160.977V70.2188L157.945 78H156.18L153.086 70.2188V78H151.172ZM166.383 78H164.258L169 66.8281H171.227L176.07 78H173.844L172.57 74.9531H168.859L169.57 73.1562H171.82L170.062 68.9609L166.383 78ZM177.242 77.5312V75.6562C178.362 76.0729 179.628 76.2812 181.039 76.2812C182.753 76.2812 183.609 75.7083 183.609 74.5625C183.609 73.7292 183.083 73.3125 182.031 73.3125H180.281C177.995 73.3125 176.852 72.2708 176.852 70.1875C176.852 67.8958 178.479 66.75 181.734 66.75C182.984 66.75 184.169 66.9323 185.289 67.2969V69.1719C184.169 68.7552 182.984 68.5469 181.734 68.5469C179.859 68.5469 178.922 69.0938 178.922 70.1875C178.922 71.0208 179.375 71.4375 180.281 71.4375H182.031C184.464 71.4375 185.68 72.4792 185.68 74.5625C185.68 76.9062 184.133 78.0781 181.039 78.0781C179.628 78.0781 178.362 77.8958 177.242 77.5312ZM187.438 77.9844V66.8281H192.516C194.797 66.8281 195.938 67.8255 195.938 69.8203C195.938 71.1693 195.049 72.2865 193.273 73.1719L196.812 78H194.203L190.805 73.1328V72.1875C192.784 71.849 193.773 71.0807 193.773 69.8828C193.773 69.0599 193.31 68.6484 192.383 68.6484H189.547V77.9844H187.438ZM199.555 72.3828C199.555 74.9818 200.708 76.2812 203.016 76.2812C205.266 76.2812 206.391 74.9818 206.391 72.3828C206.391 69.8255 205.266 68.5469 203.016 68.5469C200.708 68.5469 199.555 69.8255 199.555 72.3828ZM197.406 72.4297C197.406 68.6432 199.276 66.75 203.016 66.75C206.698 66.75 208.539 68.6432 208.539 72.4297C208.539 76.1953 206.698 78.0781 203.016 78.0781C199.443 78.0781 197.573 76.1953 197.406 72.4297ZM212.258 72.3828C212.258 74.9818 213.411 76.2812 215.719 76.2812C217.969 76.2812 219.094 74.9818 219.094 72.3828C219.094 69.8255 217.969 68.5469 215.719 68.5469C213.411 68.5469 212.258 69.8255 212.258 72.3828ZM210.109 72.4297C210.109 68.6432 211.979 66.75 215.719 66.75C219.401 66.75 221.242 68.6432 221.242 72.4297C221.242 76.1953 219.401 78.0781 215.719 78.0781C212.146 78.0781 210.276 76.1953 210.109 72.4297ZM230.539 66.8281V68.6094H225.258V71.4219H230.273V73.2734H225.234V78H223.203V66.8281H230.539ZM234.367 66.8281V78H232.297V66.8281H234.367Z" fill="#1E1E1E"/>
</svg>
