<svg width="457" height="335" viewBox="0 0 457 335" fill="none" xmlns="http://www.w3.org/2000/svg">
<path d="M166.853 84.2959C171.25 75.997 174.106 67.8605 175.126 60.3554C171.049 59.8665 167.442 60.2071 164.293 61.2914C169.715 52.0251 173.335 40.6134 168.623 34.7552C165.656 31.5259 161.822 29.1084 157.289 27.5028C158.755 20.5449 158.773 14.0261 157.101 8.29509C149.35 -18.3876 98.0435 29.6857 65.3013 8.8784C51.5747 0.158581 36.7984 11.1456 24.8309 28.8137C26.4727 34.6891 29.5041 40.1495 33.7611 44.4372C28.3373 44.0403 23.0015 42.4046 18.252 39.6865C5.44593 63.254 -2.294 92.7571 1.58182 106.095C4.09728 114.749 10.1192 120.564 18.5686 123.559C17.1027 130.517 48.7757 180.463 54.612 180.411C70.1271 180.273 74.9513 144.13 85.3102 190.448L62.2346 334.963H95.657V185.925C104.957 171.199 114.563 181.049 136.702 169.587C204.608 134.431 175.659 95.6831 166.853 84.2959Z" fill="#DEEAF7"/>
<path d="M35.6083 318.205C37.5204 318.326 38.5771 315.927 37.1305 314.529L36.9866 313.951C37.0055 313.905 37.0246 313.859 37.0438 313.812C38.9774 309.157 45.5308 309.189 47.448 313.851C49.1496 317.99 51.3162 322.135 51.8496 326.51C52.0887 328.442 51.9811 330.41 51.5567 332.305C55.5439 323.511 57.6421 313.907 57.6421 304.25C57.6421 301.823 57.5106 299.397 57.2416 296.977C57.0204 294.997 56.7156 293.029 56.321 291.079C54.187 280.541 49.566 270.503 42.9008 262.119C39.6966 260.35 37.0245 257.586 35.4105 254.272C34.8307 253.077 34.3763 251.791 34.1611 250.482C34.5258 250.53 35.5361 244.923 35.2611 244.578C35.7692 243.8 36.6787 243.413 37.2337 242.653C39.994 238.874 43.7969 239.534 45.7821 244.669C50.0231 246.83 50.0641 250.415 47.4619 253.862C45.8063 256.055 45.5788 259.023 44.1262 261.37C44.2757 261.564 44.4311 261.751 44.5805 261.944C47.3211 265.493 49.6914 269.308 51.6896 273.316C51.1248 268.862 51.9586 263.496 53.3799 260.037C54.9979 256.095 58.0306 252.776 60.7013 249.369C63.9091 245.277 70.4872 247.063 71.0524 252.25C71.0579 252.301 71.0632 252.351 71.0684 252.401C70.6717 252.627 70.2831 252.867 69.9035 253.121C67.7382 254.567 68.4866 257.956 71.0521 258.356L71.1102 258.365C70.9668 259.807 70.7217 261.238 70.363 262.644C73.7891 276.023 66.3924 280.895 55.8309 281.114C55.5977 281.235 55.3705 281.356 55.1374 281.47C56.2075 284.512 57.0623 287.633 57.6959 290.796C58.2638 293.59 58.6584 296.415 58.8795 299.252C59.1546 302.831 59.1307 306.429 58.8317 310.002L58.8497 309.875C59.6088 305.94 61.725 302.264 64.7976 299.717C69.3749 295.92 75.8418 294.522 80.7799 291.47C83.1569 290.001 86.203 291.9 85.7881 294.682C85.7815 294.727 85.7748 294.771 85.7679 294.816C85.0327 295.117 84.3153 295.468 83.6219 295.86C83.2252 296.086 82.8366 296.326 82.457 296.579C80.2917 298.025 81.04 301.415 83.6056 301.814L83.6638 301.823C83.7056 301.829 83.7415 301.835 83.7833 301.842C82.5219 304.865 80.7645 307.672 78.5646 310.093C76.4224 321.771 67.2213 322.88 57.3791 319.479H57.3731C56.2971 324.211 54.725 328.834 52.7044 333.241H36.0263C35.9664 333.053 35.9126 332.86 35.8588 332.673C37.4011 332.77 38.9554 332.679 40.4738 332.396C39.2363 330.862 37.9989 329.317 36.7615 327.784C36.7316 327.754 36.7077 327.724 36.6838 327.693C36.0561 326.909 35.4225 326.13 34.7948 325.346L34.7945 325.345C34.7552 322.936 35.0411 320.535 35.6078 318.205L35.6083 318.205H35.6083Z" fill="#2193B0"/>
<path d="M129.966 322.103C131.4 322.192 132.193 320.415 131.108 319.38L131 318.952C131.014 318.918 131.028 318.884 131.043 318.849C132.493 315.401 137.408 315.424 138.846 318.878C140.122 321.944 141.747 325.014 142.147 328.255C142.327 329.686 142.246 331.143 141.928 332.547C144.918 326.033 146.492 318.92 146.492 311.766C146.492 309.968 146.393 308.171 146.191 306.378C146.025 304.912 145.797 303.454 145.501 302.01C143.9 294.204 140.434 286.768 135.436 280.558C133.032 279.248 131.028 277.2 129.818 274.745C129.383 273.86 129.042 272.908 128.881 271.938C129.154 271.973 129.912 267.82 129.706 267.565C130.087 266.988 130.769 266.701 131.185 266.139C133.255 263.34 136.108 263.828 137.597 267.632C140.777 269.233 140.808 271.888 138.856 274.441C137.615 276.066 137.444 278.264 136.355 280.003C136.467 280.146 136.583 280.285 136.695 280.428C138.751 283.057 140.529 285.883 142.027 288.852C141.604 285.552 142.229 281.578 143.295 279.015C144.508 276.096 146.783 273.637 148.786 271.113C151.192 268.082 156.125 269.405 156.549 273.248C156.553 273.285 156.557 273.322 156.561 273.359C156.264 273.527 155.972 273.705 155.688 273.892C154.064 274.963 154.625 277.474 156.549 277.77L156.593 277.777C156.485 278.845 156.301 279.905 156.032 280.947C158.602 290.857 153.054 294.466 145.133 294.628C144.958 294.718 144.788 294.807 144.613 294.892C145.416 297.145 146.057 299.457 146.532 301.8C146.958 303.87 147.254 305.962 147.42 308.064C147.626 310.715 147.608 313.38 147.384 316.027L147.397 315.933C147.967 313.018 149.554 310.295 151.858 308.408C155.291 305.596 160.141 304.56 163.845 302.3C165.628 301.211 167.912 302.618 167.601 304.679L167.586 304.778C167.034 305.001 166.496 305.26 165.976 305.551C165.679 305.718 165.387 305.896 165.103 306.084C163.479 307.155 164.04 309.666 165.964 309.962L166.008 309.969C166.039 309.973 166.066 309.977 166.097 309.982C165.151 312.222 163.833 314.301 162.183 316.094C160.577 324.745 153.676 325.566 146.294 323.046H146.29C145.483 326.552 144.304 329.977 142.788 333.24H130.28C130.235 333.102 130.194 332.959 130.154 332.82C131.311 332.892 132.477 332.825 133.615 332.614C132.687 331.479 131.759 330.334 130.831 329.199C130.809 329.176 130.791 329.154 130.773 329.132C130.302 328.55 129.827 327.974 129.356 327.392L129.356 327.392C129.326 325.607 129.541 323.829 129.966 322.103L129.966 322.103Z" fill="#F2F2F2"/>
<path d="M0.579102 334.102C0.579102 334.579 0.868972 334.963 1.22994 334.963H429.61C429.971 334.963 430.261 334.579 430.261 334.102C430.261 333.624 429.971 333.241 429.61 333.241H1.22994C0.868972 333.241 0.579102 333.624 0.579102 334.102Z" fill="#CCCCCC"/>
<g clip-path="url(#clip0_392_2127)">
<path d="M121.446 321.496C121.117 321.511 120.791 321.424 120.512 321.248C120.233 321.072 120.016 320.814 119.888 320.509C119.761 320.205 119.731 319.869 119.801 319.547C119.871 319.225 120.038 318.932 120.28 318.708C120.321 318.547 120.35 318.431 120.391 318.27C120.376 318.235 120.362 318.2 120.347 318.165C120.015 317.381 119.459 316.712 118.748 316.243C118.038 315.774 117.205 315.526 116.353 315.529C115.502 315.532 114.671 315.787 113.964 316.261C113.257 316.735 112.705 317.408 112.379 318.194C111.076 321.333 109.417 324.477 109.009 327.795C108.829 329.262 108.905 330.749 109.233 332.19C106.172 325.513 104.583 318.257 104.573 310.912C104.572 309.069 104.675 307.227 104.879 305.396C105.049 303.894 105.284 302.403 105.584 300.923C107.225 292.892 110.747 285.364 115.862 278.958C118.337 277.607 120.339 275.53 121.598 273.007C122.054 272.1 122.376 271.131 122.554 270.132C122.275 270.169 121.991 270.191 121.712 270.21C121.625 270.214 121.534 270.219 121.447 270.223L121.414 270.225C121.107 270.239 120.802 270.164 120.537 270.008C120.272 269.853 120.058 269.625 119.919 269.35C119.781 269.076 119.725 268.768 119.758 268.462C119.791 268.157 119.911 267.867 120.105 267.629C120.226 267.48 120.346 267.332 120.467 267.184C120.65 266.955 120.838 266.731 121.021 266.502C121.042 266.48 121.062 266.457 121.08 266.433C121.291 266.172 121.501 265.916 121.712 265.655C121.328 265.058 120.811 264.558 120.201 264.194C118.091 262.958 115.179 263.814 113.655 265.723C112.126 267.632 111.838 270.31 112.369 272.696C112.891 274.725 113.755 276.651 114.923 278.39C114.809 278.537 114.69 278.679 114.575 278.825C112.483 281.516 110.66 284.404 109.131 287.45C109.503 284.038 109.059 280.586 107.837 277.379C106.598 274.39 104.275 271.872 102.23 269.288C99.7735 266.184 94.736 267.539 94.3033 271.473C94.2991 271.512 94.295 271.55 94.291 271.588C94.5948 271.759 94.8921 271.941 95.1831 272.133C95.5486 272.378 95.8318 272.727 95.9956 273.134C96.1594 273.542 96.1962 273.99 96.1011 274.419C96.006 274.849 95.7835 275.239 95.4627 275.54C95.142 275.84 94.7379 276.037 94.3035 276.104L94.259 276.111C94.3672 277.206 94.5585 278.291 94.8312 279.356C95.6214 282.332 97.0178 285.112 98.9328 287.523C100.848 289.933 103.24 291.922 105.96 293.365C106.138 293.456 106.312 293.548 106.491 293.635C104.955 297.987 103.992 302.521 103.625 307.121C103.418 309.836 103.43 312.562 103.662 315.275L103.648 315.178C103.062 312.162 101.453 309.441 99.0931 307.474C95.5879 304.594 90.6356 303.534 86.854 301.219C86.4521 300.961 85.9848 300.824 85.5072 300.823C85.0297 300.821 84.5617 300.957 84.1586 301.213C83.7554 301.469 83.4339 301.835 83.232 302.268C83.03 302.701 82.956 303.182 83.0188 303.656C83.0238 303.689 83.029 303.723 83.0342 303.757C83.598 303.986 84.1468 304.251 84.6776 304.549C84.9814 304.72 85.2788 304.902 85.5697 305.094C85.9352 305.338 86.2184 305.687 86.3822 306.095C86.5461 306.503 86.5828 306.951 86.4878 307.38C86.3927 307.809 86.1702 308.2 85.8494 308.5C85.5286 308.801 85.1246 308.998 84.6901 309.065L84.6456 309.072C84.6135 309.076 84.5861 309.081 84.5541 309.085C85.5173 311.385 86.8691 313.502 88.5505 315.343C90.6275 317.572 93.1378 319.353 95.9276 320.577C98.7174 321.801 101.728 322.443 104.774 322.462H104.779C105.606 326.056 106.804 329.554 108.354 332.9H121.126C121.172 332.758 121.213 332.611 121.254 332.469C120.072 332.543 118.885 332.473 117.72 332.259C118.668 331.096 119.615 329.924 120.563 328.761C120.584 328.739 120.604 328.716 120.623 328.692C121.103 328.097 121.588 327.507 122.069 326.912L122.069 326.911C122.095 325.087 121.886 323.267 121.447 321.496L121.446 321.496Z" fill="#243B55"/>
<path d="M376.108 313.887C376.351 314.11 376.656 314.254 376.983 314.298C377.31 314.343 377.642 314.286 377.935 314.135C378.229 313.984 378.468 313.746 378.622 313.455C378.776 313.163 378.836 312.831 378.795 312.504C378.868 312.354 378.92 312.247 378.993 312.097C379.026 312.08 379.06 312.062 379.094 312.045C379.853 311.659 380.708 311.505 381.554 311.604C382.4 311.702 383.197 312.049 383.847 312.599C384.496 313.15 384.968 313.88 385.204 314.698C385.44 315.516 385.429 316.385 385.172 317.197C384.149 320.437 383.395 323.911 381.571 326.714C380.765 327.952 379.75 329.041 378.571 329.933C385.211 326.793 391.098 322.263 395.834 316.649C397.021 315.239 398.128 313.764 399.15 312.23C399.987 310.972 400.767 309.68 401.49 308.354C405.404 301.152 407.554 293.124 407.764 284.929C406.739 282.302 406.544 279.424 407.205 276.682C407.44 275.695 407.817 274.746 408.323 273.866C408.513 274.074 408.716 274.274 408.918 274.468C408.981 274.528 409.049 274.59 409.112 274.65L409.136 274.672C409.362 274.88 409.644 275.018 409.946 275.07C410.249 275.122 410.561 275.085 410.843 274.965C411.125 274.844 411.367 274.644 411.538 274.389C411.71 274.134 411.804 273.835 411.809 273.528C411.812 273.336 411.815 273.145 411.819 272.954C411.826 272.661 411.827 272.369 411.834 272.076C411.832 272.045 411.831 272.015 411.832 271.985C411.839 271.649 411.843 271.318 411.85 270.982C412.528 270.773 413.245 270.724 413.946 270.837C416.357 271.25 418.034 273.779 417.971 276.221C417.913 278.667 416.409 280.902 414.468 282.385C412.762 283.602 410.861 284.52 408.847 285.099C408.84 285.285 408.84 285.47 408.833 285.656C408.703 289.061 408.239 292.445 407.448 295.76C409.36 292.91 411.921 290.554 414.921 288.886C417.794 287.397 421.191 286.965 424.42 286.304C428.298 285.51 431.281 289.789 429.079 293.079C429.058 293.111 429.037 293.143 429.015 293.174C428.672 293.11 428.328 293.058 427.981 293.018C427.544 292.969 427.103 293.054 426.715 293.261C426.327 293.468 426.011 293.787 425.807 294.176C425.604 294.566 425.523 295.008 425.575 295.444C425.627 295.881 425.809 296.292 426.099 296.622L426.128 296.656C425.341 297.425 424.496 298.132 423.601 298.772C421.081 300.54 418.223 301.769 415.206 302.381C412.188 302.993 409.077 302.975 406.067 302.328C405.872 302.283 405.68 302.241 405.487 302.193C403.861 306.512 401.68 310.602 398.999 314.358C397.411 316.569 395.646 318.648 393.723 320.574L393.795 320.51C396.185 318.579 399.168 317.532 402.24 317.546C406.776 317.598 411.249 319.975 415.632 320.638C416.106 320.699 416.552 320.895 416.919 321.201C417.285 321.508 417.556 321.913 417.699 322.368C417.843 322.824 417.853 323.311 417.729 323.772C417.605 324.233 417.352 324.649 416.999 324.971C416.974 324.994 416.948 325.016 416.922 325.039C416.343 324.851 415.753 324.7 415.155 324.587C414.812 324.522 414.467 324.47 414.121 324.43C413.684 324.382 413.243 324.466 412.855 324.673C412.467 324.88 412.15 325.199 411.947 325.588C411.743 325.978 411.662 326.42 411.714 326.857C411.766 327.293 411.949 327.704 412.238 328.035L412.268 328.069C412.29 328.093 412.308 328.114 412.329 328.138C410.112 329.278 407.714 330.028 405.243 330.354C402.219 330.723 399.151 330.47 396.228 329.611C393.305 328.752 390.589 327.305 388.245 325.358L388.241 325.355C385.295 327.573 382.127 329.479 378.787 331.041L369.013 322.82C369.069 322.682 369.132 322.543 369.192 322.408C370.048 323.226 371.002 323.936 372.032 324.522C372.055 323.022 372.084 321.515 372.108 320.015C372.105 319.985 372.105 319.955 372.106 319.924C372.121 319.159 372.13 318.395 372.145 317.63L372.146 317.63C373.3 316.217 374.632 314.959 376.108 313.887L376.108 313.887Z" fill="#243B55"/>
<path d="M164.971 244.801C164.613 244.714 164.279 244.551 163.991 244.321C163.704 244.092 163.47 243.802 163.307 243.473C163.143 243.143 163.054 242.782 163.045 242.414C163.036 242.046 163.108 241.681 163.256 241.344L156.694 235.268L161.207 234.16L166.746 240.1C167.296 240.385 167.722 240.862 167.943 241.441C168.164 242.019 168.165 242.659 167.947 243.239C167.728 243.818 167.304 244.297 166.756 244.585C166.207 244.873 165.572 244.95 164.971 244.801H164.971Z" fill="#FFB6B6"/>
<path d="M144.949 228.229L138.071 208.153C137.528 206.561 137.638 204.819 138.378 203.308C139.117 201.797 140.426 200.641 142.017 200.095C142.898 199.793 143.835 199.689 144.76 199.79C145.686 199.89 146.578 200.194 147.374 200.679C148.169 201.163 148.848 201.817 149.362 202.593C149.876 203.37 150.214 204.25 150.349 205.171L153.098 223.81L164.598 235.587L161.573 239.897L144.949 228.229Z" fill="#3F3D56"/>
<path d="M133.595 322.942H138.505L140.84 304.004H133.594L133.595 322.942Z" fill="#FFB6B6"/>
<path d="M131.932 320.519L139.693 320.056V323.381L147.072 328.478C147.436 328.729 147.711 329.091 147.855 329.51C148 329.928 148.006 330.382 147.875 330.805C147.743 331.228 147.479 331.598 147.122 331.86C146.766 332.122 146.334 332.264 145.891 332.264H130.953L131.932 320.519Z" fill="#2F2E41"/>
<path d="M137.884 233.986C137.884 233.986 136.353 232.383 133.42 236.171C130.71 239.602 130.844 240.271 131.194 244.629C131.479 247.745 128.687 263.407 131.469 266.069L133.713 316.229C133.713 316.229 140.52 318.14 140.84 314.935L158.414 251.152L156.314 234.844L137.884 233.986Z" fill="#2F2E41"/>
<path d="M170.391 322.467L174.694 320.101L167.617 302.381L161.267 305.872L170.391 322.467Z" fill="#FFB6B6"/>
<path d="M167.767 321.146L174.344 317L175.947 319.914L184.868 320.825C185.308 320.87 185.723 321.054 186.051 321.352C186.38 321.649 186.604 322.044 186.692 322.478C186.781 322.912 186.728 323.362 186.542 323.764C186.356 324.166 186.046 324.498 185.658 324.711L177.561 329.163L175.62 330.23L172.567 331.909L167.767 321.146Z" fill="#2F2E41"/>
<path d="M131.293 242.45C131.293 242.45 131.204 250.53 130.459 255.263C129.736 259.575 130.672 264 133.078 267.651C134.829 270.244 137.408 272.662 141.128 273.654L167.26 316.528C167.26 316.528 174.145 314.923 172.882 311.96L157.553 247.6L147.857 234.322L131.293 242.45Z" fill="#2F2E41"/>
<path d="M131.081 219.589L130.304 244.629L156.235 237.453L156.691 236.215L157.803 231.999C157.803 231.999 155.232 225.933 155.756 211.808L149.206 194.343L138.83 194.131L138.773 194.189C135.496 197.46 133.079 201.491 131.737 205.923C130.395 210.355 130.17 215.049 131.081 219.589Z" fill="#3F3D56"/>
<path d="M183.247 229.88C182.895 229.987 182.523 230.016 182.159 229.964C181.795 229.912 181.447 229.781 181.139 229.58C180.83 229.378 180.57 229.112 180.376 228.8C180.182 228.487 180.059 228.136 180.015 227.77L171.279 225.86L174.607 222.617L182.393 224.928C183.012 224.895 183.621 225.091 184.105 225.477C184.589 225.864 184.914 226.414 185.019 227.025C185.124 227.635 185.002 228.263 184.675 228.789C184.349 229.315 183.84 229.704 183.247 229.88V229.88Z" fill="#FFB6B6"/>
<path d="M157.586 225.749L141.479 211.932C140.204 210.835 139.415 209.278 139.287 207.6C139.159 205.923 139.701 204.264 140.795 202.986C141.401 202.279 142.156 201.714 143.005 201.332C143.854 200.949 144.777 200.758 145.708 200.773C146.639 200.787 147.556 201.006 148.393 201.415C149.23 201.823 149.966 202.411 150.551 203.136L162.371 217.808L178.253 222.128L177.831 227.376L157.586 225.749Z" fill="#3F3D56"/>
<path d="M154.787 177.234C154.785 180.074 153.705 182.807 151.763 184.88C149.822 186.953 147.165 188.21 144.331 188.397C141.498 188.585 138.699 187.688 136.502 185.888C134.304 184.089 132.873 181.521 132.498 178.706C132.123 175.891 132.833 173.039 134.482 170.727C136.132 168.415 138.598 166.816 141.382 166.255C144.166 165.694 147.059 166.212 149.475 167.705C151.892 169.197 153.65 171.552 154.395 174.293C154.656 175.251 154.787 176.24 154.787 177.234Z" fill="#FFB8B8"/>
<path d="M150.713 162.498C149.806 162.472 150.117 160.761 149.386 160.216C149.383 160.232 149.379 160.249 149.375 160.266C149.279 160.635 149.067 160.964 148.771 161.204C148.474 161.444 148.108 161.582 147.727 161.598C147.345 161.614 146.969 161.508 146.653 161.294C146.337 161.08 146.097 160.771 145.97 160.411C145.849 159.994 145.63 159.613 145.331 159.299C145.032 158.986 144.661 158.748 144.251 158.607C144.206 160.192 143.007 161.568 141.577 162.252C140.146 162.937 138.516 163.051 136.93 163.074C135.345 163.098 133.736 163.045 132.199 163.433C130.661 163.821 129.166 164.733 128.509 166.176C127.852 167.619 128.321 169.606 129.757 170.278C128.644 170.284 127.7 171.202 127.315 172.246C127 173.317 126.918 174.444 127.074 175.549C127.387 179.642 128.149 184.049 131.13 186.872C133.401 189.024 136.653 189.89 139.781 189.878C142.91 189.865 142.36 189.578 145.385 188.779C145.385 188.779 148.261 180.534 147.537 179.723C146.813 178.912 146.211 177.874 146.342 176.795C146.473 175.715 147.633 174.748 148.64 175.159C148.471 174.726 148.343 174.644 148.263 174.666C148.314 174.543 148.359 174.417 148.396 174.29C148.586 173.639 148.927 173.043 149.392 172.551C149.856 172.058 150.432 171.682 151.07 171.455C151.714 171.246 152.407 171.239 153.056 171.435C153.705 171.631 154.278 172.022 154.698 172.553C158.01 169.446 155.955 162.654 150.713 162.498Z" fill="#2F2E41"/>
<path d="M343.139 244.801C343.496 244.714 343.831 244.551 344.118 244.321C344.406 244.092 344.64 243.802 344.803 243.473C344.967 243.143 345.056 242.782 345.065 242.414C345.074 242.046 345.002 241.681 344.854 241.344L351.415 235.268L346.903 234.16L341.364 240.1C340.814 240.385 340.388 240.862 340.167 241.441C339.946 242.019 339.944 242.659 340.163 243.239C340.382 243.818 340.806 244.297 341.354 244.585C341.903 244.873 342.538 244.95 343.139 244.801H343.139Z" fill="#9E616A"/>
<path d="M346.536 239.897L343.512 235.587L355.011 223.81L357.76 205.171C357.896 204.25 358.233 203.37 358.747 202.593C359.262 201.817 359.941 201.163 360.736 200.679C361.531 200.194 362.423 199.89 363.349 199.79C364.275 199.689 365.212 199.793 366.093 200.095C367.683 200.641 368.992 201.797 369.732 203.308C370.472 204.819 370.582 206.561 370.038 208.153L363.161 228.229L346.536 239.897Z" fill="#DEEAF7"/>
<path d="M374.515 322.942H369.605L367.27 304.004H374.516L374.515 322.942Z" fill="#9E616A"/>
<path d="M377.156 332.264H362.218C361.775 332.264 361.344 332.123 360.987 331.86C360.63 331.598 360.367 331.228 360.235 330.805C360.103 330.382 360.11 329.928 360.254 329.51C360.399 329.091 360.673 328.729 361.038 328.478L368.416 323.381V320.056L376.178 320.519L377.156 332.264Z" fill="#2F2E41"/>
<path d="M370.226 233.986C370.226 233.986 374.196 241.024 377.13 244.813C379.84 248.243 379.491 250.065 379.141 254.423C378.856 257.539 379.422 263.407 376.64 266.069L374.397 316.229C374.397 316.229 367.59 318.14 367.27 314.934L349.695 251.152L351.795 234.844L370.226 233.986Z" fill="#2F2E41"/>
<path d="M337.719 322.467L333.417 320.101L340.494 302.381L346.844 305.872L337.719 322.467Z" fill="#9E616A"/>
<path d="M335.542 331.909L332.489 330.23L330.548 329.163L322.451 324.711C322.063 324.498 321.754 324.166 321.567 323.764C321.381 323.362 321.328 322.912 321.417 322.478C321.505 322.044 321.729 321.649 322.058 321.352C322.386 321.054 322.801 320.87 323.241 320.825L332.163 319.914L333.765 317L340.343 321.146L335.542 331.909Z" fill="#2F2E41"/>
<path d="M376.817 242.45C376.817 242.45 376.906 250.53 377.651 255.263C378.373 259.575 377.438 264 375.032 267.651C373.281 270.244 370.702 272.661 366.981 273.654L340.85 316.528C340.85 316.528 333.965 314.923 335.228 311.959L350.557 247.6L360.253 234.322L376.817 242.45Z" fill="#2F2E41"/>
<path d="M369.336 194.189L369.279 194.131L358.903 194.343L352.353 211.808C352.877 225.933 350.306 231.999 350.306 231.999L351.418 236.215L347.98 257.094L381.027 250.407L377.028 219.589C377.939 215.049 377.714 210.355 376.372 205.923C375.03 201.491 372.613 197.46 369.336 194.189Z" fill="#DEEAF7"/>
<path d="M324.862 229.88C325.214 229.987 325.585 230.016 325.95 229.964C326.314 229.912 326.662 229.781 326.97 229.58C327.278 229.378 327.538 229.112 327.733 228.8C327.927 228.487 328.05 228.136 328.093 227.77L336.829 225.86L333.502 222.617L325.716 224.928C325.097 224.895 324.488 225.091 324.004 225.477C323.52 225.864 323.195 226.414 323.09 227.025C322.984 227.635 323.107 228.263 323.433 228.789C323.76 229.315 324.269 229.704 324.862 229.88L324.862 229.88Z" fill="#9E616A"/>
<path d="M330.277 227.376L329.855 222.128L345.738 217.808L357.558 203.136C358.142 202.411 358.879 201.823 359.716 201.415C360.553 201.006 361.47 200.787 362.401 200.773C363.332 200.758 364.255 200.949 365.104 201.332C365.953 201.714 366.708 202.279 367.314 202.986C368.408 204.264 368.95 205.923 368.822 207.6C368.693 209.278 367.905 210.835 366.629 211.932L350.522 225.749L330.277 227.376Z" fill="#DEEAF7"/>
<path d="M353.715 174.293C354.46 171.552 356.218 169.197 358.635 167.705C361.051 166.212 363.944 165.694 366.728 166.255C369.512 166.816 371.979 168.415 373.628 170.727C375.278 173.039 375.987 175.891 375.612 178.706C375.237 181.521 373.806 184.089 371.609 185.888C369.411 187.688 366.612 188.585 363.779 188.397C360.945 188.21 358.288 186.953 356.347 184.88C354.406 182.807 353.325 180.074 353.323 177.234C353.323 176.24 353.454 175.251 353.715 174.293Z" fill="#9E616A"/>
<path d="M357.398 162.498C358.305 162.472 369.595 163.051 371.181 163.074C372.766 163.098 374.374 163.045 375.912 163.433C377.449 163.821 378.945 164.733 379.602 166.176C380.259 167.619 380.411 171.202 380.795 172.246C381.111 173.317 381.193 174.444 381.037 175.549C380.724 179.642 379.961 184.049 376.981 186.872C374.709 189.024 371.458 189.89 368.329 189.878C365.201 189.865 365.751 189.578 362.726 188.779C362.726 188.779 359.85 180.534 360.574 179.723C361.298 178.912 361.899 177.874 361.768 176.795C361.637 175.715 360.477 174.748 359.471 175.159C359.64 174.726 359.767 174.644 359.847 174.666C359.796 174.543 359.752 174.417 359.714 174.29C359.525 173.639 359.184 173.043 358.719 172.551C358.254 172.058 357.679 171.682 357.041 171.455C356.396 171.246 355.703 171.239 355.055 171.435C354.406 171.631 353.833 172.021 353.413 172.553C350.1 169.446 352.155 162.654 357.398 162.498Z" fill="#2F2E41"/>
<path d="M182.468 229.067C196.972 227.167 213.163 225.229 225.856 234.175C230.967 237.778 234.968 242.989 236.188 249.206C236.96 253.136 236.714 257.174 236.764 261.154C236.809 264.718 237.129 268.275 238.33 271.654C240.361 277.367 244.342 282.219 249.266 285.702C254.609 289.423 260.938 291.471 267.447 291.586C281.861 291.946 295.002 284.131 304.178 273.47C314.032 262.021 319.685 247.822 324.618 233.73C325.268 231.872 325.912 230.012 326.549 228.149C326.83 227.335 325.54 226.985 325.262 227.794C320.332 242.119 315.277 256.736 306.087 268.979C297.658 280.207 285.406 289.133 271.037 290.165C264.487 290.636 257.897 289.346 252.207 286.01C246.984 282.948 242.608 278.336 240.188 272.754C238.885 269.587 238.19 266.203 238.137 262.779C237.992 258.816 238.284 254.833 237.795 250.886C237.012 244.561 233.799 239.042 228.976 234.92C224.103 230.856 218.254 228.133 212.006 227.023C204.227 225.557 196.263 226.067 188.451 226.978C186.454 227.211 184.461 227.471 182.468 227.732C181.628 227.842 181.617 229.179 182.468 229.067Z" fill="#3F3D56"/>
<path d="M301.707 196.735C299.166 199.432 295.471 200.861 291.776 201.146C289.128 201.35 286.466 201.009 283.954 200.143C281.443 199.277 279.136 197.905 277.176 196.112C275.216 194.32 273.645 192.144 272.559 189.72C271.473 187.295 270.896 184.674 270.863 182.018C270.823 179.035 271.473 176.066 271.326 173.084C270.961 165.716 265.789 159.021 266.34 151.663L269.884 152.762C267.507 152.014 265.13 151.266 262.753 150.519C261.937 150.301 261.156 149.973 260.429 149.544C258.355 148.181 257.745 145.177 258.742 142.902C259.743 140.627 262.054 139.105 264.489 138.597C266.146 138.283 267.848 138.293 269.501 138.628C270.292 138.769 271.074 138.958 271.843 139.194C274.083 138.455 276.463 138.237 278.8 138.554C281.138 138.872 283.373 139.718 285.335 141.028C287.72 142.667 289.598 144.942 290.757 147.594C291.498 149.267 291.931 151.06 292.034 152.887C292.301 157.855 290.183 163.001 290.485 167.8C290.55 169.112 290.844 170.403 291.353 171.615C293.98 177.727 302.237 180.144 304.307 186.469C305.46 189.991 304.249 194.037 301.707 196.735Z" fill="#2F2E41"/>
<path d="M303.639 292.255L300.23 295.788L284.979 284.32L290.011 279.105L303.639 292.255Z" fill="#9E616A"/>
<path d="M312.182 296.827L309.763 299.334L308.225 300.928L301.81 307.578C301.502 307.897 301.101 308.109 300.664 308.183C300.228 308.258 299.779 308.191 299.383 307.992C298.987 307.793 298.665 307.473 298.464 307.078C298.263 306.684 298.193 306.235 298.265 305.798L299.721 296.949L297.328 294.641L303.05 289.377L312.182 296.827Z" fill="#2F2E41"/>
<path d="M270.872 298.985L266.452 301.124L256.103 285.093L262.626 281.937L270.872 298.985Z" fill="#9E616A"/>
<path d="M277.308 306.228L274.172 307.745L272.178 308.709L263.861 312.733C263.462 312.926 263.012 312.986 262.576 312.905C262.141 312.824 261.743 312.606 261.44 312.283C261.137 311.96 260.946 311.548 260.893 311.109C260.841 310.669 260.931 310.224 261.149 309.838L265.573 302.038L264.125 299.044L271.313 296.081L277.308 306.228Z" fill="#2F2E41"/>
<path d="M278.08 210.393C278.08 210.393 282.051 217.431 284.984 221.219C287.694 224.65 287.345 226.471 286.996 230.829C286.711 233.945 287.277 239.814 284.495 242.476L283.279 269.66L298.276 286.849C298.276 286.849 292.213 295.466 291.892 292.261L269.689 271.615L257.55 227.558L259.65 211.251L278.08 210.393Z" fill="#2F2E41"/>
<path d="M284.671 218.856C284.671 218.856 284.76 226.937 285.505 231.67C286.227 235.982 285.292 240.407 282.886 244.057C281.135 246.651 278.556 249.068 274.835 250.06L262.114 270.932L269.18 291.154C269.18 291.154 259.023 297.005 260.287 294.042L247.992 267.75L258.411 224.007L268.107 210.728L284.671 218.856Z" fill="#2F2E41"/>
<path d="M277.192 170.596L277.134 170.538L266.758 170.75L260.208 188.215C260.732 202.339 258.161 208.405 258.161 208.405L259.273 212.622L259.729 213.86L288.882 226.814L284.883 195.996C285.795 191.456 285.569 186.761 284.227 182.33C282.886 177.898 280.469 173.867 277.192 170.596Z" fill="#C1BBEB"/>
<path d="M232.717 206.287C233.069 206.394 233.44 206.422 233.804 206.37C234.168 206.319 234.517 206.187 234.825 205.986C235.133 205.785 235.393 205.519 235.587 205.206C235.781 204.894 235.904 204.542 235.948 204.177L244.684 202.267L241.356 199.023L233.57 201.335C232.952 201.302 232.343 201.498 231.859 201.884C231.375 202.271 231.049 202.821 230.944 203.432C230.839 204.042 230.961 204.67 231.288 205.196C231.615 205.722 232.123 206.11 232.717 206.287L232.717 206.287Z" fill="#9E616A"/>
<path d="M238.133 203.783L237.711 198.535L253.594 194.215L265.414 179.543C265.998 178.818 266.735 178.23 267.572 177.821C268.409 177.413 269.325 177.194 270.256 177.179C271.187 177.165 272.11 177.356 272.96 177.738C273.809 178.121 274.563 178.685 275.17 179.392C276.263 180.67 276.806 182.33 276.677 184.007C276.549 185.684 275.76 187.242 274.485 188.339L258.378 202.156L238.133 203.783Z" fill="#C1BBEB"/>
<path d="M299.941 227.576C300.083 227.236 300.149 226.87 300.134 226.502C300.118 226.135 300.023 225.775 299.854 225.448C299.685 225.122 299.446 224.836 299.155 224.611C298.863 224.387 298.526 224.229 298.167 224.149L297.145 215.265L293.583 218.25L295.1 226.229C295.005 226.841 295.139 227.467 295.475 227.987C295.81 228.507 296.325 228.887 296.922 229.053C297.519 229.219 298.156 229.16 298.712 228.888C299.269 228.616 299.706 228.149 299.941 227.576Z" fill="#9E616A"/>
<path d="M297.994 221.936L292.73 221.828L290.028 205.591L276.619 192.356C275.956 191.702 275.446 190.91 275.123 190.036C274.801 189.163 274.675 188.229 274.754 187.301C274.834 186.373 275.116 185.474 275.582 184.667C276.048 183.861 276.686 183.167 277.45 182.635C278.831 181.675 280.537 181.302 282.193 181.598C283.849 181.895 285.319 182.836 286.282 184.215L298.41 201.63L297.994 221.936Z" fill="#C1BBEB"/>
<path d="M261.569 150.699C262.314 147.959 264.073 145.604 266.489 144.111C268.905 142.619 271.799 142.101 274.583 142.662C277.366 143.223 279.833 144.822 281.483 147.133C283.132 149.445 283.841 152.298 283.466 155.113C283.091 157.928 281.66 160.495 279.463 162.295C277.266 164.094 274.467 164.991 271.633 164.804C268.799 164.617 266.143 163.359 264.201 161.287C262.26 159.214 261.179 156.481 261.178 153.641C261.177 152.647 261.309 151.658 261.569 150.699Z" fill="#9E616A"/>
<path d="M260.147 215.621C258.193 215.614 256.27 215.135 254.54 214.225C252.811 213.315 251.327 212 250.215 210.394C249.599 209.464 249.067 208.31 249.426 207.183C249.523 206.787 249.76 206.439 250.093 206.204C250.426 205.97 250.833 205.864 251.238 205.906C252.117 206.029 252.873 206.701 253.463 207.317C254.26 208.197 254.991 209.135 255.652 210.122C256.697 211.599 258.731 213.99 257.158 215.759C255.836 217.247 253.61 217.373 251.829 217.909C249.905 218.489 247.935 219.789 247.762 221.983C247.594 224.116 249.643 225.555 251.533 225.864C252.663 226.025 253.815 225.907 254.888 225.519C255.962 225.131 256.924 224.487 257.69 223.641C259.189 221.908 260.007 219.689 259.992 217.398C259.989 217.225 259.919 217.059 259.797 216.937C259.674 216.814 259.509 216.744 259.336 216.741C259.163 216.738 258.995 216.803 258.868 216.921C258.742 217.039 258.666 217.202 258.657 217.375C258.624 219.462 257.94 221.593 256.394 223.055C254.947 224.424 252.648 225.077 250.762 224.271C249.829 223.872 248.961 223.032 249.106 221.94C249.238 220.937 250.053 220.152 250.904 219.7C252.828 218.676 255.14 218.767 257.017 217.586C258.807 216.459 259.521 214.575 258.707 212.577C258.196 211.469 257.559 210.422 256.81 209.458C256.124 208.445 255.378 207.474 254.574 206.552C253.367 205.226 251.476 203.94 249.659 204.887C247.589 205.966 247.727 208.672 248.685 210.442C250.869 214.478 255.62 216.939 260.124 216.956C260.297 216.953 260.462 216.883 260.585 216.761C260.707 216.638 260.777 216.473 260.78 216.3C260.783 216.127 260.719 215.959 260.601 215.832C260.483 215.706 260.32 215.63 260.147 215.621L260.147 215.621Z" fill="#2F2E41"/>
<path d="M290.486 167.8L272.743 164.172C272.097 160.766 278.058 156.177 279.607 150.581C276.838 150.247 273.13 149.691 269.92 148.965C266.711 148.235 263.995 147.34 263.212 146.321C263.781 143.544 265.429 141.108 267.794 139.546C270.158 137.984 273.046 137.425 275.823 137.992L278 138.437C278.071 138.45 278.142 138.468 278.213 138.486C280.882 139.083 283.217 140.685 284.735 142.96C286.964 144.192 288.995 145.755 290.758 147.594C291.499 149.267 291.931 151.06 292.035 152.887C292.302 157.855 290.183 163.001 290.486 167.8Z" fill="#2F2E41"/>
</g>
<defs>
<clipPath id="clip0_392_2127">
<rect width="384.906" height="195.467" fill="white" transform="translate(71.1885 137.774)"/>
</clipPath>
</defs>
</svg>
