<svg width="334" height="83" viewBox="0 0 334 83" fill="none" xmlns="http://www.w3.org/2000/svg">
<path d="M0.664 51.208C0.664 50.2267 0.749333 49.0747 0.92 47.752C1.09067 46.4293 1.41067 44.936 1.88 43.272C2.34933 41.5653 3.05333 39.6667 3.992 37.576L11.864 40.328C11.3947 41.6507 10.9893 42.8667 10.648 43.976C10.3067 45.0427 10.0507 46.0453 9.88 46.984C9.70933 47.88 9.624 48.776 9.624 49.672C9.624 51.08 9.92267 52.3387 10.52 53.448C11.16 54.6 12.0773 55.56 13.272 56.328C14.4667 57.1387 15.9173 57.7573 17.624 58.184C19.3733 58.6107 21.3787 58.824 23.64 58.824C25.9867 58.824 28.0773 58.7173 29.912 58.504C31.7893 58.2907 33.368 57.9707 34.648 57.544C35.9707 57.1173 36.9733 56.5627 37.656 55.88C38.3387 55.24 38.68 54.4933 38.68 53.64C38.68 53.256 38.5307 52.8933 38.232 52.552C37.976 52.2107 37.528 51.848 36.888 51.464C36.2907 51.08 35.48 50.6747 34.456 50.248C33.4747 49.8213 32.28 49.352 30.872 48.84L32.984 39.816C34.8187 40.584 36.5467 41.2667 38.168 41.864C39.832 42.4187 41.4107 42.888 42.904 43.272C44.3973 43.6133 45.8053 43.8907 47.128 44.104C48.4507 44.2747 49.688 44.36 50.84 44.36C52.4613 44.36 53.6133 44.7867 54.296 45.64C54.9787 46.4507 55.32 47.4747 55.32 48.712C55.32 50.0347 54.872 51.144 53.976 52.04C53.08 52.8933 51.8213 53.32 50.2 53.32C49.8587 53.32 49.5173 53.32 49.176 53.32C48.8773 53.32 48.5573 53.32 48.216 53.32C47.9173 53.32 47.5973 53.32 47.256 53.32C47.3413 53.7467 47.384 54.1093 47.384 54.408C47.384 54.7493 47.384 55.0693 47.384 55.368C47.384 56.776 46.8933 58.2053 45.912 59.656C44.9733 61.1067 43.5013 62.4507 41.496 63.688C39.4907 64.9253 36.9307 65.9067 33.816 66.632C30.744 67.4 27.0747 67.784 22.808 67.784C18.2 67.784 14.232 67.1867 10.904 65.992C7.61867 64.84 5.08 63.0267 3.288 60.552C1.53867 58.12 0.664 55.0053 0.664 51.208ZM29.08 82.632C27.8427 82.632 26.776 82.184 25.88 81.288C25.0267 80.4347 24.6 79.4107 24.6 78.216C24.6 76.9787 25.0267 75.912 25.88 75.016C26.776 74.12 27.8427 73.672 29.08 73.672C30.2747 73.672 31.2987 74.12 32.152 75.016C33.0053 75.912 33.432 76.9787 33.432 78.216C33.432 79.4107 33.0053 80.4347 32.152 81.288C31.2987 82.184 30.2747 82.632 29.08 82.632ZM18.008 82.632C16.7707 82.632 15.704 82.184 14.808 81.288C13.9547 80.4347 13.528 79.4107 13.528 78.216C13.528 76.9787 13.9547 75.912 14.808 75.016C15.704 74.12 16.7707 73.672 18.008 73.672C19.2027 73.672 20.2267 74.12 21.08 75.016C21.9333 75.912 22.36 76.9787 22.36 78.216C22.36 79.4107 21.9333 80.4347 21.08 81.288C20.2267 82.184 19.2027 82.632 18.008 82.632ZM50.1875 53.32L50.8275 44.36H69.2595C70.8808 44.36 72.0328 44.7867 72.7155 45.64C73.4408 46.4507 73.8035 47.4747 73.8035 48.712C73.8035 50.0347 73.3555 51.144 72.4595 52.04C71.5635 52.8933 70.2835 53.32 68.6195 53.32H50.1875ZM68.6875 53.32L69.3275 44.36H87.7595C89.3808 44.36 90.5328 44.7867 91.2155 45.64C91.9408 46.4507 92.3035 47.4747 92.3035 48.712C92.3035 50.0347 91.8555 51.144 90.9595 52.04C90.0635 52.8933 88.7835 53.32 87.1195 53.32H68.6875ZM87.1875 53.32L87.8275 44.36H106.26C107.881 44.36 109.033 44.7867 109.716 45.64C110.441 46.4507 110.804 47.4747 110.804 48.712C110.804 50.0347 110.356 51.144 109.46 52.04C108.564 52.8933 107.284 53.32 105.62 53.32H87.1875ZM105.688 53.32L106.328 44.424C109.869 44.424 112.706 44.4027 114.84 44.36C117.016 44.3173 118.701 44.232 119.896 44.104C121.133 43.9333 122.05 43.7413 122.648 43.528C123.245 43.272 123.757 42.9947 124.184 42.696C124.696 42.312 125.122 41.8 125.464 41.16C125.848 40.4773 126.146 39.5813 126.36 38.472C126.573 37.3627 126.68 35.976 126.68 34.312C126.68 32.2213 126.488 30.472 126.104 29.064C125.762 27.6133 125.25 26.5253 124.568 25.8C123.928 25.0747 123.138 24.712 122.2 24.712C121.517 24.712 120.877 24.9467 120.28 25.416C119.682 25.8427 119.192 26.44 118.808 27.208C118.424 27.976 118.232 28.8507 118.232 29.832C118.232 30.3867 118.381 30.8773 118.68 31.304C118.978 31.7307 119.448 32.0507 120.088 32.264C120.728 32.4773 121.538 32.584 122.52 32.584C123.458 32.584 124.44 32.4773 125.464 32.264C126.53 32.008 127.512 31.6667 128.408 31.24L128.664 38.856C127.981 39.3253 127.192 39.752 126.296 40.136C125.4 40.52 124.44 40.8187 123.416 41.032C122.434 41.2027 121.432 41.288 120.408 41.288C118.146 41.288 116.184 40.9893 114.52 40.392C112.898 39.752 111.64 38.728 110.744 37.32C109.848 35.912 109.4 33.992 109.4 31.56C109.4 29.6827 109.72 27.8267 110.36 25.992C111 24.1147 111.917 22.4293 113.112 20.936C114.306 19.4 115.714 18.184 117.336 17.288C118.957 16.3493 120.749 15.88 122.712 15.88C125.613 15.88 128.002 16.7333 129.88 18.44C131.8 20.104 133.208 22.3653 134.104 25.224C135.042 28.04 135.512 31.176 135.512 34.632C135.512 37.6613 135.064 40.3067 134.168 42.568C133.272 44.7867 132.205 46.536 130.968 47.816C129.944 48.8827 128.77 49.7787 127.448 50.504C126.125 51.2293 124.504 51.8053 122.583 52.232C120.706 52.616 118.381 52.8933 115.608 53.064C112.877 53.2347 109.57 53.32 105.688 53.32ZM122.583 9.928C121.261 9.928 120.13 9.48 119.192 8.584C118.296 7.688 117.848 6.57866 117.848 5.256C117.848 3.93333 118.296 2.80267 119.192 1.864C120.13 0.925331 121.261 0.455997 122.583 0.455997C123.863 0.455997 124.952 0.925331 125.848 1.864C126.786 2.80267 127.256 3.93333 127.256 5.256C127.256 6.57866 126.786 7.688 125.848 8.584C124.952 9.48 123.863 9.928 122.583 9.928ZM141.648 67.72L139.792 58.76C142.821 58.376 145.467 57.9067 147.728 57.352C149.989 56.84 151.888 56.1147 153.424 55.176C154.96 54.2373 156.112 52.9573 156.88 51.336C157.648 49.672 158.032 47.5387 158.032 44.936C158.032 43.9973 157.947 43.0587 157.776 42.12C157.605 41.1387 157.349 40.2427 157.008 39.432C156.667 38.6213 156.219 37.96 155.664 37.448C155.152 36.936 154.533 36.68 153.808 36.68C153.04 36.68 152.357 36.9573 151.76 37.512C151.163 38.024 150.693 38.6853 150.352 39.496C150.011 40.264 149.84 41.0533 149.84 41.864C149.84 42.4613 149.989 42.9733 150.288 43.4C150.587 43.784 151.035 44.0827 151.632 44.296C152.229 44.4667 152.976 44.552 153.872 44.552C154.896 44.552 155.941 44.4453 157.008 44.232C158.117 43.976 159.12 43.6347 160.016 43.208L160.272 50.184C159.248 50.9947 158.075 51.72 156.752 52.36C155.429 52.9573 153.829 53.256 151.952 53.256C150.416 53.256 148.987 53.0853 147.664 52.744C146.341 52.36 145.168 51.784 144.144 51.016C143.163 50.248 142.395 49.2667 141.84 48.072C141.285 46.8347 141.008 45.3627 141.008 43.656C141.008 41.5653 141.349 39.5387 142.032 37.576C142.715 35.6133 143.653 33.864 144.848 32.328C146.085 30.7493 147.493 29.512 149.072 28.616C150.693 27.6773 152.4 27.208 154.192 27.208C156.325 27.208 158.181 27.7413 159.76 28.808C161.381 29.8747 162.725 31.2827 163.792 33.032C164.859 34.7387 165.669 36.5947 166.224 38.6C166.779 40.6053 167.056 42.5253 167.056 44.36C167.056 49.1813 166.032 53.2773 163.984 56.648C161.936 60.0187 159.013 62.6213 155.216 64.456C151.419 66.3333 146.896 67.4213 141.648 67.72ZM170.899 67.784L167.635 59.848C169.896 59.08 171.966 58.184 173.843 57.16C175.763 56.136 177.427 55.0053 178.835 53.768C180.243 52.5307 181.331 51.1867 182.099 49.736C182.867 48.2427 183.251 46.6427 183.251 44.936C183.251 43.144 182.846 41.1813 182.035 39.048C181.224 36.9147 180.243 34.7387 179.091 32.52L187.475 28.488C188.243 29.8107 188.904 31.24 189.459 32.776C190.056 34.2693 190.547 35.6133 190.931 36.808C191.315 38.0027 191.571 38.8133 191.699 39.24C192.296 41.288 193.107 42.6533 194.131 43.336C195.198 44.0187 196.904 44.36 199.251 44.36C200.872 44.36 202.024 44.7867 202.707 45.64C203.432 46.4507 203.795 47.4747 203.795 48.712C203.795 50.0347 203.347 51.144 202.451 52.04C201.555 52.8933 200.275 53.32 198.611 53.32C196.862 53.32 195.326 53.064 194.003 52.552C192.68 52.04 191.614 51.2933 190.803 50.312C190.035 49.3307 189.544 48.1787 189.331 46.856L191.699 48.2C191.443 50.4613 190.696 52.5947 189.459 54.6C188.264 56.648 186.707 58.5253 184.787 60.232C182.867 61.9387 180.712 63.432 178.323 64.712C175.934 65.992 173.459 67.016 170.899 67.784ZM198.688 53.32L199.328 44.36H217.76C219.381 44.36 220.533 44.7867 221.216 45.64C221.941 46.4507 222.304 47.4747 222.304 48.712C222.304 50.0347 221.856 51.144 220.96 52.04C220.064 52.8933 218.784 53.32 217.12 53.32H198.688ZM281.38 53.32C279.204 53.32 277.113 53.128 275.108 52.744C273.102 52.3173 271.289 51.7627 269.668 51.08C268.089 50.3973 266.788 49.6293 265.764 48.776L271.524 42.568C273.06 43.208 274.638 43.6773 276.26 43.976C277.881 44.232 279.801 44.36 282.02 44.36C283.641 44.36 284.793 44.7867 285.476 45.64C286.201 46.4507 286.564 47.4747 286.564 48.712C286.564 50.0347 286.116 51.144 285.22 52.04C284.324 52.8933 283.044 53.32 281.38 53.32ZM250.34 54.152C246.372 54.152 243.065 53.9813 240.42 53.64C237.817 53.2987 235.705 52.808 234.083 52.168C232.462 51.528 231.182 50.76 230.244 49.864C229.305 48.968 228.537 47.9867 227.94 46.92L229.732 46.408C228.665 48.456 227.449 49.9707 226.084 50.952C224.718 51.9333 223.289 52.5733 221.796 52.872C220.302 53.1707 218.766 53.32 217.188 53.32L217.828 44.36C219.15 44.36 220.196 44.1467 220.964 43.72C221.732 43.2933 222.35 42.5893 222.82 41.608C223.332 40.6267 223.801 39.3253 224.228 37.704C224.654 36.0827 225.166 34.0987 225.764 31.752L233.892 33.736C233.593 34.888 233.337 35.8907 233.124 36.744C232.953 37.5973 232.804 38.344 232.676 38.984C232.59 39.5813 232.548 40.072 232.548 40.456C232.548 41.2667 232.74 41.992 233.124 42.632C233.508 43.2293 234.254 43.72 235.364 44.104C236.473 44.4453 238.094 44.7227 240.228 44.936C242.404 45.1067 245.241 45.192 248.74 45.192C252.452 45.192 255.545 45.064 258.02 44.808C260.494 44.5093 262.457 44.104 263.908 43.592C265.401 43.0373 266.468 42.376 267.108 41.608C267.748 40.7973 268.068 39.88 268.068 38.856C268.068 38.0453 267.876 37.2987 267.492 36.616C267.15 35.8907 266.574 35.2933 265.764 34.824C264.953 34.3547 263.908 34.12 262.628 34.12C261.092 34.12 259.534 34.504 257.956 35.272C256.42 35.9973 254.905 36.9787 253.412 38.216C251.918 39.4107 250.489 40.7547 249.124 42.248C247.801 43.7413 246.606 45.2347 245.54 46.728L235.94 45.64C237.604 42.952 239.481 40.3707 241.572 37.896C243.662 35.4213 245.902 33.2453 248.292 31.368C250.681 29.448 253.156 27.9333 255.716 26.824C258.276 25.7147 260.878 25.16 263.524 25.16C266.382 25.16 268.814 25.7147 270.82 26.824C272.825 27.9333 274.361 29.4693 275.428 31.432C276.494 33.3947 277.028 35.656 277.028 38.216C277.028 41.3307 276.132 44.0827 274.34 46.472C272.59 48.8613 269.753 50.7387 265.828 52.104C261.945 53.4693 256.782 54.152 250.34 54.152ZM281.438 53.32L282.078 44.36H300.51C302.131 44.36 303.283 44.7867 303.966 45.64C304.691 46.4507 305.054 47.4747 305.054 48.712C305.054 50.0347 304.606 51.144 303.71 52.04C302.814 52.8933 301.534 53.32 299.87 53.32H281.438ZM299.938 53.32L300.578 44.36C301.559 44.36 302.391 44.1253 303.074 43.656C303.799 43.144 304.546 42.312 305.314 41.16C306.082 39.9653 306.978 38.3653 308.002 36.36C309.282 33.8 310.604 31.7947 311.97 30.344C313.378 28.8933 314.807 27.8693 316.258 27.272C317.751 26.632 319.244 26.312 320.738 26.312C322.615 26.312 324.364 26.7173 325.986 27.528C327.607 28.3387 329.015 29.448 330.21 30.856C331.404 32.2213 332.322 33.8 332.962 35.592C333.644 37.3413 333.986 39.1547 333.986 41.032C333.986 43.2933 333.495 45.3413 332.514 47.176C331.575 48.968 330.252 50.3973 328.546 51.464C326.882 52.488 324.962 53 322.786 53C320.951 53 318.818 52.68 316.385 52.04C313.954 51.4 311.394 50.056 308.706 48.008L311.97 40.264C313.89 41.5867 315.682 42.5467 317.346 43.144C319.052 43.7413 320.46 44.04 321.57 44.04C322.423 44.04 323.127 43.9547 323.682 43.784C324.236 43.6133 324.642 43.336 324.898 42.952C325.154 42.568 325.282 42.056 325.282 41.416C325.282 40.52 325.068 39.6027 324.642 38.664C324.215 37.7253 323.639 36.936 322.914 36.296C322.231 35.6133 321.42 35.272 320.482 35.272C319.586 35.272 318.818 35.6133 318.178 36.296C317.58 36.936 316.983 37.8747 316.385 39.112C315.831 40.3067 315.148 41.7147 314.338 43.336C313.356 45.2987 312.396 46.9413 311.458 48.264C310.519 49.544 309.516 50.568 308.45 51.336C307.426 52.0613 306.21 52.5733 304.802 52.872C303.436 53.1707 301.815 53.32 299.938 53.32Z" fill="#1E1E1E"/>
</svg>
