<svg width="188" height="27" viewBox="0 0 188 27" fill="none" xmlns="http://www.w3.org/2000/svg">
<path d="M0.636719 26V0.863281H5.4707L13.9961 19.9355L22.3457 0.863281H27.0039V26H22.6973V8.49219L15.877 26H11.9043L4.94336 8.49219V26H0.636719ZM34.8613 26H30.0801L40.75 0.863281H45.7598L56.6582 26H51.6484L48.7832 19.1445H40.4336L42.0332 15.1016H47.0957L43.1406 5.66211L34.8613 26ZM59.2949 24.9453V20.7266C61.8145 21.6641 64.6621 22.1328 67.8379 22.1328C71.6934 22.1328 73.6211 20.8438 73.6211 18.2656C73.6211 16.3906 72.4375 15.4531 70.0703 15.4531H66.1328C60.9883 15.4531 58.416 13.1094 58.416 8.42188C58.416 3.26563 62.0781 0.6875 69.4023 0.6875C72.2148 0.6875 74.8809 1.09766 77.4004 1.91797V6.13672C74.8809 5.19922 72.2148 4.73047 69.4023 4.73047C65.1836 4.73047 63.0742 5.96094 63.0742 8.42188C63.0742 10.2969 64.0938 11.2344 66.1328 11.2344H70.0703C75.543 11.2344 78.2793 13.5781 78.2793 18.2656C78.2793 23.5391 74.7988 26.1758 67.8379 26.1758C64.6621 26.1758 61.8145 25.7656 59.2949 24.9453ZM82.2344 25.9648V0.863281H93.6602C98.793 0.863281 101.359 3.10742 101.359 7.5957C101.359 10.6309 99.3613 13.1445 95.3652 15.1367L103.328 26H97.457L89.8105 15.0488V12.9219C94.2637 12.1602 96.4902 10.4316 96.4902 7.73633C96.4902 5.88477 95.4473 4.95898 93.3613 4.95898H86.9805V25.9648H82.2344ZM109.498 13.3613C109.498 19.209 112.094 22.1328 117.285 22.1328C122.348 22.1328 124.879 19.209 124.879 13.3613C124.879 7.60742 122.348 4.73047 117.285 4.73047C112.094 4.73047 109.498 7.60742 109.498 13.3613ZM104.664 13.4668C104.664 4.94727 108.871 0.6875 117.285 0.6875C125.57 0.6875 129.713 4.94727 129.713 13.4668C129.713 21.9395 125.57 26.1758 117.285 26.1758C109.246 26.1758 105.039 21.9395 104.664 13.4668ZM138.08 13.3613C138.08 19.209 140.676 22.1328 145.867 22.1328C150.93 22.1328 153.461 19.209 153.461 13.3613C153.461 7.60742 150.93 4.73047 145.867 4.73047C140.676 4.73047 138.08 7.60742 138.08 13.3613ZM133.246 13.4668C133.246 4.94727 137.453 0.6875 145.867 0.6875C154.152 0.6875 158.295 4.94727 158.295 13.4668C158.295 21.9395 154.152 26.1758 145.867 26.1758C137.828 26.1758 133.621 21.9395 133.246 13.4668ZM179.213 0.863281V4.87109H167.33V11.1992H178.615V15.3652H167.277V26H162.707V0.863281H179.213ZM187.826 0.863281V26H183.168V0.863281H187.826Z" fill="#1E1E1E"/>
</svg>
