<svg width="276" height="52" viewBox="0 0 276 52" fill="none" xmlns="http://www.w3.org/2000/svg">
<path d="M85.6367 39V13.8633H90.4707L98.9961 32.9355L107.346 13.8633H112.004V39H107.697V21.4922L100.877 39H96.9043L89.9434 21.4922V39H85.6367ZM119.861 39H115.08L125.75 13.8633H130.76L141.658 39H136.648L133.783 32.1445H125.434L127.033 28.1016H132.096L128.141 18.6621L119.861 39ZM144.295 37.9453V33.7266C146.814 34.6641 149.662 35.1328 152.838 35.1328C156.693 35.1328 158.621 33.8438 158.621 31.2656C158.621 29.3906 157.438 28.4531 155.07 28.4531H151.133C145.988 28.4531 143.416 26.1094 143.416 21.4219C143.416 16.2656 147.078 13.6875 154.402 13.6875C157.215 13.6875 159.881 14.0977 162.4 14.918V19.1367C159.881 18.1992 157.215 17.7305 154.402 17.7305C150.184 17.7305 148.074 18.9609 148.074 21.4219C148.074 23.2969 149.094 24.2344 151.133 24.2344H155.07C160.543 24.2344 163.279 26.5781 163.279 31.2656C163.279 36.5391 159.799 39.1758 152.838 39.1758C149.662 39.1758 146.814 38.7656 144.295 37.9453ZM167.234 38.9648V13.8633H178.66C183.793 13.8633 186.359 16.1074 186.359 20.5957C186.359 23.6309 184.361 26.1445 180.365 28.1367L188.328 39H182.457L174.811 28.0488V25.9219C179.264 25.1602 181.49 23.4316 181.49 20.7363C181.49 18.8848 180.447 17.959 178.361 17.959H171.98V38.9648H167.234ZM194.498 26.3613C194.498 32.209 197.094 35.1328 202.285 35.1328C207.348 35.1328 209.879 32.209 209.879 26.3613C209.879 20.6074 207.348 17.7305 202.285 17.7305C197.094 17.7305 194.498 20.6074 194.498 26.3613ZM189.664 26.4668C189.664 17.9473 193.871 13.6875 202.285 13.6875C210.57 13.6875 214.713 17.9473 214.713 26.4668C214.713 34.9395 210.57 39.1758 202.285 39.1758C194.246 39.1758 190.039 34.9395 189.664 26.4668ZM223.08 26.3613C223.08 32.209 225.676 35.1328 230.867 35.1328C235.93 35.1328 238.461 32.209 238.461 26.3613C238.461 20.6074 235.93 17.7305 230.867 17.7305C225.676 17.7305 223.08 20.6074 223.08 26.3613ZM218.246 26.4668C218.246 17.9473 222.453 13.6875 230.867 13.6875C239.152 13.6875 243.295 17.9473 243.295 26.4668C243.295 34.9395 239.152 39.1758 230.867 39.1758C222.828 39.1758 218.621 34.9395 218.246 26.4668ZM264.213 13.8633V17.8711H252.33V24.1992H263.615V28.3652H252.277V39H247.707V13.8633H264.213ZM272.826 13.8633V39H268.168V13.8633H272.826Z" fill="#1E1E1E"/>
<rect width="53.6625" height="34.8549" rx="7" transform="matrix(0.999824 -0.0187829 0.0158463 0.999874 1.38184 15.6306)" fill="#0E1522"/>
<rect width="26.1668" height="21.7366" rx="5" transform="matrix(0.704047 -0.710153 0.648057 0.761592 9.5918 25.4443)" fill="url(#paint0_linear_1158_45287)"/>
<rect width="37.8324" height="25.291" rx="5" transform="matrix(0.927769 -0.373155 0.321313 0.946973 11.9902 25.4758)" fill="url(#paint1_linear_1158_45287)"/>
<ellipse cx="23" cy="24.5" rx="5" ry="5.5" fill="url(#paint2_linear_1158_45287)"/>
<ellipse cx="40" cy="21.5" rx="5" ry="5.5" fill="url(#paint3_linear_1158_45287)"/>
<rect width="50.8168" height="22.0548" transform="matrix(0.999658 -0.0261373 0.0220518 0.999757 4.24414 23.0122)" fill="#1E1E1E" fill-opacity="0.3"/>
<path d="M2.11554 20.505C2.75793 21.0657 3.53203 21.5628 4.39129 22.0022C6.925 23.2979 10.5305 24.279 14.8609 25.0116C23.5428 26.4803 35.446 26.9981 48.3073 26.8356C53.4115 26.771 57.6367 30.8155 57.6698 35.8852L57.7068 41.5505C57.7392 46.5209 53.7356 50.5818 48.7652 50.6201C41.8752 50.6732 35.6842 50.7201 29.4931 50.7671C23.3284 50.8139 17.1634 50.8607 10.308 50.9135C5.3086 50.952 1.30241 46.9193 1.4464 41.9431C1.55456 38.2052 1.68925 34.0348 1.81466 30.1514C1.93338 26.4754 2.04379 23.0565 2.11554 20.505Z" fill="url(#paint4_linear_1158_45287)" stroke="#FCFCFC" stroke-width="2"/>
<path d="M3 12L26.3185 2.13269C28.0321 1.40758 29.9638 1.39454 31.687 2.09647L56 12" stroke="#0E1622" stroke-width="3"/>
<defs>
<linearGradient id="paint0_linear_1158_45287" x1="20.4545" y1="-1.62234" x2="14.9239" y2="14.9222" gradientUnits="userSpaceOnUse">
<stop stop-color="#243B55"/>
<stop offset="1" stop-color="#2193B0"/>
</linearGradient>
<linearGradient id="paint1_linear_1158_45287" x1="29.5014" y1="-0.396357" x2="26.9137" y2="12.6818" gradientUnits="userSpaceOnUse">
<stop stop-color="#243B55"/>
<stop offset="1" stop-color="#2193B0"/>
</linearGradient>
<linearGradient id="paint2_linear_1158_45287" x1="19.8182" y1="19" x2="22.2713" y2="28.59" gradientUnits="userSpaceOnUse">
<stop stop-color="#BDC3C7"/>
<stop offset="1" stop-color="#2C3E50"/>
</linearGradient>
<linearGradient id="paint3_linear_1158_45287" x1="36.8182" y1="16" x2="39.2713" y2="25.59" gradientUnits="userSpaceOnUse">
<stop stop-color="#BDC3C7"/>
<stop offset="1" stop-color="#2C3E50"/>
</linearGradient>
<linearGradient id="paint4_linear_1158_45287" x1="1.73592" y1="50.4776" x2="40.2155" y2="11.5186" gradientUnits="userSpaceOnUse">
<stop stop-color="#0D1420"/>
<stop offset="1" stop-color="#243B55"/>
</linearGradient>
</defs>
</svg>
