<svg width="500" height="292" viewBox="0 0 500 292" fill="none" xmlns="http://www.w3.org/2000/svg">
<path d="M21.3066 266.478L21.4011 265.979C21.4221 265.869 23.5724 254.939 31.6331 248.597C39.6942 242.254 50.8044 242.75 50.9154 242.756L51.422 242.782L51.3275 243.281C51.3066 243.391 49.1562 254.321 41.0955 260.664C33.0344 267.006 21.9243 266.51 21.8132 266.504L21.3066 266.478ZM32.1797 249.294C25.3643 254.656 22.9103 263.425 22.3852 265.629C24.6486 265.639 33.7401 265.324 40.5489 259.966C47.3569 254.609 49.8163 245.837 50.3434 243.631C48.0788 243.621 38.9881 243.937 32.1797 249.294Z" fill="#F1F1F1"/>
<path d="M261.082 264.2L254.626 261.477L250.197 229.057H191.218L186.417 261.344L180.641 264.237C180.365 264.376 180.143 264.604 180.012 264.884C179.881 265.164 179.849 265.481 179.92 265.782C179.991 266.083 180.161 266.352 180.403 266.544C180.646 266.736 180.945 266.84 181.254 266.84H260.55C260.867 266.84 261.174 266.731 261.419 266.53C261.664 266.329 261.832 266.049 261.894 265.738C261.957 265.427 261.91 265.104 261.762 264.824C261.614 264.543 261.374 264.323 261.082 264.2V264.2Z" fill="#E6E6E6"/>
<path d="M365.893 233.37H76.1704C74.6503 233.366 73.1937 232.759 72.12 231.681C71.0463 230.603 70.4434 229.143 70.4434 227.62V186.696H371.62V227.62C371.62 229.143 371.017 230.603 369.943 231.681C368.869 232.759 367.413 233.366 365.893 233.37Z" fill="#CCCCCC"/>
<path d="M371.922 206.038H70.1787V30.9311C70.1808 29.0935 70.9105 27.3317 72.2078 26.0323C73.505 24.733 75.2638 24.0021 77.0983 24H365.003C366.837 24.0021 368.596 24.733 369.893 26.0323C371.19 27.3317 371.92 29.0935 371.922 30.9311V206.038Z" fill="#3F3D56"/>
<path d="M353.9 193.328H88.2007C86.7864 193.327 85.4305 192.763 84.4304 191.762C83.4303 190.76 82.8678 189.402 82.8662 187.985V42.0528C82.8678 40.636 83.4303 39.2778 84.4304 38.2759C85.4304 37.2741 86.7864 36.7106 88.2007 36.709H353.9C355.315 36.7106 356.671 37.2741 357.671 38.2759C358.671 39.2778 359.233 40.636 359.235 42.0528V187.985C359.233 189.402 358.671 190.76 357.671 191.762C356.671 192.763 355.315 193.327 353.9 193.328V193.328Z" fill="white"/>
<path d="M454.844 267.179H0.703307C0.550368 267.182 0.40065 267.134 0.277482 267.043C0.154313 266.952 0.0646106 266.823 0.0223515 266.676C-0.00403136 266.576 -0.00710216 266.471 0.0133726 266.369C0.0338473 266.268 0.0773201 266.172 0.140452 266.09C0.203583 266.008 0.284687 265.941 0.377523 265.895C0.470358 265.85 0.572452 265.826 0.675944 265.826H454.789C454.95 265.82 455.109 265.869 455.239 265.965C455.368 266.061 455.462 266.199 455.504 266.355C455.526 266.454 455.525 266.556 455.502 266.655C455.479 266.754 455.435 266.846 455.371 266.925C455.308 267.004 455.228 267.068 455.137 267.112C455.045 267.156 454.945 267.178 454.844 267.179Z" fill="#CCCCCC"/>
<path d="M140.868 91.8984H97.1523V96.0109H140.868V91.8984Z" fill="#E5E5E5"/>
<path d="M140.868 101.872H97.1523V105.984H140.868V101.872Z" fill="#E5E5E5"/>
<path d="M140.868 112.065H97.1523V116.178H140.868V112.065Z" fill="#E5E5E5"/>
<path d="M140.868 122.259H97.1523V126.371H140.868V122.259Z" fill="#E5E5E5"/>
<path d="M130.514 135.212H107.507V138.781H130.514V135.212Z" fill="#2193B0"/>
<path d="M208.893 117.405H208.475V118.661H208.893V117.405Z" fill="#E5E5E5"/>
<path d="M208.893 145.426H208.475V142.749H208.893V145.426ZM208.893 140.073H208.475V137.396H208.893V140.073ZM208.893 134.72H208.475V132.043H208.893V134.72ZM208.893 129.367H208.475V126.69H208.893V129.367ZM208.893 124.014H208.475V121.337H208.893V124.014Z" fill="#E5E5E5"/>
<path d="M208.893 148.102H208.475V149.358H208.893V148.102Z" fill="#E5E5E5"/>
<path d="M254.664 117.405H254.246V118.661H254.664V117.405Z" fill="#E5E5E5"/>
<path d="M254.664 145.426H254.246V142.749H254.664V145.426ZM254.664 140.073H254.246V137.396H254.664V140.073ZM254.664 134.72H254.246V132.043H254.664V134.72ZM254.664 129.367H254.246V126.69H254.664V129.367ZM254.664 124.014H254.246V121.337H254.664V124.014Z" fill="#E5E5E5"/>
<path d="M254.664 148.102H254.246V149.358H254.664V148.102Z" fill="#E5E5E5"/>
<path d="M277.753 92.8308H277.335V94.087H277.753V92.8308Z" fill="#E5E5E5"/>
<path d="M277.753 145.53H277.335V142.958H277.753V145.53ZM277.753 140.386H277.335V137.814H277.753V140.386ZM277.753 135.242H277.335V132.669H277.753V135.242ZM277.753 130.097H277.335V127.525H277.753V130.097ZM277.753 124.953H277.335V122.381H277.753V124.953ZM277.753 119.809H277.335V117.236H277.753V119.809ZM277.753 114.664H277.335V112.092H277.753V114.664ZM277.753 109.52H277.335V106.948H277.753V109.52ZM277.753 104.376H277.335V101.803H277.753V104.376ZM277.753 99.2313H277.335V96.6592H277.753V99.2313Z" fill="#E5E5E5"/>
<path d="M277.753 148.102H277.335V149.358H277.753V148.102Z" fill="#E5E5E5"/>
<path d="M300.611 82.7812H300.193V84.0374H300.611V82.7812Z" fill="#E5E5E5"/>
<path d="M300.611 145.54H300.193V142.977H300.611V145.54ZM300.611 140.414H300.193V137.852H300.611V140.414ZM300.611 135.289H300.193V132.727H300.611V135.289ZM300.611 130.164H300.193V127.601H300.611V130.164ZM300.611 125.039H300.193V122.476H300.611V125.039ZM300.611 119.914H300.193V117.351H300.611V119.914ZM300.611 114.789H300.193V112.226H300.611V114.789ZM300.611 109.663H300.193V107.101H300.611V109.663ZM300.611 104.538H300.193V101.976H300.611V104.538ZM300.611 99.4131H300.193V96.8504H300.611V99.4131ZM300.611 94.2879H300.193V91.7253H300.611V94.2879ZM300.611 89.1627H300.193V86.6001H300.611V89.1627Z" fill="#E5E5E5"/>
<path d="M300.611 148.102H300.193V149.358H300.611V148.102Z" fill="#E5E5E5"/>
<path d="M231.883 100.577H231.465V101.833H231.883V100.577Z" fill="#E5E5E5"/>
<path d="M231.883 145.667H231.465V143.232H231.883V145.667ZM231.883 140.797H231.465V138.361H231.883V140.797ZM231.883 135.926H231.465V133.491H231.883V135.926ZM231.883 131.056H231.465V128.621H231.883V131.056ZM231.883 126.185H231.465V123.75H231.883V126.185ZM231.883 121.315H231.465V118.88H231.883V121.315ZM231.883 116.445H231.465V114.009H231.883V116.445ZM231.883 111.574H231.465V109.139H231.883V111.574ZM231.883 106.704H231.465V104.269H231.883V106.704Z" fill="#E5E5E5"/>
<path d="M231.883 148.102H231.465V149.358H231.883V148.102Z" fill="#E5E5E5"/>
<path d="M323.796 149.942H185.41C185.295 149.942 185.185 149.896 185.103 149.815C185.022 149.733 184.977 149.623 184.977 149.508V83.0659C184.977 82.9508 185.022 82.8405 185.103 82.7591C185.185 82.6778 185.295 82.6321 185.41 82.6321C185.525 82.6321 185.635 82.6778 185.716 82.7591C185.797 82.8405 185.843 82.9508 185.843 83.0659V149.074H323.796C323.911 149.074 324.021 149.12 324.103 149.201C324.184 149.282 324.229 149.393 324.229 149.508C324.229 149.623 324.184 149.733 324.103 149.815C324.021 149.896 323.911 149.942 323.796 149.942V149.942Z" fill="#3F3D56"/>
<path d="M254.645 117.988L231.636 100.725L208.942 117.752L208.423 117.058L231.636 99.6409L254.535 116.822L277.29 91.8775L277.382 91.8403L300.335 82.5762L300.659 83.3815L277.797 92.6083L254.645 117.988Z" fill="#3F3D56"/>
<path d="M208.683 120.007C210.119 120.007 211.282 118.842 211.282 117.404C211.282 115.967 210.119 114.802 208.683 114.802C207.248 114.802 206.085 115.967 206.085 117.404C206.085 118.842 207.248 120.007 208.683 120.007Z" fill="#2193B0"/>
<path d="M231.637 103.088C233.072 103.088 234.235 101.923 234.235 100.486C234.235 99.048 233.072 97.8826 231.637 97.8826C230.201 97.8826 229.038 99.048 229.038 100.486C229.038 101.923 230.201 103.088 231.637 103.088Z" fill="#2193B0"/>
<path d="M254.591 120.007C256.026 120.007 257.189 118.842 257.189 117.404C257.189 115.967 256.026 114.802 254.591 114.802C253.156 114.802 251.992 115.967 251.992 117.404C251.992 118.842 253.156 120.007 254.591 120.007Z" fill="#2193B0"/>
<path d="M277.545 94.8458C278.98 94.8458 280.143 93.6804 280.143 92.2428C280.143 90.8053 278.98 89.6399 277.545 89.6399C276.11 89.6399 274.946 90.8053 274.946 92.2428C274.946 93.6804 276.11 94.8458 277.545 94.8458Z" fill="#2193B0"/>
<path d="M300.498 85.3016C301.933 85.3016 303.096 84.1362 303.096 82.6987C303.096 81.2611 301.933 80.0957 300.498 80.0957C299.063 80.0957 297.899 81.2611 297.899 82.6987C297.899 84.1362 299.063 85.3016 300.498 85.3016Z" fill="#2193B0"/>
<path d="M179.791 37H178.906V193.62H179.791V37Z" fill="#E5E5E5"/>
<path d="M410.481 163.181C410.901 162.68 411.207 162.093 411.376 161.46C411.545 160.828 411.574 160.166 411.46 159.522C411.346 158.877 411.093 158.265 410.717 157.729C410.342 157.194 409.854 156.747 409.287 156.42L412.258 140.789L404.639 143.969L402.986 158.326C402.501 159.315 402.396 160.449 402.69 161.511C402.984 162.573 403.656 163.49 404.58 164.088C405.504 164.687 406.615 164.925 407.702 164.758C408.79 164.591 409.778 164.03 410.481 163.181V163.181Z" fill="#FFB7B7"/>
<path d="M448.474 259.1H442.022L438.952 234.172L448.475 234.172L448.474 259.1Z" fill="#FFB7B7"/>
<path d="M450.117 265.365L429.313 265.364V265.101C429.314 262.95 430.167 260.887 431.685 259.366C433.204 257.844 435.263 256.99 437.411 256.99H437.411L450.117 256.99L450.117 265.365Z" fill="#2F2E41"/>
<path d="M413.213 259.1H406.761L403.691 234.172L413.214 234.172L413.213 259.1Z" fill="#FFB7B7"/>
<path d="M413.28 265.366L392.477 265.365V265.101C392.477 262.95 393.33 260.887 394.848 259.366C396.367 257.845 398.426 256.99 400.574 256.99H400.574L413.28 256.991L413.28 265.366Z" fill="#2F2E41"/>
<path d="M412.684 153.816L406.369 168.389L401.159 252.155L414.316 251.627L417.91 211.696L428.994 176.13L435.366 215.78L437.998 250.573L448.884 251.045L453.222 153.816H412.684Z" fill="#2F2E41"/>
<path d="M444.251 81.9026L425.948 82.3612L415.202 87.8871L414.612 128.656L407.91 156.804C407.91 156.804 449.785 159.691 455.574 155.474L448.733 123.317L457.909 88.5648L444.251 81.9026Z" fill="#2193B0"/>
<path d="M417.158 88.5245L415.203 87.8872C415.203 87.8872 409.001 91.8743 409.591 101.514C409.591 101.514 409.359 106.502 409.581 109.822C409.835 113.629 402.213 151.467 402.213 151.467H413.264L418.001 117.202L417.158 88.5245Z" fill="#2193B0"/>
<path d="M457.623 163.709C457.203 163.208 456.897 162.62 456.728 161.988C456.559 161.355 456.53 160.694 456.644 160.049C456.758 159.404 457.011 158.793 457.387 158.257C457.762 157.721 458.25 157.274 458.817 156.948L455.846 141.316L463.465 144.497L465.118 158.853C465.603 159.843 465.708 160.976 465.414 162.038C465.12 163.1 464.448 164.017 463.524 164.616C462.6 165.214 461.489 165.452 460.402 165.285C459.314 165.118 458.326 164.557 457.623 163.709V163.709Z" fill="#FFB7B7"/>
<path d="M455.154 89.0516L457.109 88.4143C457.109 88.4143 463.311 92.4014 462.721 102.041C462.721 102.041 462.954 107.029 462.732 110.349C462.477 114.156 465.889 151.994 465.889 151.994H454.838L450.102 117.729L455.154 89.0516Z" fill="#2193B0"/>
<path d="M448.745 64.7982C448.745 67.312 448.001 69.7693 446.607 71.8594C445.213 73.9495 443.231 75.5786 440.913 76.5406C438.594 77.5025 436.043 77.7542 433.582 77.2638C431.121 76.7734 428.86 75.5629 427.085 73.7854C425.311 72.0079 424.103 69.7433 423.613 67.2778C423.123 64.8123 423.375 62.2568 424.335 59.9344C425.295 57.612 426.922 55.627 429.008 54.2304C431.095 52.8338 433.548 52.0884 436.057 52.0884V52.0884C437.719 52.0843 439.366 52.4081 440.903 53.0414C442.44 53.6747 443.838 54.605 445.016 55.7794C446.194 56.9537 447.13 58.349 447.77 59.8856C448.41 61.4222 448.741 63.07 448.745 64.7349C448.746 64.756 448.746 64.7771 448.745 64.7982Z" fill="#FFB7B7"/>
<path d="M423.412 47.7265C424.898 44.5249 427.774 45.1579 430.29 46.2431C433.476 45.5353 436.505 43.4162 439.938 44.6694C443.319 49.5952 454.67 48.146 452.255 56.1653C452.252 58.0869 455.865 56.9684 455.234 60.1155C457.148 66.1721 448.326 77.6424 443.261 75.227C444.514 72.9275 447.375 67.7046 443.035 67.1866C433.7 75.8877 442.072 50.6178 430.343 57.9667C426.459 61.527 421.142 51.2877 423.412 47.7265Z" fill="#2F2E41"/>
<path d="M93.9316 56V46.2246H95.8115L99.127 53.6416L102.374 46.2246H104.186V56H102.511V49.1914L99.8584 56H98.3135L95.6064 49.1914V56H93.9316ZM107.241 56H105.382L109.531 46.2246H111.479L115.718 56H113.77L112.655 53.334H109.408L110.03 51.7617H111.999L110.461 48.0908L107.241 56ZM116.743 55.5898V53.9492C117.723 54.3138 118.83 54.4961 120.065 54.4961C121.565 54.4961 122.314 53.9948 122.314 52.9922C122.314 52.263 121.854 51.8984 120.934 51.8984H119.402C117.402 51.8984 116.401 50.987 116.401 49.1641C116.401 47.1589 117.826 46.1562 120.674 46.1562C121.768 46.1562 122.804 46.3158 123.784 46.6348V48.2754C122.804 47.9108 121.768 47.7285 120.674 47.7285C119.033 47.7285 118.213 48.207 118.213 49.1641C118.213 49.8932 118.609 50.2578 119.402 50.2578H120.934C123.062 50.2578 124.126 51.1693 124.126 52.9922C124.126 55.043 122.772 56.0684 120.065 56.0684C118.83 56.0684 117.723 55.9089 116.743 55.5898ZM125.664 55.9863V46.2246H130.107C132.104 46.2246 133.102 47.0973 133.102 48.8428C133.102 50.0231 132.325 51.0007 130.771 51.7754L133.867 56H131.584L128.61 51.7412V50.9141C130.342 50.6178 131.208 49.9456 131.208 48.8975C131.208 48.1774 130.802 47.8174 129.991 47.8174H127.51V55.9863H125.664ZM136.267 51.085C136.267 53.359 137.276 54.4961 139.295 54.4961C141.264 54.4961 142.248 53.359 142.248 51.085C142.248 48.8473 141.264 47.7285 139.295 47.7285C137.276 47.7285 136.267 48.8473 136.267 51.085ZM134.387 51.126C134.387 47.8128 136.023 46.1562 139.295 46.1562C142.517 46.1562 144.128 47.8128 144.128 51.126C144.128 54.4209 142.517 56.0684 139.295 56.0684C136.169 56.0684 134.533 54.4209 134.387 51.126ZM147.382 51.085C147.382 53.359 148.391 54.4961 150.41 54.4961C152.379 54.4961 153.363 53.359 153.363 51.085C153.363 48.8473 152.379 47.7285 150.41 47.7285C148.391 47.7285 147.382 48.8473 147.382 51.085ZM145.502 51.126C145.502 47.8128 147.138 46.1562 150.41 46.1562C153.632 46.1562 155.243 47.8128 155.243 51.126C155.243 54.4209 153.632 56.0684 150.41 56.0684C147.284 56.0684 145.648 54.4209 145.502 51.126ZM163.378 46.2246V47.7832H158.757V50.2441H163.146V51.8643H158.736V56H156.959V46.2246H163.378ZM166.728 46.2246V56H164.916V46.2246H166.728Z" fill="#1E1E1E"/>
</svg>
